<?xml version="1.0" encoding="UTF-8"?>
<!DOCTYPE svg PUBLIC "-//W3C//DTD SVG 1.1//EN" "http://www.w3.org/Graphics/SVG/1.1/DTD/svg11.dtd">
<svg xmlns="http://www.w3.org/2000/svg" version="1.1" width="1200px" height="400px" style="shape-rendering:geometricPrecision; text-rendering:geometricPrecision; image-rendering:optimizeQuality; fill-rule:evenodd; clip-rule:evenodd" xmlns:xlink="http://www.w3.org/1999/xlink">
<g><path style="opacity:1" fill="#fefefe" d="M -0.5,-0.5 C 399.5,-0.5 799.5,-0.5 1199.5,-0.5C 1199.5,132.833 1199.5,266.167 1199.5,399.5C 799.5,399.5 399.5,399.5 -0.5,399.5C -0.5,266.167 -0.5,132.833 -0.5,-0.5 Z"/></g>
<g><path style="opacity:1" fill="#020202" d="M 183.5,284.5 C 183.5,279.167 183.5,273.833 183.5,268.5C 175.833,268.5 168.167,268.5 160.5,268.5C 144.506,267.669 129.84,262.835 116.5,254C 103.44,244.608 90.1065,235.608 76.5,227C 66.5745,222.602 56.2412,219.602 45.5,218C 44.1797,206.229 44.1797,194.395 45.5,182.5C 56.4897,180.448 67.1564,177.281 77.5,173C 91.1788,164.495 104.512,155.495 117.5,146C 138.048,133.274 160.381,128.44 184.5,131.5C 184.172,126.125 184.505,120.792 185.5,115.5C 205.296,126.801 224.963,138.301 244.5,150C 224.963,161.699 205.296,173.199 185.5,184.5C 184.504,178.537 184.171,172.537 184.5,166.5C 165.041,163.489 147.374,167.655 131.5,179C 121.616,186.393 111.616,193.559 101.5,200.5C 115.824,211.316 130.824,221.15 146.5,230C 150.057,231.408 153.724,232.408 157.5,233C 166.16,233.5 174.827,233.666 183.5,233.5C 183.171,227.463 183.504,221.463 184.5,215.5C 204.167,227 223.833,238.5 243.5,250C 223.636,261.765 203.636,273.265 183.5,284.5 Z"/></g>
<g><path style="opacity:1" fill="#050505" d="M 373.5,142.5 C 404.154,139.341 422.988,152.675 430,182.5C 432.611,199.104 429.945,214.771 422,229.5C 404.772,250.346 383.938,254.846 359.5,243C 348.863,236.344 342.03,226.844 339,214.5C 333.621,194.919 336.287,176.585 347,159.5C 354.074,150.892 362.908,145.225 373.5,142.5 Z"/></g>
<g><path style="opacity:1" fill="#666666" d="M 710.5,143.5 C 710.5,178.167 710.5,212.833 710.5,247.5C 715.5,247.5 720.5,247.5 725.5,247.5C 720.36,248.488 715.026,248.821 709.5,248.5C 709.168,213.329 709.502,178.329 710.5,143.5 Z"/></g>
<g><path style="opacity:1" fill="#020202" d="M 710.5,143.5 C 727.535,143.125 744.535,143.625 761.5,145C 781.14,153.883 787.64,168.717 781,189.5C 777.307,197.025 771.807,202.692 764.5,206.5C 771.846,219.86 779.179,233.194 786.5,246.5C 781.025,247.489 775.358,247.822 769.5,247.5C 762.401,234.809 755.401,221.975 748.5,209C 740.841,208.5 733.174,208.334 725.5,208.5C 725.5,221.5 725.5,234.5 725.5,247.5C 720.5,247.5 715.5,247.5 710.5,247.5C 710.5,212.833 710.5,178.167 710.5,143.5 Z"/></g>
<g><path style="opacity:1" fill="#010101" d="M 979.5,231.5 C 979.5,214.833 979.5,198.167 979.5,181.5C 975.5,181.5 971.5,181.5 967.5,181.5C 967.5,177.5 967.5,173.5 967.5,169.5C 971.5,169.5 975.5,169.5 979.5,169.5C 979.5,163.167 979.5,156.833 979.5,150.5C 984.5,150.5 989.5,150.5 994.5,150.5C 994.5,156.833 994.5,163.167 994.5,169.5C 999.833,169.5 1005.17,169.5 1010.5,169.5C 1010.5,173.5 1010.5,177.5 1010.5,181.5C 1005.17,181.5 999.833,181.5 994.5,181.5C 994.333,197.837 994.5,214.17 995,230.5C 995.833,232.667 997.333,234.167 999.5,235C 1002.82,235.498 1006.15,235.665 1009.5,235.5C 1010.16,238.488 1010.83,241.488 1011.5,244.5C 1011.17,245.5 1010.83,246.5 1010.5,247.5C 994.593,252.341 984.26,247.007 979.5,231.5 Z"/></g>
<g><path style="opacity:1" fill="#fcfcfc" d="M 375.5,156.5 C 395.505,153.913 408.339,162.246 414,181.5C 416.58,193.805 415.58,205.805 411,217.5C 403.137,232.027 390.97,237.527 374.5,234C 364.177,229.677 357.344,222.177 354,211.5C 351.691,199.72 352.025,188.054 355,176.5C 359.106,166.893 365.939,160.226 375.5,156.5 Z"/></g>
<g><path style="opacity:1" fill="#fafafa" d="M 725.5,156.5 C 735.566,156.105 745.566,156.605 755.5,158C 766.852,163.558 770.352,172.392 766,184.5C 763.993,189.838 760.159,193.004 754.5,194C 744.839,194.5 735.172,194.666 725.5,194.5C 725.5,181.833 725.5,169.167 725.5,156.5 Z"/></g>
<g><path style="opacity:1" fill="#030303" d="M 480.5,168.5 C 501.499,166.907 514.665,176.24 520,196.5C 522.45,211.083 520.117,224.75 513,237.5C 500.801,250.758 486.967,252.924 471.5,244C 469.212,241.257 467.045,238.423 465,235.5C 464.5,249.496 464.333,263.496 464.5,277.5C 459.5,277.5 454.5,277.5 449.5,277.5C 449.5,241.5 449.5,205.5 449.5,169.5C 454.5,169.5 459.5,169.5 464.5,169.5C 464.334,173.846 464.501,178.179 465,182.5C 467.167,179.667 469.333,176.833 471.5,174C 474.564,172.141 477.564,170.308 480.5,168.5 Z"/></g>
<g><path style="opacity:1" fill="#040404" d="M 605.5,212.5 C 586.833,212.5 568.167,212.5 549.5,212.5C 549.205,214.735 549.539,216.735 550.5,218.5C 554.098,233.147 563.431,238.98 578.5,236C 583.293,234.606 586.959,231.773 589.5,227.5C 594.596,226.481 599.596,226.981 604.5,229C 599.435,241.541 590.101,248.208 576.5,249C 558.722,251.197 545.889,244.364 538,228.5C 532.209,212.455 533.542,197.121 542,182.5C 554.515,167.963 569.682,164.463 587.5,172C 601.677,181.646 607.677,195.146 605.5,212.5 Z"/></g>
<g><path style="opacity:1" fill="#030303" d="M 688.5,247.5 C 683.5,247.5 678.5,247.5 673.5,247.5C 673.83,229.659 673.497,211.992 672.5,194.5C 667.66,181.921 658.993,178.421 646.5,184C 641.629,187.248 638.963,191.748 638.5,197.5C 637.503,213.992 637.17,230.658 637.5,247.5C 632.5,247.5 627.5,247.5 622.5,247.5C 622.5,221.5 622.5,195.5 622.5,169.5C 627.5,169.5 632.5,169.5 637.5,169.5C 637.334,173.846 637.501,178.179 638,182.5C 648.102,167.536 661.268,164.37 677.5,173C 683.558,177.722 687.058,183.889 688,191.5C 688.5,210.164 688.667,228.83 688.5,247.5 Z"/></g>
<g><path style="opacity:1" fill="#050505" d="M 825.5,168.5 C 857.731,167.565 872.898,183.232 871,215.5C 865.656,242.425 849.49,253.258 822.5,248C 805.441,240.241 797.441,226.908 798.5,208C 798.284,188.405 807.284,175.238 825.5,168.5 Z"/></g>
<g><path style="opacity:1" fill="#090909" d="M 1052.5,168.5 C 1073.92,166.115 1087.75,175.115 1094,195.5C 1095.24,201.435 1095.74,207.435 1095.5,213.5C 1076.83,213.5 1058.17,213.5 1039.5,213.5C 1041.42,233.31 1052.08,240.477 1071.5,235C 1074.69,233.305 1077.03,230.805 1078.5,227.5C 1079.5,227.167 1080.5,226.833 1081.5,226.5C 1085.76,226.768 1089.76,227.768 1093.5,229.5C 1089.26,240.473 1081.26,246.973 1069.5,249C 1042.66,252.165 1027.5,240.331 1024,213.5C 1022.43,198.803 1026.93,186.303 1037.5,176C 1042.32,172.921 1047.32,170.421 1052.5,168.5 Z"/></g>
<g><path style="opacity:1" fill="#040404" d="M 1153.5,168.5 C 1153.5,173.167 1153.5,177.833 1153.5,182.5C 1152.5,182.5 1151.5,182.5 1150.5,182.5C 1139.93,180.866 1132.43,184.866 1128,194.5C 1127.5,212.164 1127.33,229.83 1127.5,247.5C 1122.5,247.5 1117.5,247.5 1112.5,247.5C 1112.5,221.5 1112.5,195.5 1112.5,169.5C 1117.17,169.5 1121.83,169.5 1126.5,169.5C 1126.18,173.555 1126.51,177.555 1127.5,181.5C 1132.84,170.83 1141.51,166.496 1153.5,168.5 Z"/></g>
<g><path style="opacity:1" fill="#030303" d="M 888.5,169.5 C 893.5,169.5 898.5,169.5 903.5,169.5C 903.333,187.503 903.5,205.503 904,223.5C 910.227,236.349 919.393,238.849 931.5,231C 934.933,227.896 937.1,224.063 938,219.5C 938.5,202.837 938.667,186.17 938.5,169.5C 943.5,169.5 948.5,169.5 953.5,169.5C 953.5,195.833 953.5,222.167 953.5,248.5C 948.5,248.5 943.5,248.5 938.5,248.5C 938.666,243.821 938.499,239.155 938,234.5C 930.567,246.765 919.733,251.265 905.5,248C 896.744,244.245 891.244,237.745 889,228.5C 888.5,208.836 888.333,189.169 888.5,169.5 Z"/></g>
<g><path style="opacity:1" fill="#7c7c7c" d="M 1112.5,169.5 C 1112.5,195.5 1112.5,221.5 1112.5,247.5C 1117.5,247.5 1122.5,247.5 1127.5,247.5C 1122.36,248.488 1117.03,248.821 1111.5,248.5C 1111.17,221.995 1111.5,195.661 1112.5,169.5 Z"/></g>
<g><path style="opacity:1" fill="#6e6e6e" d="M 1153.5,168.5 C 1154.49,173.305 1154.82,178.305 1154.5,183.5C 1152.9,183.768 1151.57,183.434 1150.5,182.5C 1151.5,182.5 1152.5,182.5 1153.5,182.5C 1153.5,177.833 1153.5,173.167 1153.5,168.5 Z"/></g>
<g><path style="opacity:1" fill="#fbfbfb" d="M 478.5,181.5 C 493.317,179.647 502.15,185.98 505,200.5C 507.241,212.759 504.408,223.592 496.5,233C 479.883,240.398 469.383,235.232 465,217.5C 461.182,202.094 465.682,190.094 478.5,181.5 Z"/></g>
<g><path style="opacity:1" fill="#fbfbfb" d="M 590.5,201.5 C 577.167,201.5 563.833,201.5 550.5,201.5C 550.5,200.167 550.5,198.833 550.5,197.5C 554.341,184.408 563.008,179.241 576.5,182C 585.689,185.199 590.356,191.699 590.5,201.5 Z"/></g>
<g><path style="opacity:1" fill="#fcfcfc" d="M 827.5,181.5 C 842.113,179.38 851.28,185.38 855,199.5C 856.793,210.161 855.126,220.161 850,229.5C 843.065,236.435 834.898,238.268 825.5,235C 816.796,228.417 812.796,219.584 813.5,208.5C 813.202,196.759 817.868,187.759 827.5,181.5 Z"/></g>
<g><path style="opacity:1" fill="#fcfcfc" d="M 1053.5,181.5 C 1069.46,179.111 1078.13,185.778 1079.5,201.5C 1066.17,201.5 1052.83,201.5 1039.5,201.5C 1040.23,192.023 1044.9,185.356 1053.5,181.5 Z"/></g>
<g><path style="opacity:1" fill="#b1b1b1" d="M 967.5,181.5 C 971.5,181.5 975.5,181.5 979.5,181.5C 979.5,198.167 979.5,214.833 979.5,231.5C 978.504,215.342 978.17,199.009 978.5,182.5C 974.629,182.815 970.962,182.482 967.5,181.5 Z"/></g>
<g><path style="opacity:1" fill="#8d8d8d" d="M 672.5,194.5 C 673.497,211.992 673.83,229.659 673.5,247.5C 678.5,247.5 683.5,247.5 688.5,247.5C 683.36,248.488 678.026,248.821 672.5,248.5C 672.5,230.5 672.5,212.5 672.5,194.5 Z"/></g>
<g><path style="opacity:1" fill="#595959" d="M 550.5,197.5 C 550.5,198.833 550.5,200.167 550.5,201.5C 563.833,201.5 577.167,201.5 590.5,201.5C 577.01,202.496 563.344,202.829 549.5,202.5C 549.216,200.585 549.549,198.919 550.5,197.5 Z"/></g>
<g><path style="opacity:1" fill="#8f8f8f" d="M 638.5,197.5 C 638.5,214.5 638.5,231.5 638.5,248.5C 632.974,248.821 627.64,248.488 622.5,247.5C 627.5,247.5 632.5,247.5 637.5,247.5C 637.17,230.658 637.503,213.992 638.5,197.5 Z"/></g>
<g><path style="opacity:1" fill="#373737" d="M 605.5,212.5 C 587.341,213.497 569.008,213.83 550.5,213.5C 550.5,215.167 550.5,216.833 550.5,218.5C 549.539,216.735 549.205,214.735 549.5,212.5C 568.167,212.5 586.833,212.5 605.5,212.5 Z"/></g>
<g><path style="opacity:1" fill="#6a6a6a" d="M 786.5,246.5 C 787.043,246.56 787.376,246.893 787.5,247.5C 781.346,248.817 775.346,248.817 769.5,247.5C 775.358,247.822 781.025,247.489 786.5,246.5 Z"/></g>
<g><path style="opacity:1" fill="#858585" d="M 160.5,268.5 C 168.167,268.5 175.833,268.5 183.5,268.5C 183.5,273.833 183.5,279.167 183.5,284.5C 182.513,279.695 182.179,274.695 182.5,269.5C 174.981,269.825 167.648,269.492 160.5,268.5 Z"/></g>
</svg>
