<?xml version="1.0" encoding="UTF-8"?>
<!DOCTYPE svg PUBLIC "-//W3C//DTD SVG 1.1//EN" "http://www.w3.org/Graphics/SVG/1.1/DTD/svg11.dtd">
<svg xmlns="http://www.w3.org/2000/svg" version="1.1" width="512px" height="512px" style="shape-rendering:geometricPrecision; text-rendering:geometricPrecision; image-rendering:optimizeQuality; fill-rule:evenodd; clip-rule:evenodd" xmlns:xlink="http://www.w3.org/1999/xlink">
<g><path style="opacity:0.979" fill="#000000" d="M 244.5,-0.5 C 245.167,-0.5 245.833,-0.5 246.5,-0.5C 246.5,39.1667 246.5,78.8333 246.5,118.5C 214.066,118.211 182.066,114.378 150.5,107C 159.572,81.0143 172.406,57.181 189,35.5C 203.627,17.2854 222.127,5.28539 244.5,-0.5 Z"/></g>
<g><path style="opacity:0.979" fill="#000000" d="M 264.5,-0.5 C 265.167,-0.5 265.833,-0.5 266.5,-0.5C 288.873,5.28539 307.373,17.2854 322,35.5C 338.594,57.181 351.428,81.0143 360.5,107C 328.934,114.378 296.934,118.211 264.5,118.5C 264.5,78.8333 264.5,39.1667 264.5,-0.5 Z"/></g>
<g><path style="opacity:0.956" fill="#000000" d="M 188.5,7.5 C 189.873,7.34332 191.207,7.50999 192.5,8C 165.16,34.4993 145.827,65.9993 134.5,102.5C 112.445,97.8141 91.445,90.1474 71.5,79.5C 70.479,78.9984 70.3123,78.3317 71,77.5C 103.945,43.7752 143.112,20.4419 188.5,7.5 Z"/></g>
<g><path style="opacity:0.955" fill="#000000" d="M 318.5,8.5 C 318.917,7.87605 319.584,7.54272 320.5,7.5C 367.346,19.9108 407.346,43.5775 440.5,78.5C 420.62,89.1893 399.786,97.5226 378,103.5C 365.724,66.9156 345.891,35.2489 318.5,8.5 Z"/></g>
<g><path style="opacity:0.981" fill="#000000" d="M 112.5,204.5 C 101.162,204.333 89.8284,204.5 78.5,205C 56.1569,210.842 42.4902,225.009 37.5,247.5C 24.8333,247.5 12.1667,247.5 -0.5,247.5C -0.5,242.833 -0.5,238.167 -0.5,233.5C 4.93489,180.306 24.4349,132.973 58,91.5C 80.4649,103.544 103.965,113.044 128.5,120C 120.281,147.597 114.948,175.764 112.5,204.5 Z"/></g>
<g><path style="opacity:0.981" fill="#000000" d="M 511.5,233.5 C 511.5,238.167 511.5,242.833 511.5,247.5C 499.167,247.5 486.833,247.5 474.5,247.5C 469.16,223.66 454.493,209.493 430.5,205C 419.839,204.5 409.172,204.333 398.5,204.5C 396.052,175.764 390.719,147.597 382.5,120C 407.035,113.044 430.535,103.544 453,91.5C 486.565,132.973 506.065,180.306 511.5,233.5 Z"/></g>
<g><path style="opacity:0.987" fill="#000000" d="M 246.5,204.5 C 207.5,204.5 168.5,204.5 129.5,204.5C 132.445,177.44 137.445,150.773 144.5,124.5C 162.723,127.937 181.056,130.77 199.5,133C 215.11,134.911 230.777,135.744 246.5,135.5C 246.5,158.5 246.5,181.5 246.5,204.5 Z"/></g>
<g><path style="opacity:0.987" fill="#000000" d="M 381.5,204.5 C 342.5,204.5 303.5,204.5 264.5,204.5C 264.5,181.5 264.5,158.5 264.5,135.5C 280.223,135.744 295.89,134.911 311.5,133C 329.944,130.77 348.277,127.937 366.5,124.5C 373.555,150.773 378.555,177.44 381.5,204.5 Z"/></g>
<g><path style="opacity:1" fill="#fdfdfd" d="M 112.5,204.5 C 118.167,204.5 123.833,204.5 129.5,204.5C 168.5,204.5 207.5,204.5 246.5,204.5C 252.5,204.5 258.5,204.5 264.5,204.5C 303.5,204.5 342.5,204.5 381.5,204.5C 387.167,204.5 392.833,204.5 398.5,204.5C 409.172,204.333 419.839,204.5 430.5,205C 454.493,209.493 469.16,223.66 474.5,247.5C 474.5,253.167 474.5,258.833 474.5,264.5C 469.7,284.804 457.366,298.304 437.5,305C 424.538,306.327 411.538,306.827 398.5,306.5C 392.833,306.5 387.167,306.5 381.5,306.5C 342.5,306.5 303.5,306.5 264.5,306.5C 258.5,306.5 252.5,306.5 246.5,306.5C 207.5,306.5 168.5,306.5 129.5,306.5C 123.833,306.5 118.167,306.5 112.5,306.5C 101.162,306.667 89.8284,306.5 78.5,306C 56.502,300.17 42.8353,286.337 37.5,264.5C 37.5,258.833 37.5,253.167 37.5,247.5C 42.4902,225.009 56.1569,210.842 78.5,205C 89.8284,204.5 101.162,204.333 112.5,204.5 Z"/></g>
<g><path style="opacity:1" fill="#070707" d="M 312.5,225.5 C 320.81,224.548 327.977,226.882 334,232.5C 338.616,241.494 336.783,248.827 328.5,254.5C 337.389,259.534 339.889,266.868 336,276.5C 334.108,280.058 331.275,282.558 327.5,284C 316.772,287.734 307.605,285.568 300,277.5C 298.096,274.077 297.263,270.41 297.5,266.5C 301.833,266.5 306.167,266.5 310.5,266.5C 310.657,273.088 313.99,275.588 320.5,274C 325.321,270.399 325.654,266.399 321.5,262C 318.274,260.801 314.941,260.301 311.5,260.5C 311.5,256.833 311.5,253.167 311.5,249.5C 315.054,249.85 318.388,249.184 321.5,247.5C 325.121,239.274 322.454,236.107 313.5,238C 311.845,239.444 311.178,241.278 311.5,243.5C 306.833,243.5 302.167,243.5 297.5,243.5C 298.219,233.792 303.219,227.792 312.5,225.5 Z"/></g>
<g><path style="opacity:1" fill="#060606" d="M 384.5,225.5 C 404.378,224.711 414.045,234.378 413.5,254.5C 413.727,264.521 410.727,273.355 404.5,281C 395.958,285.192 387.292,285.526 378.5,282C 370.831,274.332 367.497,264.999 368.5,254C 367.977,244.901 370.644,236.901 376.5,230C 379.099,228.205 381.766,226.705 384.5,225.5 Z"/></g>
<g><path style="opacity:1" fill="#999999" d="M 113.5,229.5 C 108.381,228.897 103.715,229.564 99.5,231.5C 98.596,230.791 98.2627,229.791 98.5,228.5C 103.695,228.179 108.695,228.513 113.5,229.5 Z"/></g>
<g><path style="opacity:1" fill="#060606" d="M 113.5,229.5 C 115.933,242.166 118.433,254.833 121,267.5C 124.792,255 127.958,242.334 130.5,229.5C 135.875,229.172 141.208,229.505 146.5,230.5C 149.665,243.161 152.832,255.828 156,268.5C 158.952,255.574 161.452,242.574 163.5,229.5C 168.544,229.173 173.544,229.506 178.5,230.5C 173.419,248.741 168.752,267.075 164.5,285.5C 158.794,285.829 153.128,285.495 147.5,284.5C 144.667,272.503 141.834,260.503 139,248.5C 135.061,260.589 131.894,272.922 129.5,285.5C 123.833,285.5 118.167,285.5 112.5,285.5C 108.478,267.412 104.144,249.412 99.5,231.5C 103.715,229.564 108.381,228.897 113.5,229.5 Z"/></g>
<g><path style="opacity:1" fill="#030303" d="M 219.5,274.5 C 219.5,277.833 219.5,281.167 219.5,284.5C 208.167,284.5 196.833,284.5 185.5,284.5C 185.5,266.167 185.5,247.833 185.5,229.5C 196.833,229.5 208.167,229.5 219.5,229.5C 219.5,232.833 219.5,236.167 219.5,239.5C 212.833,239.5 206.167,239.5 199.5,239.5C 199.5,243.5 199.5,247.5 199.5,251.5C 205.5,251.5 211.5,251.5 217.5,251.5C 217.5,254.833 217.5,258.167 217.5,261.5C 211.5,261.5 205.5,261.5 199.5,261.5C 199.5,265.833 199.5,270.167 199.5,274.5C 206.167,274.5 212.833,274.5 219.5,274.5 Z"/></g>
<g><path style="opacity:1" fill="#676767" d="M 258.5,229.5 C 248.833,229.5 239.167,229.5 229.5,229.5C 229.5,247.833 229.5,266.167 229.5,284.5C 239.5,284.5 249.5,284.5 259.5,284.5C 249.347,285.494 239.014,285.828 228.5,285.5C 228.5,266.5 228.5,247.5 228.5,228.5C 238.681,228.173 248.681,228.506 258.5,229.5 Z"/></g>
<g><path style="opacity:1" fill="#030303" d="M 258.5,229.5 C 271.062,232.291 274.896,239.625 270,251.5C 268.316,253.351 266.483,255.018 264.5,256.5C 273.184,261.215 275.684,268.215 272,277.5C 268.898,281.8 264.731,284.133 259.5,284.5C 249.5,284.5 239.5,284.5 229.5,284.5C 229.5,266.167 229.5,247.833 229.5,229.5C 239.167,229.5 248.833,229.5 258.5,229.5 Z"/></g>
<g><path style="opacity:1" fill="#f8f8f8" d="M 386.5,238.5 C 393.042,236.849 397.209,239.183 399,245.5C 399.667,251.833 399.667,258.167 399,264.5C 396.668,271.944 392.002,273.944 385,270.5C 381.753,262.825 380.753,254.825 382,246.5C 382.738,243.352 384.238,240.685 386.5,238.5 Z"/></g>
<g><path style="opacity:1" fill="#f4f4f4" d="M 242.5,239.5 C 246.936,239.21 251.27,239.71 255.5,241C 259.5,244.333 259.5,247.667 255.5,251C 251.179,251.499 246.846,251.666 242.5,251.5C 242.5,247.5 242.5,243.5 242.5,239.5 Z"/></g>
<g><path style="opacity:1" fill="#f2f2f2" d="M 242.5,261.5 C 246.846,261.334 251.179,261.501 255.5,262C 259.292,264.053 260.458,267.219 259,271.5C 258.097,272.701 256.931,273.535 255.5,274C 251.179,274.499 246.846,274.666 242.5,274.5C 242.5,270.167 242.5,265.833 242.5,261.5 Z"/></g>
<g><path style="opacity:0.983" fill="#000000" d="M -0.5,264.5 C 12.1667,264.5 24.8333,264.5 37.5,264.5C 42.8353,286.337 56.502,300.17 78.5,306C 89.8284,306.5 101.162,306.667 112.5,306.5C 114.691,335.287 120.024,363.454 128.5,391C 104.289,398.24 80.9552,407.74 58.5,419.5C 24.4166,378.273 4.74993,330.94 -0.5,277.5C -0.5,273.167 -0.5,268.833 -0.5,264.5 Z"/></g>
<g><path style="opacity:0.983" fill="#000000" d="M 474.5,264.5 C 486.833,264.5 499.167,264.5 511.5,264.5C 511.5,269.167 511.5,273.833 511.5,278.5C 506.042,331.566 486.375,378.566 452.5,419.5C 430.045,407.74 406.711,398.24 382.5,391C 390.976,363.454 396.309,335.287 398.5,306.5C 411.538,306.827 424.538,306.327 437.5,305C 457.366,298.304 469.7,284.804 474.5,264.5 Z"/></g>
<g><path style="opacity:1" fill="#060606" d="M 349.5,271.5 C 357.661,270.171 361.495,273.505 361,281.5C 356.947,286.008 352.28,286.674 347,283.5C 344.523,278.669 345.356,274.669 349.5,271.5 Z"/></g>
<g><path style="opacity:1" fill="#4c4c4c" d="M 219.5,274.5 C 220.482,277.962 220.815,281.629 220.5,285.5C 208.655,285.828 196.988,285.495 185.5,284.5C 196.833,284.5 208.167,284.5 219.5,284.5C 219.5,281.167 219.5,277.833 219.5,274.5 Z"/></g>
<g><path style="opacity:0.986" fill="#000000" d="M 129.5,306.5 C 168.5,306.5 207.5,306.5 246.5,306.5C 246.5,329.5 246.5,352.5 246.5,375.5C 212.087,376.074 178.087,380.074 144.5,387.5C 137.317,360.916 132.317,333.916 129.5,306.5 Z"/></g>
<g><path style="opacity:0.986" fill="#000000" d="M 264.5,306.5 C 303.5,306.5 342.5,306.5 381.5,306.5C 378.683,333.916 373.683,360.916 366.5,387.5C 332.913,380.074 298.913,376.074 264.5,375.5C 264.5,352.5 264.5,329.5 264.5,306.5 Z"/></g>
<g><path style="opacity:0.978" fill="#000000" d="M 246.5,511.5 C 245.167,511.5 243.833,511.5 242.5,511.5C 222.509,506.045 205.675,495.378 192,479.5C 174.05,456.948 160.217,431.948 150.5,404.5C 182.057,397.077 214.057,393.077 246.5,392.5C 246.5,432.167 246.5,471.833 246.5,511.5 Z"/></g>
<g><path style="opacity:0.978" fill="#000000" d="M 268.5,511.5 C 267.167,511.5 265.833,511.5 264.5,511.5C 264.5,471.833 264.5,432.167 264.5,392.5C 296.943,393.077 328.943,397.077 360.5,404.5C 350.783,431.948 336.95,456.948 319,479.5C 305.325,495.378 288.491,506.045 268.5,511.5 Z"/></g>
<g><path style="opacity:0.953" fill="#000000" d="M 130.5,408.5 C 131.833,408.5 133.167,408.5 134.5,408.5C 145.834,445.303 165.167,477.136 192.5,504C 145.209,492.607 104.709,469.441 71,434.5C 70.3828,433.551 70.5494,432.718 71.5,432C 90.5905,422.445 110.257,414.612 130.5,408.5 Z"/></g>
<g><path style="opacity:0.954" fill="#000000" d="M 377.5,408.5 C 399.016,414.061 419.682,421.895 439.5,432C 440.451,432.718 440.617,433.551 440,434.5C 405.965,468.935 365.465,492.102 318.5,504C 345.714,476.927 365.38,445.093 377.5,408.5 Z"/></g>
</svg>
