<?xml version="1.0" encoding="UTF-8"?>
<!DOCTYPE svg PUBLIC "-//W3C//DTD SVG 1.1//EN" "http://www.w3.org/Graphics/SVG/1.1/DTD/svg11.dtd">
<svg xmlns="http://www.w3.org/2000/svg" version="1.1" width="2500px" height="689px" style="shape-rendering:geometricPrecision; text-rendering:geometricPrecision; image-rendering:optimizeQuality; fill-rule:evenodd; clip-rule:evenodd" xmlns:xlink="http://www.w3.org/1999/xlink">
<g><path style="opacity:1" fill="#fefefe" d="M -0.5,-0.5 C 832.833,-0.5 1666.17,-0.5 2499.5,-0.5C 2499.5,48.8333 2499.5,98.1667 2499.5,147.5C 2477.5,147.5 2455.5,147.5 2433.5,147.5C 2433.5,270.5 2433.5,393.5 2433.5,516.5C 2455.5,516.5 2477.5,516.5 2499.5,516.5C 2499.5,573.833 2499.5,631.167 2499.5,688.5C 1666.17,688.5 832.833,688.5 -0.5,688.5C -0.5,458.833 -0.5,229.167 -0.5,-0.5 Z"/></g>
<g><path style="opacity:1" fill="#010101" d="M 297.5,2.5 C 355.913,-1.76198 405.08,17.238 445,59.5C 515.78,47.4215 573.78,69.0882 619,124.5C 644.265,158.636 655.598,196.969 653,239.5C 651.68,254.414 649.347,269.081 646,283.5C 683.916,327.573 696.916,378.24 685,435.5C 669.126,498.372 630.626,540.539 569.5,562C 563.613,564.019 557.613,565.519 551.5,566.5C 530.971,626.525 489.971,664.691 428.5,681C 362.186,695.223 305.853,677.89 259.5,629C 183.392,641.512 122.892,616.678 78,554.5C 48.5804,508.164 42.0804,458.831 58.5,406.5C 17.0129,357.839 4.51293,302.505 21,240.5C 42.3478,176.982 85.5145,137.315 150.5,121.5C 171.241,63.8009 210.907,25.9676 269.5,8C 278.912,5.80595 288.245,3.97261 297.5,2.5 Z"/></g>
<g><path style="opacity:1" fill="#fdfdfd" d="M 301.5,46.5 C 337.524,43.7245 369.524,53.5578 397.5,76C 351.16,103.505 304.494,130.505 257.5,157C 252.2,160.1 248.7,164.6 247,170.5C 246.667,236.5 246.333,302.5 246,368.5C 226.502,357.419 207.169,346.086 188,334.5C 187.023,274.135 187.356,213.802 189,153.5C 200.196,101.636 231.029,67.4696 281.5,51C 288.259,49.2849 294.925,47.7849 301.5,46.5 Z"/></g>
<g><path style="opacity:1" fill="#fdfdfd" d="M 463.5,100.5 C 521.239,96.4483 564.739,119.115 594,168.5C 607.286,194.097 611.453,221.097 606.5,249.5C 560.337,223.253 514.337,196.753 468.5,170C 458.129,164.849 448.129,165.516 438.5,172C 385.33,203.086 331.997,233.919 278.5,264.5C 277.334,242.174 277.167,219.841 278,197.5C 324.085,170.54 370.251,143.707 416.5,117C 431.342,108.777 447.008,103.277 463.5,100.5 Z"/></g>
<g><path style="opacity:1" fill="#010101" d="M 945.5,141.5 C 1002.68,136.162 1051.18,153.829 1091,194.5C 1118.54,227.426 1134.21,265.426 1138,308.5C 1141.06,348.749 1134.73,387.415 1119,424.5C 1083.37,493.251 1026.54,525.084 948.5,520C 873.634,508.475 825.468,466.308 804,393.5C 789.617,340.161 793.284,288.161 815,237.5C 841.96,183.043 885.46,151.043 945.5,141.5 Z"/></g>
<g><path style="opacity:1" fill="#010101" d="M 2392.5,512.5 C 2371.19,514.489 2349.53,515.156 2327.5,514.5C 2316.98,486.622 2306.31,458.789 2295.5,431C 2242.5,430.333 2189.5,430.333 2136.5,431C 2125.67,458.647 2115.34,486.481 2105.5,514.5C 2083.66,514.831 2061.99,514.497 2040.5,513.5C 2086.56,391.485 2132.73,269.485 2179,147.5C 2204.09,146.505 2229.26,146.172 2254.5,146.5C 2300.3,268.566 2346.3,390.566 2392.5,512.5 Z"/></g>
<g><path style="opacity:1" fill="#353535" d="M 2499.5,147.5 C 2499.5,147.833 2499.5,148.167 2499.5,148.5C 2477.83,148.5 2456.17,148.5 2434.5,148.5C 2434.5,270.833 2434.5,393.167 2434.5,515.5C 2456.17,515.5 2477.83,515.5 2499.5,515.5C 2499.5,515.833 2499.5,516.167 2499.5,516.5C 2477.5,516.5 2455.5,516.5 2433.5,516.5C 2433.5,393.5 2433.5,270.5 2433.5,147.5C 2455.5,147.5 2477.5,147.5 2499.5,147.5 Z"/></g>
<g><path style="opacity:1" fill="#000000" d="M 2499.5,148.5 C 2499.5,270.833 2499.5,393.167 2499.5,515.5C 2477.83,515.5 2456.17,515.5 2434.5,515.5C 2434.5,393.167 2434.5,270.833 2434.5,148.5C 2456.17,148.5 2477.83,148.5 2499.5,148.5 Z"/></g>
<g><path style="opacity:1" fill="#fdfdfd" d="M 141.5,170.5 C 142.167,225.5 142.833,280.5 143.5,335.5C 144.284,342.897 147.951,348.397 154.5,352C 209.827,383.328 264.827,415.162 319.5,447.5C 300.997,458.586 282.33,469.419 263.5,480C 262.167,480.667 260.833,480.667 259.5,480C 210.336,451.919 161.336,423.586 112.5,395C 71.8497,363.412 54.3497,321.912 60,270.5C 69.0924,222.258 96.259,188.925 141.5,170.5 Z"/></g>
<g><path style="opacity:1" fill="#323232" d="M 141.5,170.5 C 141.56,169.957 141.893,169.624 142.5,169.5C 143.5,224.829 143.833,280.163 143.5,335.5C 142.833,280.5 142.167,225.5 141.5,170.5 Z"/></g>
<g><path style="opacity:1" fill="#fefefe" d="M 950.5,199.5 C 1011.38,196.217 1050.22,223.884 1067,282.5C 1073.19,309.612 1074.19,336.945 1070,364.5C 1064.71,398.596 1048.55,426.096 1021.5,447C 995.602,462.815 967.935,466.815 938.5,459C 901.434,445.597 877.934,419.764 868,381.5C 859.042,346.071 859.376,310.738 869,275.5C 881.859,234.54 909.026,209.206 950.5,199.5 Z"/></g>
<g><path style="opacity:1" fill="#fdfdfd" d="M 562.5,516.5 C 561.833,462.5 561.167,408.5 560.5,354.5C 559.589,345.749 555.255,339.249 547.5,335C 492.506,303.838 437.839,272.172 383.5,240C 402.704,228.634 422.037,217.467 441.5,206.5C 492.161,235.162 542.494,264.328 592.5,294C 639.755,332.777 654.588,381.611 637,440.5C 623.557,477.097 598.723,502.43 562.5,516.5 Z"/></g>
<g><path style="opacity:1" fill="#fdfdfd" d="M 2214.5,220.5 C 2217.05,223.248 2218.88,226.581 2220,230.5C 2238.34,278.009 2256.17,325.675 2273.5,373.5C 2235.17,373.5 2196.83,373.5 2158.5,373.5C 2177.17,322.5 2195.83,271.5 2214.5,220.5 Z"/></g>
<g><path style="opacity:1" fill="#010101" d="M 1590.5,240.5 C 1618.04,238.189 1644.04,243.356 1668.5,256C 1694.26,272.629 1711.42,295.795 1720,325.5C 1725.9,347.779 1728.07,370.446 1726.5,393.5C 1663.5,393.5 1600.5,393.5 1537.5,393.5C 1539.02,420.383 1550.35,441.883 1571.5,458C 1598.21,472.375 1624.54,471.709 1650.5,456C 1660.65,447.872 1667.98,437.705 1672.5,425.5C 1689.92,431.973 1707.25,438.64 1724.5,445.5C 1704.39,491.088 1669.39,515.921 1619.5,520C 1560.24,523.13 1517.4,498.296 1491,445.5C 1474.73,402.912 1474.4,360.245 1490,317.5C 1509.79,273.868 1543.29,248.201 1590.5,240.5 Z"/></g>
<g><path style="opacity:1" fill="#010101" d="M 1894.5,240.5 C 1917.56,238.563 1939.23,243.063 1959.5,254C 1982.81,270.78 1995.65,293.613 1998,322.5C 1998.5,386.499 1998.67,450.499 1998.5,514.5C 1978.17,514.5 1957.83,514.5 1937.5,514.5C 1937.98,455.135 1937.48,395.801 1936,336.5C 1927.54,304.507 1907.04,292.34 1874.5,300C 1854.6,306.238 1841.76,319.404 1836,339.5C 1834.52,397.796 1834.02,456.129 1834.5,514.5C 1813.83,514.5 1793.17,514.5 1772.5,514.5C 1772.5,424.833 1772.5,335.167 1772.5,245.5C 1793.17,245.5 1813.83,245.5 1834.5,245.5C 1834.33,254.839 1834.5,264.173 1835,273.5C 1851.04,255.564 1870.88,244.564 1894.5,240.5 Z"/></g>
<g><path style="opacity:1" fill="#010101" d="M 1184.5,246.5 C 1204.83,246.5 1225.17,246.5 1245.5,246.5C 1245.17,255.857 1245.5,265.19 1246.5,274.5C 1247.11,274.376 1247.44,274.043 1247.5,273.5C 1264.02,255.068 1284.69,244.235 1309.5,241C 1375.05,238.557 1417.22,268.724 1436,331.5C 1448.62,379.5 1442.96,425.166 1419,468.5C 1392.56,507.298 1355.72,524.465 1308.5,520C 1283.83,516.919 1263.33,506.085 1247,487.5C 1246.5,527.499 1246.33,567.499 1246.5,607.5C 1225.83,607.5 1205.17,607.5 1184.5,607.5C 1184.5,487.167 1184.5,366.833 1184.5,246.5 Z"/></g>
<g><path style="opacity:1" fill="#373737" d="M 1184.5,246.5 C 1204.99,245.503 1225.66,245.169 1246.5,245.5C 1246.17,255.015 1246.51,264.348 1247.5,273.5C 1247.44,274.043 1247.11,274.376 1246.5,274.5C 1245.5,265.19 1245.17,255.857 1245.5,246.5C 1225.17,246.5 1204.83,246.5 1184.5,246.5 Z"/></g>
<g><path style="opacity:1" fill="#fefefe" d="M 350.5,258.5 C 375.393,271.951 400.06,285.951 424.5,300.5C 425.833,329.5 425.833,358.5 424.5,387.5C 400.167,401.5 375.833,415.5 351.5,429.5C 326.918,415.293 302.418,400.959 278,386.5C 277.167,357.828 277.333,329.161 278.5,300.5C 302.799,286.836 326.799,272.836 350.5,258.5 Z"/></g>
<g><path style="opacity:1" fill="#fdfdfd" d="M 1663.5,340.5 C 1663.5,342.833 1663.5,345.167 1663.5,347.5C 1622.5,347.5 1581.5,347.5 1540.5,347.5C 1552.28,305.244 1579.95,287.411 1623.5,294C 1647.09,300.755 1660.43,316.255 1663.5,340.5 Z"/></g>
<g><path style="opacity:1" fill="#fdfdfd" d="M 1300.5,294.5 C 1345.74,292.897 1371.91,314.563 1379,359.5C 1382.41,382.436 1380.08,404.77 1372,426.5C 1357.54,456.987 1333.37,470.154 1299.5,466C 1268.39,458.218 1250.56,438.384 1246,406.5C 1244.47,390.866 1244.14,375.199 1245,359.5C 1248.4,324.622 1266.9,302.956 1300.5,294.5 Z"/></g>
<g><path style="opacity:1" fill="#fefefe" d="M 457.5,319.5 C 476.636,330.236 495.636,341.236 514.5,352.5C 515.667,410.497 515.833,468.497 515,526.5C 506.481,583.017 474.981,619.85 420.5,637C 379.985,646.951 342.985,639.617 309.5,615C 307.384,613.829 306.718,612.329 307.5,610.5C 354.704,582.8 402.037,555.3 449.5,528C 453.423,524.323 455.923,519.823 457,514.5C 457.5,449.501 457.667,384.501 457.5,319.5 Z"/></g>
<g><path style="opacity:1" fill="#353535" d="M 1663.5,340.5 C 1664.47,342.948 1664.81,345.615 1664.5,348.5C 1623,348.832 1581.66,348.499 1540.5,347.5C 1581.5,347.5 1622.5,347.5 1663.5,347.5C 1663.5,345.167 1663.5,342.833 1663.5,340.5 Z"/></g>
<g><path style="opacity:1" fill="#e1e1e1" d="M 560.5,354.5 C 561.167,408.5 561.833,462.5 562.5,516.5C 562.44,517.043 562.107,517.376 561.5,517.5C 560.5,463.171 560.167,408.837 560.5,354.5 Z"/></g>
<g><path style="opacity:1" fill="#fdfdfd" d="M 424.5,423.5 C 425.497,445.66 425.831,467.994 425.5,490.5C 375.52,519.827 325.187,548.661 274.5,577C 226.101,596.042 181.435,589.709 140.5,558C 104.566,525.527 90.0656,485.361 97,437.5C 144.908,465.733 193.075,493.566 241.5,521C 245.833,521.667 250.167,521.667 254.5,521C 311.357,488.741 368.024,456.241 424.5,423.5 Z"/></g>
<g><path style="opacity:1" fill="#3a3a3a" d="M 424.5,423.5 C 424.56,422.957 424.893,422.624 425.5,422.5C 426.829,445.33 426.829,467.996 425.5,490.5C 425.831,467.994 425.497,445.66 424.5,423.5 Z"/></g>
<g><path style="opacity:1" fill="#787878" d="M 2040.5,513.5 C 2061.99,514.497 2083.66,514.831 2105.5,514.5C 2083.66,515.828 2061.66,515.828 2039.5,514.5C 2039.62,513.893 2039.96,513.56 2040.5,513.5 Z"/></g>
<g><path style="opacity:1" fill="#757575" d="M 2392.5,512.5 C 2393.4,513.209 2393.74,514.209 2393.5,515.5C 2371.33,515.831 2349.33,515.497 2327.5,514.5C 2349.53,515.156 2371.19,514.489 2392.5,512.5 Z"/></g>
</svg>
