<?xml version="1.0" encoding="UTF-8"?>
<!DOCTYPE svg PUBLIC "-//W3C//DTD SVG 1.1//EN" "http://www.w3.org/Graphics/SVG/1.1/DTD/svg11.dtd">
<svg xmlns="http://www.w3.org/2000/svg" version="1.1" width="560px" height="560px" style="shape-rendering:geometricPrecision; text-rendering:geometricPrecision; image-rendering:optimizeQuality; fill-rule:evenodd; clip-rule:evenodd" xmlns:xlink="http://www.w3.org/1999/xlink">
<g><path style="opacity:0.972" fill="#f68d12" d="M 309.5,99.5 C 328.534,103.398 347.2,108.732 365.5,115.5C 348.196,120.868 330.696,125.534 313,129.5C 295.679,125.378 278.513,120.712 261.5,115.5C 277.666,110.334 293.666,105 309.5,99.5 Z"/></g>
<g><path style="opacity:0.974" fill="#f68d13" d="M 450.5,99.5 C 469.548,103.404 488.215,108.737 506.5,115.5C 489.352,120.787 472.019,125.454 454.5,129.5C 437.096,125.316 419.763,120.816 402.5,116C 418.527,110.38 434.527,104.88 450.5,99.5 Z"/></g>
<g><path style="opacity:0.983" fill="#f68d12" d="M 251.5,122.5 C 270.827,127.832 290.16,133.165 309.5,138.5C 309.743,166.513 309.41,194.513 308.5,222.5C 289.5,216.5 270.5,210.5 251.5,204.5C 251.5,177.167 251.5,149.833 251.5,122.5 Z"/></g>
<g><path style="opacity:0.983" fill="#f68d11" d="M 375.5,122.5 C 376.5,122.5 377.5,122.5 378.5,122.5C 378.5,149.833 378.5,177.167 378.5,204.5C 359.5,210.5 340.5,216.5 321.5,222.5C 321.5,194.5 321.5,166.5 321.5,138.5C 339.773,133.739 357.773,128.406 375.5,122.5 Z"/></g>
<g><path style="opacity:0.991" fill="#f68d11" d="M 392.5,122.5 C 411.885,127.628 431.218,132.961 450.5,138.5C 450.5,166.5 450.5,194.5 450.5,222.5C 431.106,216.702 411.773,210.702 392.5,204.5C 392.5,177.167 392.5,149.833 392.5,122.5 Z"/></g>
<g><path style="opacity:0.983" fill="#f68d11" d="M 516.5,122.5 C 517.5,122.5 518.5,122.5 519.5,122.5C 519.5,149.833 519.5,177.167 519.5,204.5C 500.5,210.5 481.5,216.5 462.5,222.5C 462.5,194.5 462.5,166.5 462.5,138.5C 480.773,133.739 498.773,128.406 516.5,122.5 Z"/></g>
<g><path style="opacity:0.969" fill="#f68d12" d="M 101.5,216.5 C 119.195,221.842 136.861,227.342 154.5,233C 137.394,238.445 120.061,243.278 102.5,247.5C 84.9389,243.278 67.6056,238.445 50.5,233C 67.6445,227.562 84.6445,222.062 101.5,216.5 Z"/></g>
<g><path style="opacity:0.971" fill="#f68e13" d="M 242.5,216.5 C 260.36,221.564 278.026,227.231 295.5,233.5C 278.259,238.477 260.926,243.144 243.5,247.5C 225.939,243.278 208.606,238.445 191.5,233C 208.666,227.633 225.666,222.133 242.5,216.5 Z"/></g>
<g><path style="opacity:0.989" fill="#f68d11" d="M 39.5,241.5 C 58.3958,246.933 77.2291,252.599 96,258.5C 96.8332,286.506 96.6665,314.506 95.5,342.5C 76.9462,336.26 58.4462,329.927 40,323.5C 39.5,296.169 39.3334,268.835 39.5,241.5 Z"/></g>
<g><path style="opacity:0.985" fill="#f68d11" d="M 180.5,241.5 C 199.412,246.936 218.246,252.603 237,258.5C 237.667,286.5 237.667,314.5 237,342.5C 218.27,336.368 199.603,330.034 181,323.5C 180.5,296.169 180.333,268.835 180.5,241.5 Z"/></g>
<g><path style="opacity:0.994" fill="#f68d11" d="M 164.5,241.5 C 165.833,254.817 166.499,268.483 166.5,282.5C 166.167,296.167 165.833,309.833 165.5,323.5C 146.833,329.833 128.167,336.167 109.5,342.5C 108.333,314.506 108.167,286.506 109,258.5C 127.659,253.048 146.159,247.382 164.5,241.5 Z"/></g>
<g><path style="opacity:0.982" fill="#f68d12" d="M 307.5,241.5 C 308.82,244.428 309.486,247.761 309.5,251.5C 308.804,275.218 308.304,299.218 308,323.5C 289.554,329.927 271.054,336.26 252.5,342.5C 251.333,314.506 251.167,286.506 252,258.5C 270.567,252.738 289.067,247.072 307.5,241.5 Z"/></g>
<g><path style="opacity:0.97" fill="#f68d13" d="M 170.5,334.5 C 188.643,339.492 206.643,344.992 224.5,351C 207.267,356.142 189.933,360.975 172.5,365.5C 154.968,361.153 137.635,356.319 120.5,351C 137.274,345.481 153.941,339.981 170.5,334.5 Z"/></g>
<g><path style="opacity:0.965" fill="#11100e" d="M 368.5,340.5 C 387.618,337.373 403.785,342.706 417,356.5C 421.171,362.843 423.338,369.843 423.5,377.5C 416.468,377.83 409.468,377.497 402.5,376.5C 401.042,365.876 395.042,359.709 384.5,358C 377.15,356.769 370.15,357.769 363.5,361C 355.357,368.78 355.69,376.113 364.5,383C 378.673,387.794 393.006,392.127 407.5,396C 425.741,406.14 430.908,420.973 423,440.5C 415.449,452.203 404.616,458.703 390.5,460C 376.047,462.042 362.38,459.708 349.5,453C 337.577,444.652 331.91,433.152 332.5,418.5C 339.5,418.5 346.5,418.5 353.5,418.5C 353.188,430.723 358.854,438.557 370.5,442C 380.67,444.737 390.337,443.57 399.5,438.5C 407.395,430.509 407.395,422.676 399.5,415C 384.663,409.873 369.663,405.206 354.5,401C 339.169,393.36 333.669,381.193 338,364.5C 340.238,356.928 344.738,351.095 351.5,347C 357.02,344.11 362.686,341.943 368.5,340.5 Z"/></g>
<g><path style="opacity:0.961" fill="#11100e" d="M 471.5,342.5 C 484.047,342.069 494.881,346.069 504,354.5C 511.721,365.763 512.387,377.429 506,389.5C 503.408,392.762 500.241,395.262 496.5,397C 505.834,400.335 511.667,406.835 514,416.5C 516.336,444.508 503.336,459.175 475,460.5C 449.314,459.753 435.814,446.586 434.5,421C 441.158,420.5 447.825,420.334 454.5,420.5C 455.568,440.197 465.568,447.364 484.5,442C 495.71,435.56 498.543,426.393 493,414.5C 485.723,407.091 476.89,404.425 466.5,406.5C 466.5,401.5 466.5,396.5 466.5,391.5C 474.066,391.824 480.899,389.824 487,385.5C 492.356,378.728 492.689,371.728 488,364.5C 480.741,358.908 472.908,358.074 464.5,362C 458.815,367.214 456.148,373.714 456.5,381.5C 450.167,381.5 443.833,381.5 437.5,381.5C 438.264,359.081 449.597,346.081 471.5,342.5 Z"/></g>
<g><path style="opacity:0.985" fill="#f68d12" d="M 234.5,359.5 C 235.5,359.5 236.5,359.5 237.5,359.5C 237.833,386.841 237.5,414.175 236.5,441.5C 217.999,448.112 199.333,454.112 180.5,459.5C 180.5,431.5 180.5,403.5 180.5,375.5C 198.781,370.767 216.781,365.434 234.5,359.5 Z"/></g>
<g><path style="opacity:0.992" fill="#f68d11" d="M 108.5,359.5 C 127.824,364.664 146.991,370.331 166,376.5C 166.5,404.165 166.667,431.831 166.5,459.5C 147.397,453.91 128.397,447.91 109.5,441.5C 108.5,414.175 108.167,386.841 108.5,359.5 Z"/></g>
</svg>
