<?xml version="1.0" encoding="UTF-8"?>
<!DOCTYPE svg PUBLIC "-//W3C//DTD SVG 1.1//EN" "http://www.w3.org/Graphics/SVG/1.1/DTD/svg11.dtd">
<svg xmlns="http://www.w3.org/2000/svg" version="1.1" width="225px" height="225px" style="shape-rendering:geometricPrecision; text-rendering:geometricPrecision; image-rendering:optimizeQuality; fill-rule:evenodd; clip-rule:evenodd" xmlns:xlink="http://www.w3.org/1999/xlink">
<g><path style="opacity:1" fill="#fefefe" d="M -0.5,-0.5 C 74.5,-0.5 149.5,-0.5 224.5,-0.5C 224.5,74.5 224.5,149.5 224.5,224.5C 149.5,224.5 74.5,224.5 -0.5,224.5C -0.5,149.5 -0.5,74.5 -0.5,-0.5 Z"/></g>
<g><path style="opacity:1" fill="#11f2e6" d="M 68.5,80.5 C 67.8333,80.5 67.5,80.1667 67.5,79.5C 55.7203,63.451 44.0536,47.2844 32.5,31C 41.063,24.0996 49.8963,17.5996 59,11.5C 71.4773,27.1113 83.4773,43.1113 95,59.5C 95.4998,69.1609 95.6665,78.8276 95.5,88.5C 86.5,85.8333 77.5,83.1667 68.5,80.5 Z"/></g>
<g><path style="opacity:1" fill="#fb075b" d="M 156.5,79.5 C 155.833,79.5 155.5,79.8333 155.5,80.5C 146.777,82.4631 138.277,85.1298 130,88.5C 129.333,78.5 129.333,68.5 130,58.5C 141.5,42.8333 153,27.1667 164.5,11.5C 173.853,17.5101 182.853,24.0101 191.5,31C 179.946,47.2844 168.28,63.451 156.5,79.5 Z"/></g>
<g><path style="opacity:1" fill="#0eb9f1" d="M 67.5,79.5 C 67.5,80.1667 67.8333,80.5 68.5,80.5C 73.6142,88.1209 78.9475,95.6209 84.5,103C 75.5431,105.704 66.8764,108.871 58.5,112.5C 57.8333,112.5 57.1667,112.5 56.5,112.5C 38.3613,106.008 20.028,99.6745 1.5,93.5C 1.16667,92.8333 0.833333,92.1667 0.5,91.5C 3.81193,81.5838 6.81193,71.5838 9.5,61.5C 28.8825,67.2939 48.2158,73.2939 67.5,79.5 Z"/></g>
<g><path style="opacity:1" fill="#d63afe" d="M 167.5,111.5 C 166.833,111.5 166.167,111.5 165.5,111.5C 156.697,108.899 148.031,105.899 139.5,102.5C 145.245,95.4284 150.578,88.0951 155.5,80.5C 155.5,79.8333 155.833,79.5 156.5,79.5C 175.751,73.3057 195.084,67.3057 214.5,61.5C 217.502,72.1728 220.502,82.8394 223.5,93.5C 204.772,99.2981 186.106,105.298 167.5,111.5 Z"/></g>
<g><path style="opacity:1" fill="#0db9f1" d="M 165.5,111.5 C 166.167,111.5 166.833,111.5 167.5,111.5C 185.64,118.054 203.973,124.387 222.5,130.5C 222.833,131.167 223.167,131.833 223.5,132.5C 220.09,142.394 217.09,152.394 214.5,162.5C 195.227,156.298 175.894,150.298 156.5,144.5C 156.5,143.833 156.167,143.5 155.5,143.5C 150.386,135.879 145.053,128.379 139.5,121C 148.4,118.121 157.066,114.955 165.5,111.5 Z"/></g>
<g><path style="opacity:1" fill="#d63aff" d="M 56.5,112.5 C 57.1667,112.5 57.8333,112.5 58.5,112.5C 67.18,115.227 75.8466,118.06 84.5,121C 78.9475,128.379 73.6142,135.879 68.5,143.5C 67.5084,143.328 66.8417,143.662 66.5,144.5C 47.4884,150.504 28.4884,156.504 9.5,162.5C 6.33659,151.856 3.50326,141.189 1,130.5C 19.3974,124.201 37.8974,118.201 56.5,112.5 Z"/></g>
<g><path style="opacity:1" fill="#15f2e6" d="M 155.5,143.5 C 156.167,143.5 156.5,143.833 156.5,144.5C 168.142,160.482 179.809,176.482 191.5,192.5C 183.073,199.886 174.073,206.553 164.5,212.5C 152.86,196.359 141.026,180.359 129,164.5C 128.5,154.839 128.334,145.172 128.5,135.5C 137.556,138.014 146.556,140.68 155.5,143.5 Z"/></g>
<g><path style="opacity:1" fill="#fb0a5b" d="M 66.5,144.5 C 66.8417,143.662 67.5084,143.328 68.5,143.5C 77.4892,140.837 86.4892,138.171 95.5,135.5C 95.6665,145.172 95.4998,154.839 95,164.5C 82.9738,180.359 71.1405,196.359 59.5,212.5C 50.5,206 41.5,199.5 32.5,193C 44.4209,176.69 55.7542,160.524 66.5,144.5 Z"/></g>
</svg>
