<?xml version="1.0" encoding="UTF-8"?>
<!DOCTYPE svg PUBLIC "-//W3C//DTD SVG 1.1//EN" "http://www.w3.org/Graphics/SVG/1.1/DTD/svg11.dtd">
<svg xmlns="http://www.w3.org/2000/svg" version="1.1" width="800px" height="800px" style="shape-rendering:geometricPrecision; text-rendering:geometricPrecision; image-rendering:optimizeQuality; fill-rule:evenodd; clip-rule:evenodd" xmlns:xlink="http://www.w3.org/1999/xlink">
<g><path style="opacity:1" fill="#fdfdfd" d="M -0.5,-0.5 C 266.167,-0.5 532.833,-0.5 799.5,-0.5C 799.5,173.167 799.5,346.833 799.5,520.5C 792.916,435.186 760.583,361.353 702.5,299C 674.8,275.979 645.133,273.312 613.5,291C 603.21,299.312 591.876,305.812 579.5,310.5C 566.847,240.023 535.847,179.19 486.5,128C 468.016,111.841 446.683,106.508 422.5,112C 407.553,116.973 393.887,124.306 381.5,134C 343.426,153.957 303.093,160.623 260.5,154C 231.529,149.174 205.529,137.841 182.5,120C 162.654,109.723 141.987,107.723 120.5,114C 106.95,120.869 95.1167,130.036 85,141.5C 34.183,201.492 5.68299,270.825 -0.5,349.5C -0.5,232.833 -0.5,116.167 -0.5,-0.5 Z"/></g>
<g><path style="opacity:1" fill="#030303" d="M 799.5,520.5 C 799.5,534.167 799.5,547.833 799.5,561.5C 797.105,582.537 793.605,603.537 789,624.5C 783.751,655.74 766.251,676.573 736.5,687C 715.97,691.397 696.637,688.397 678.5,678C 617.074,626.53 546.407,605.53 466.5,615C 427.696,622.242 392.029,636.908 359.5,659C 348.987,667.841 337.653,675.508 325.5,682C 281.407,697.697 249.24,684.531 229,642.5C 217.847,613.046 212.681,582.546 213.5,551C 214.089,518.121 217.756,485.621 224.5,453.5C 214.106,453.765 204.106,455.931 194.5,460C 169.942,471.435 147.608,486.101 127.5,504C 107.549,518.407 85.5485,522.74 61.5,517C 46.9607,512.655 35.1274,504.489 26,492.5C 19.0808,477.409 12.7474,462.076 7,446.5C 3.69493,426.455 1.19493,406.455 -0.5,386.5C -0.5,374.167 -0.5,361.833 -0.5,349.5C 5.68299,270.825 34.183,201.492 85,141.5C 95.1167,130.036 106.95,120.869 120.5,114C 141.987,107.723 162.654,109.723 182.5,120C 205.529,137.841 231.529,149.174 260.5,154C 303.093,160.623 343.426,153.957 381.5,134C 393.887,124.306 407.553,116.973 422.5,112C 446.683,106.508 468.016,111.841 486.5,128C 535.847,179.19 566.847,240.023 579.5,310.5C 591.876,305.812 603.21,299.312 613.5,291C 645.133,273.312 674.8,275.979 702.5,299C 760.583,361.353 792.916,435.186 799.5,520.5 Z"/></g>
<g><path style="opacity:1" fill="#fbfbfb" d="M 136.5,143.5 C 145.112,142.795 153.445,143.962 161.5,147C 171.173,152.501 180.506,158.501 189.5,165C 230.048,185.926 273.048,193.592 318.5,188C 356.643,183.412 390.977,169.745 421.5,147C 432.819,142.371 444.153,142.371 455.5,147C 461.625,151.456 467.458,156.289 473,161.5C 510.591,204.018 534.924,253.351 546,309.5C 546.825,313.211 546.659,316.878 545.5,320.5C 534.448,324.021 523.115,325.354 511.5,324.5C 515.751,299.249 505.085,288.082 479.5,291C 468.317,297.525 462.983,307.359 463.5,320.5C 438.83,314.83 416.497,304.33 396.5,289C 372.197,276.336 347.863,276.336 323.5,289C 320.167,291.333 316.833,293.667 313.5,296C 279.93,329.609 254.763,368.775 238,413.5C 237.167,414.333 236.333,415.167 235.5,416C 186.801,425.185 143.801,445.852 106.5,478C 91.2863,488.561 75.6197,489.228 59.5,480C 55.9636,476.799 52.7969,473.299 50,469.5C 38.0597,438.343 32.2264,406.009 32.5,372.5C 32.8918,285.767 63.2252,211.6 123.5,150C 127.657,147.255 131.99,145.088 136.5,143.5 Z"/></g>
<g><path style="opacity:1" fill="#050505" d="M 158.5,226.5 C 172.897,225.135 186.563,227.635 199.5,234C 202.433,236.264 204.6,239.098 206,242.5C 206.5,253.495 206.667,264.495 206.5,275.5C 217.172,275.333 227.839,275.5 238.5,276C 246.511,279.026 251.344,284.859 253,293.5C 254.889,307.854 254.555,322.187 252,336.5C 250.554,341.895 247.721,346.395 243.5,350C 230.908,351.441 218.241,351.941 205.5,351.5C 205.667,363.171 205.5,374.838 205,386.5C 202.235,392.931 197.402,396.764 190.5,398C 175.161,401.309 159.828,401.309 144.5,398C 139.036,396.186 134.536,393.02 131,388.5C 129.562,376.576 129.062,364.576 129.5,352.5C 95.3075,361.28 79.3075,348.28 81.5,313.5C 80.7959,302.993 82.6293,292.993 87,283.5C 88.8333,281 91,278.833 93.5,277C 105.399,275.541 117.399,275.041 129.5,275.5C 129.04,263.066 129.54,250.733 131,238.5C 133.708,234.896 137.208,232.396 141.5,231C 147.287,229.408 152.953,227.908 158.5,226.5 Z"/></g>
<g><path style="opacity:1" fill="#040404" d="M 426.5,234.5 C 441.387,232.191 451.887,237.858 458,251.5C 460.879,266.914 455.046,277.414 440.5,283C 417.112,284.78 406.946,273.947 410,250.5C 413.413,242.919 418.913,237.586 426.5,234.5 Z"/></g>
<g><path style="opacity:1" fill="#f8f8f8" d="M 159.5,256.5 C 165.093,256.193 170.593,256.527 176,257.5C 176.333,268.167 176.667,278.833 177,289.5C 177.829,297.383 181.996,302.216 189.5,304C 201.162,304.5 212.829,304.667 224.5,304.5C 224.5,310.5 224.5,316.5 224.5,322.5C 213.162,322.333 201.828,322.5 190.5,323C 184.499,324.336 180.332,327.836 178,333.5C 177.752,345.859 177.086,358.192 176,370.5C 170.333,371.833 164.667,371.833 159,370.5C 158.667,358.5 158.333,346.5 158,334.5C 155.856,327.363 151.022,323.529 143.5,323C 132.505,322.5 121.505,322.333 110.5,322.5C 110.192,316.575 110.525,310.741 111.5,305C 123.167,304.667 134.833,304.333 146.5,304C 153.907,302.59 157.74,298.09 158,290.5C 158.188,279.091 158.688,267.758 159.5,256.5 Z"/></g>
<g><path style="opacity:1" fill="#fcfcfc" d="M 351.5,312.5 C 359.449,311.867 367.116,313.034 374.5,316C 385.763,322.269 396.763,328.936 407.5,336C 444.816,353.776 484.149,360.776 525.5,357C 564.653,354.619 599.986,341.952 631.5,319C 647.328,309.782 662.662,310.449 677.5,321C 741.477,388.907 770.644,469.74 765,563.5C 763.241,582.628 760.574,601.628 757,620.5C 753.657,639.511 742.49,651.011 723.5,655C 713.742,656.908 704.742,655.241 696.5,650C 625.479,591.991 544.479,569.991 453.5,584C 402.602,594.453 357.268,616.119 317.5,649C 296.57,660.663 278.737,657.163 264,638.5C 261.413,633.739 259.413,628.739 258,623.5C 233.143,521.784 251.809,429.117 314,345.5C 321.821,335.68 330.321,326.513 339.5,318C 343.481,315.838 347.481,314.005 351.5,312.5 Z"/></g>
<g><path style="opacity:1" fill="#fdfdfd" d="M -0.5,386.5 C 1.19493,406.455 3.69493,426.455 7,446.5C 12.7474,462.076 19.0808,477.409 26,492.5C 35.1274,504.489 46.9607,512.655 61.5,517C 85.5485,522.74 107.549,518.407 127.5,504C 147.608,486.101 169.942,471.435 194.5,460C 204.106,455.931 214.106,453.765 224.5,453.5C 217.756,485.621 214.089,518.121 213.5,551C 212.681,582.546 217.847,613.046 229,642.5C 249.24,684.531 281.407,697.697 325.5,682C 337.653,675.508 348.987,667.841 359.5,659C 392.029,636.908 427.696,622.242 466.5,615C 546.407,605.53 617.074,626.53 678.5,678C 696.637,688.397 715.97,691.397 736.5,687C 766.251,676.573 783.751,655.74 789,624.5C 793.605,603.537 797.105,582.537 799.5,561.5C 799.5,640.833 799.5,720.167 799.5,799.5C 532.833,799.5 266.167,799.5 -0.5,799.5C -0.5,661.833 -0.5,524.167 -0.5,386.5 Z"/></g>
<g><path style="opacity:1" fill="#050505" d="M 371.5,395.5 C 386.187,394.338 400.187,396.838 413.5,403C 416.04,405.205 418.207,407.705 420,410.5C 420.5,421.828 420.667,433.162 420.5,444.5C 431.172,444.333 441.839,444.5 452.5,445C 460.511,448.026 465.344,453.859 467,462.5C 469.987,479.882 468.654,496.882 463,513.5C 460.445,517.867 456.612,520.367 451.5,521C 441.172,521.5 430.839,521.666 420.5,521.5C 420.667,532.505 420.5,543.505 420,554.5C 417.509,561.846 412.343,566.013 404.5,567C 387.242,572.161 370.242,571.494 353.5,565C 351.333,563.5 349.167,562 347,560.5C 345.725,558.283 344.725,555.949 344,553.5C 343.5,542.839 343.333,532.172 343.5,521.5C 332.162,521.667 320.828,521.5 309.5,521C 303.083,517.342 299.249,511.842 298,504.5C 294.414,488.743 294.747,473.077 299,457.5C 300.647,452.844 303.48,449.011 307.5,446C 319.829,445.5 332.162,445.333 344.5,445.5C 344.039,432.734 344.539,420.067 346,407.5C 348.491,404.168 351.658,401.668 355.5,400C 360.939,398.477 366.273,396.977 371.5,395.5 Z"/></g>
<g><path style="opacity:1" fill="#050505" d="M 641.5,403.5 C 655.551,401.607 665.718,406.941 672,419.5C 674.821,442.005 664.988,453.171 642.5,453C 624.633,446.089 619.133,433.589 626,415.5C 630.211,410.106 635.377,406.106 641.5,403.5 Z"/></g>
<g><path style="opacity:1" fill="#f7f7f7" d="M 374.5,425.5 C 380.093,425.193 385.593,425.527 391,426.5C 391.333,438.167 391.667,449.833 392,461.5C 393.5,468.333 397.667,472.5 404.5,474C 416.162,474.5 427.829,474.667 439.5,474.5C 439.808,480.425 439.475,486.259 438.5,492C 426.5,492.333 414.5,492.667 402.5,493C 397.402,494.433 393.902,497.6 392,502.5C 391.667,514.833 391.333,527.167 391,539.5C 385.259,540.475 379.425,540.808 373.5,540.5C 373.667,528.829 373.5,517.162 373,505.5C 371.976,499.816 368.809,495.983 363.5,494C 350.805,493.565 338.138,492.732 325.5,491.5C 324.185,485.97 324.185,480.47 325.5,475C 336.5,474.667 347.5,474.333 358.5,474C 367.111,472.388 371.945,467.221 373,458.5C 373.189,447.424 373.689,436.424 374.5,425.5 Z"/></g>
<g><path style="opacity:1" fill="#040404" d="M 586.5,458.5 C 608.731,457.229 618.897,467.562 617,489.5C 614.605,498.229 609.105,504.062 600.5,507C 586.428,510.381 576.261,505.547 570,492.5C 565.612,476.278 571.112,464.944 586.5,458.5 Z"/></g>
<g><path style="opacity:1" fill="#040404" d="M 695.5,458.5 C 720.074,457.23 730.241,468.563 726,492.5C 717.805,506.844 705.972,511.011 690.5,505C 677.111,494.034 674.945,481.201 684,466.5C 687.482,463.161 691.315,460.494 695.5,458.5 Z"/></g>
<g><path style="opacity:1" fill="#040404" d="M 641.5,513.5 C 655.369,511.185 665.536,516.185 672,528.5C 675.897,544.539 670.397,555.705 655.5,562C 644.033,565.229 634.866,562.062 628,552.5C 618.674,534.644 623.174,521.644 641.5,513.5 Z"/></g>
</svg>
