<?xml version="1.0" encoding="UTF-8"?>
<!DOCTYPE svg PUBLIC "-//W3C//DTD SVG 1.1//EN" "http://www.w3.org/Graphics/SVG/1.1/DTD/svg11.dtd">
<svg xmlns="http://www.w3.org/2000/svg" version="1.1" width="267px" height="189px" style="shape-rendering:geometricPrecision; text-rendering:geometricPrecision; image-rendering:optimizeQuality; fill-rule:evenodd; clip-rule:evenodd" xmlns:xlink="http://www.w3.org/1999/xlink">
<g><path style="opacity:1" fill="#fcfcfc" d="M -0.5,-0.5 C 88.5,-0.5 177.5,-0.5 266.5,-0.5C 266.5,62.5 266.5,125.5 266.5,188.5C 177.5,188.5 88.5,188.5 -0.5,188.5C -0.5,125.5 -0.5,62.5 -0.5,-0.5 Z"/></g>
<g><path style="opacity:1" fill="#343434" d="M 128.5,11.5 C 132.673,12.8368 136.507,14.8368 140,17.5C 140.667,33.1667 140.667,48.8333 140,64.5C 134.095,69.2044 127.595,72.371 120.5,74C 115.333,70.8333 110.167,67.6667 105,64.5C 104.189,57.5857 104.355,50.7524 105.5,44C 111.167,40.8333 116.833,37.6667 122.5,34.5C 124.323,35.7472 126.323,36.4139 128.5,36.5C 128.5,28.1667 128.5,19.8333 128.5,11.5 Z"/></g>
<g><path style="opacity:1" fill="#313131" d="M 33.5,34.5 C 35.1992,34.3398 36.8659,34.5065 38.5,35C 43.3333,37.8333 48.1667,40.6667 53,43.5C 53.832,52.5185 53.6653,61.5185 52.5,70.5C 49.2489,68.625 46.0823,66.625 43,64.5C 42.8283,59.7982 42.3283,55.1315 41.5,50.5C 37.9545,46.5866 34.4545,46.5866 31,50.5C 30.8283,55.2018 30.3283,59.8685 29.5,64.5C 26.1667,66.5 22.8333,68.5 19.5,70.5C 18.1667,61.5 18.1667,52.5 19.5,43.5C 24.5713,40.9744 29.238,37.9744 33.5,34.5 Z"/></g>
<g><path style="opacity:1" fill="#73ab61" d="M 80.5,35.5 C 81.0819,36.9311 81.9152,38.2644 83,39.5C 83.6667,49.8333 83.6667,60.1667 83,70.5C 81.6197,71.2555 81.453,71.9222 82.5,72.5C 81.2954,74.1376 79.9621,74.4709 78.5,73.5C 77.4388,70.3777 76.1054,67.3777 74.5,64.5C 74.5,55.5 74.5,46.5 74.5,37.5C 76.0852,35.0183 78.0852,34.3516 80.5,35.5 Z"/></g>
<g><path style="opacity:1" fill="#313131" d="M 163.5,34.5 C 170.56,36.6141 177.06,39.9474 183,44.5C 183.667,46.5 183.667,48.5 183,50.5C 179.464,53.1838 175.631,55.1838 171.5,56.5C 171.756,54.2075 171.423,52.0408 170.5,50C 168.833,49.1667 167.167,48.3333 165.5,47.5C 160.42,49.0118 158.587,52.3451 160,57.5C 165.415,61.1249 170.915,64.6249 176.5,68C 172.964,70.3659 169.297,72.5326 165.5,74.5C 159.75,71.5435 154.25,68.2102 149,64.5C 148.169,57.4763 148.336,50.4763 149.5,43.5C 154.571,40.9744 159.238,37.9744 163.5,34.5 Z"/></g>
<g><path style="opacity:1" fill="#6ebb4e" d="M 74.5,37.5 C 74.5,46.5 74.5,55.5 74.5,64.5C 70.5,57.8333 66.5,51.1667 62.5,44.5C 65.9758,41.3768 69.9758,39.0435 74.5,37.5 Z"/></g>
<g><path style="opacity:1" fill="#5c9853" d="M 80.5,35.5 C 85.6049,37.8869 90.6049,40.5536 95.5,43.5C 96.6644,50.4763 96.8311,57.4763 96,64.5C 91.8741,67.7915 87.3741,70.4581 82.5,72.5C 81.453,71.9222 81.6197,71.2555 83,70.5C 83.6667,60.1667 83.6667,49.8333 83,39.5C 81.9152,38.2644 81.0819,36.9311 80.5,35.5 Z"/></g>
<g><path style="opacity:1" fill="#f5f5f5" d="M 121.5,47.5 C 127.744,48.7564 129.744,52.4231 127.5,58.5C 121.988,62.585 118.321,61.2517 116.5,54.5C 116.833,53.1667 117.167,51.8333 117.5,50.5C 119.261,49.9649 120.594,48.9649 121.5,47.5 Z"/></g>
<g><path style="opacity:1" fill="#6da268" d="M 164.5,50.5 C 168.763,50.7397 170.097,52.7397 168.5,56.5C 165.196,58.3553 163.196,57.522 162.5,54C 162.862,52.5657 163.528,51.3991 164.5,50.5 Z"/></g>
<g><path style="opacity:1" fill="#478d42" d="M 62.5,44.5 C 66.5,51.1667 70.5,57.8333 74.5,64.5C 76.1054,67.3777 77.4388,70.3777 78.5,73.5C 72.8141,70.9058 67.3141,67.9058 62,64.5C 61.1794,57.6536 61.346,50.987 62.5,44.5 Z"/></g>
<g><path style="opacity:1" fill="#6ca166" d="M 98.5,71.5 C 105.128,73.8987 111.295,77.232 117,81.5C 117.667,88.5 117.667,95.5 117,102.5C 111.317,105.84 105.651,109.173 100,112.5C 97.9288,111.213 95.7621,110.047 93.5,109C 94.1079,108.13 94.9412,107.63 96,107.5C 97.582,109.029 99.4153,109.529 101.5,109C 105.506,105.995 109.84,103.495 114.5,101.5C 115.833,95.1667 115.833,88.8333 114.5,82.5C 109.731,79.6993 104.898,77.0326 100,74.5C 95.1022,77.0326 90.2689,79.6993 85.5,82.5C 84.1667,88.8333 84.1667,95.1667 85.5,101.5C 87.6179,102.946 89.9512,103.613 92.5,103.5C 92.5,97.1667 92.5,90.8333 92.5,84.5C 93.5,84.5 94.5,84.5 95.5,84.5C 95.6662,90.8421 95.4995,97.1754 95,103.5C 94.101,105.368 92.601,106.368 90.5,106.5C 87.1282,105.731 84.2949,104.065 82,101.5C 81.3333,95.1667 81.3333,88.8333 82,82.5C 87.3075,78.4378 92.8075,74.7711 98.5,71.5 Z"/></g>
<g><path style="opacity:1" fill="#333333" d="M 146.5,99.5 C 150.167,99.5 153.833,99.5 157.5,99.5C 157.5,95.5 157.5,91.5 157.5,87.5C 159.879,84.8598 162.379,84.8598 165,87.5C 165.499,91.4862 165.666,95.4862 165.5,99.5C 169.514,99.3345 173.514,99.5012 177.5,100C 178.982,102.592 178.648,104.925 176.5,107C 172.848,107.499 169.182,107.665 165.5,107.5C 165.665,111.182 165.499,114.848 165,118.5C 163.012,121.838 160.679,122.172 158,119.5C 157.501,115.514 157.334,111.514 157.5,107.5C 153.486,107.666 149.486,107.499 145.5,107C 143.604,105.192 143.104,103.025 144,100.5C 144.671,99.7476 145.504,99.4142 146.5,99.5 Z"/></g>
<g><path style="opacity:1" fill="#6fa36a" d="M 99.5,84.5 C 102.518,84.3354 105.518,84.502 108.5,85C 111.06,86.2059 111.56,87.7059 110,89.5C 107.488,86.8144 104.321,85.8144 100.5,86.5C 100.5,87.8333 100.5,89.1667 100.5,90.5C 103.978,90.1842 107.312,90.6842 110.5,92C 113.059,97.9501 111.059,100.783 104.5,100.5C 100.516,100.845 97.8489,99.1787 96.5,95.5C 98.2695,94.3735 99.6028,94.8735 100.5,97C 103.146,97.4974 105.813,97.6641 108.5,97.5C 108.67,96.1779 108.337,95.0113 107.5,94C 104.15,93.7499 100.983,92.9165 98,91.5C 97.1668,88.829 97.6668,86.4957 99.5,84.5 Z"/></g>
<g><path style="opacity:1" fill="#adadad" d="M 157.5,87.5 C 157.5,91.5 157.5,95.5 157.5,99.5C 153.833,99.5 150.167,99.5 146.5,99.5C 149.625,98.5206 152.958,98.1872 156.5,98.5C 156.185,94.6286 156.518,90.9619 157.5,87.5 Z"/></g>
<g><path style="opacity:1" fill="#858585" d="M 192.5,139.5 C 194.847,138.105 197.181,138.272 199.5,140C 197.249,139.793 194.915,139.627 192.5,139.5 Z"/></g>
<g><path style="opacity:1" fill="#858585" d="M 208.5,139.5 C 210.847,138.105 213.181,138.272 215.5,140C 213.249,139.793 210.915,139.627 208.5,139.5 Z"/></g>
<g><path style="opacity:1" fill="#9b9b9b" d="M 185.5,143.5 C 183.738,141.583 181.571,140.25 179,139.5C 176.429,140.25 174.262,141.583 172.5,143.5C 174.812,138.527 178.479,137.36 183.5,140C 184.823,140.816 185.489,141.983 185.5,143.5 Z"/></g>
<g><path style="opacity:1" fill="#f9f9f9" d="M 185.5,143.5 C 185.5,144.833 185.5,146.167 185.5,147.5C 181.167,147.5 176.833,147.5 172.5,147.5C 172.5,146.167 172.5,144.833 172.5,143.5C 174.262,141.583 176.429,140.25 179,139.5C 181.571,140.25 183.738,141.583 185.5,143.5 Z"/></g>
<g><path style="opacity:1" fill="#7e7e7e" d="M 112.5,132.5 C 117.844,132.334 123.177,132.501 128.5,133C 123.511,133.499 118.511,133.666 113.5,133.5C 113.5,136.833 113.5,140.167 113.5,143.5C 132.167,143.833 132.167,144.167 113.5,144.5C 112.517,140.702 112.183,136.702 112.5,132.5 Z"/></g>
<g><path style="opacity:1" fill="#8b8b8b" d="M 192.5,139.5 C 190.396,141.583 190.062,143.917 191.5,146.5C 190.307,146.03 189.64,145.03 189.5,143.5C 189.11,141.018 190.11,139.685 192.5,139.5 Z"/></g>
<g><path style="opacity:1" fill="#bababa" d="M 162.5,139.5 C 164.121,139.787 165.121,140.787 165.5,142.5C 164.884,147.151 164.218,151.818 163.5,156.5C 162.505,150.872 162.171,145.206 162.5,139.5 Z"/></g>
<g><path style="opacity:1" fill="#717171" d="M 146.5,153.5 C 145.681,156.305 145.181,159.305 145,162.5C 144.333,154.833 144.333,147.167 145,139.5C 145.333,140.5 145.667,141.5 146,142.5C 146.654,141.304 147.154,141.304 147.5,142.5C 145.202,145.937 144.868,149.604 146.5,153.5 Z"/></g>
<g><path style="opacity:1" fill="#9a9a9a" d="M 191.5,146.5 C 194.916,146.528 197.916,147.528 200.5,149.5C 197.146,149.253 194.146,148.253 191.5,146.5 Z"/></g>
<g><path style="opacity:1" fill="#999999" d="M 207.5,147.5 C 212.332,146.234 215.999,147.901 218.5,152.5C 218.065,154.997 216.731,156.163 214.5,156C 216.602,154.267 216.935,152.267 215.5,150C 212.92,148.856 210.253,148.022 207.5,147.5 Z"/></g>
<g><path style="opacity:1" fill="#949494" d="M 158.5,142.5 C 160.385,144.795 160.885,147.462 160,150.5C 159.433,147.832 158.933,145.166 158.5,142.5 Z"/></g>
<g><path style="opacity:1" fill="#919191" d="M 132.5,143.5 C 133.794,144.29 134.961,145.29 136,146.5C 138.984,144.293 139.15,144.793 136.5,148C 138.329,149.113 139.163,150.613 139,152.5C 137.786,150.951 136.286,149.785 134.5,149C 134.833,148.667 135.167,148.333 135.5,148C 133.859,146.871 132.859,145.371 132.5,143.5 Z"/></g>
<g><path style="opacity:1" fill="#969696" d="M 200.5,149.5 C 202.924,151.228 203.09,153.228 201,155.5C 201.793,153.5 201.626,151.5 200.5,149.5 Z"/></g>
<g><path style="opacity:1" fill="#8f8f8f" d="M 172.5,143.5 C 172.5,144.833 172.5,146.167 172.5,147.5C 176.833,147.5 181.167,147.5 185.5,147.5C 185.5,146.167 185.5,144.833 185.5,143.5C 186.451,144.919 186.784,146.585 186.5,148.5C 181.833,148.5 177.167,148.5 172.5,148.5C 172.407,154.473 175.407,157.306 181.5,157C 174.298,158.473 170.631,155.473 170.5,148C 170.525,146.124 171.191,144.624 172.5,143.5 Z"/></g>
<g><path style="opacity:1" fill="#bababa" d="M 112.5,132.5 C 112.183,136.702 112.517,140.702 113.5,144.5C 113.5,148.167 113.5,151.833 113.5,155.5C 118.844,155.666 124.177,155.499 129.5,155C 132.199,153.79 132.199,154.457 129.5,157C 123.584,157.807 117.75,157.641 112,156.5C 111.177,148.323 111.344,140.323 112.5,132.5 Z"/></g>
<g><path style="opacity:1" fill="#8d8d8d" d="M 146.5,153.5 C 150.339,157.419 154.173,157.419 158,153.5C 158.167,153.833 158.333,154.167 158.5,154.5C 155.302,157.809 151.635,158.309 147.5,156C 146.748,155.329 146.414,154.496 146.5,153.5 Z"/></g>
</svg>
