<?xml version="1.0" encoding="UTF-8"?>
<!DOCTYPE svg PUBLIC "-//W3C//DTD SVG 1.1//EN" "http://www.w3.org/Graphics/SVG/1.1/DTD/svg11.dtd">
<svg xmlns="http://www.w3.org/2000/svg" version="1.1" width="2918px" height="534px" style="shape-rendering:geometricPrecision; text-rendering:geometricPrecision; image-rendering:optimizeQuality; fill-rule:evenodd; clip-rule:evenodd" xmlns:xlink="http://www.w3.org/1999/xlink">
<g><path style="opacity:0.989" fill="#793be1" d="M 265.5,-0.5 C 266.5,-0.5 267.5,-0.5 268.5,-0.5C 268.179,19.5759 268.513,39.5759 269.5,59.5C 256.49,59.9896 243.49,60.6562 230.5,61.5C 230.5,41.8333 230.5,22.1667 230.5,2.5C 229.209,2.73731 228.209,2.40397 227.5,1.5C 240.337,1.13666 253.004,0.469989 265.5,-0.5 Z"/></g>
<g><path style="opacity:0.988" fill="#733de2" d="M 268.5,-0.5 C 270.5,-0.5 272.5,-0.5 274.5,-0.5C 284.674,0.323938 295.007,0.990604 305.5,1.5C 305.285,3.17876 305.952,4.17876 307.5,4.5C 307.557,5.60895 307.89,6.60895 308.5,7.5C 307.503,24.9921 307.17,42.6588 307.5,60.5C 294.856,59.6257 282.189,59.2924 269.5,59.5C 268.513,39.5759 268.179,19.5759 268.5,-0.5 Z"/></g>
<g><path style="opacity:0.991" fill="#7f39e1" d="M 227.5,1.5 C 228.209,2.40397 229.209,2.73731 230.5,2.5C 230.5,22.1667 230.5,41.8333 230.5,61.5C 216.473,63.5067 202.473,66.1734 188.5,69.5C 186.174,48.9908 185.841,28.3241 187.5,7.5C 200.793,5.02972 214.127,3.02972 227.5,1.5 Z"/></g>
<g><path style="opacity:0.784" fill="#6840e2" d="M 305.5,1.5 C 306.401,2.29049 307.068,3.29049 307.5,4.5C 305.952,4.17876 305.285,3.17876 305.5,1.5 Z"/></g>
<g><path style="opacity:0.994" fill="#8338e1" d="M 187.5,7.5 C 185.841,28.3241 186.174,48.9908 188.5,69.5C 187.5,69.5 186.5,69.5 185.5,69.5C 183.819,49.4523 182.819,29.1189 182.5,8.5C 184.117,7.962 185.784,7.62867 187.5,7.5 Z"/></g>
<g><path style="opacity:0.99" fill="#8637e1" d="M 182.5,8.5 C 182.819,29.1189 183.819,49.4523 185.5,69.5C 172.127,73.4012 158.794,77.7346 145.5,82.5C 145.831,60.9935 145.497,39.6601 144.5,18.5C 156.733,13.9404 169.399,10.6071 182.5,8.5 Z"/></g>
<g><path style="opacity:0.99" fill="#6f3ee2" d="M 308.5,7.5 C 312.028,16.0834 315.362,24.7501 318.5,33.5C 317.507,42.3178 317.173,51.3178 317.5,60.5C 314.167,60.5 310.833,60.5 307.5,60.5C 307.17,42.6588 307.503,24.9921 308.5,7.5 Z"/></g>
<g><path style="opacity:0.993" fill="#8c35e1" d="M 144.5,18.5 C 145.497,39.6601 145.831,60.9935 145.5,82.5C 132.128,88.3533 119.128,95.02 106.5,102.5C 105.173,79.2644 105.173,55.9311 106.5,32.5C 118.582,26.4701 131.249,21.8035 144.5,18.5 Z"/></g>
<g><path style="opacity:0.989" fill="#9233e1" d="M 106.5,32.5 C 105.173,55.9311 105.173,79.2644 106.5,102.5C 91.6915,112.295 78.0249,123.628 65.5,136.5C 65.8312,109.328 65.4979,82.3282 64.5,55.5C 77.5301,46.3132 91.5301,38.6466 106.5,32.5 Z"/></g>
<g><path style="opacity:0.97" fill="#6e3fe2" d="M 318.5,33.5 C 322.577,42.5413 326.577,51.708 330.5,61C 325.98,61.8136 321.646,61.647 317.5,60.5C 317.173,51.3178 317.507,42.3178 318.5,33.5 Z"/></g>
<g><path style="opacity:0.993" fill="#9632e0" d="M 64.5,55.5 C 65.4979,82.3282 65.8312,109.328 65.5,136.5C 63.6281,139.582 61.2948,142.249 58.5,144.5C 59.1582,116.48 58.4915,88.8132 56.5,61.5C 58.8599,59.1468 61.5265,57.1468 64.5,55.5 Z"/></g>
<g><path style="opacity:1" fill="#9832e0" d="M 56.5,61.5 C 58.4915,88.8132 59.1582,116.48 58.5,144.5C 53.4962,151.68 48.6629,159.013 44,166.5C 39.9195,161.987 36.0862,157.32 32.5,152.5C 33.3321,129.004 33.8321,105.337 34,81.5C 36.0396,79.6298 37.8729,77.6298 39.5,75.5C 44.5597,70.1079 50.2264,65.4413 56.5,61.5 Z"/></g>
<g><path style="opacity:0.97" fill="#9b31e0" d="M 39.5,75.5 C 37.8729,77.6298 36.0396,79.6298 34,81.5C 33.8321,105.337 33.3321,129.004 32.5,152.5C 26.8377,145.852 22.171,138.519 18.5,130.5C 19.1174,130.611 19.6174,130.944 20,131.5C 20.6667,119.5 20.6667,107.5 20,95.5C 19.6174,96.056 19.1174,96.3893 18.5,96.5C 18.369,95.7611 18.5357,95.0944 19,94.5C 25.4228,87.5716 32.2562,81.2383 39.5,75.5 Z"/></g>
<g><path style="opacity:0.977" fill="#000000" d="M 736.5,78.5 C 786.866,76.4701 836.533,81.3034 885.5,93C 886.718,94.4382 887.385,96.1049 887.5,98C 886.374,105.465 885.541,112.965 885,120.5C 884.78,141.895 883.78,163.229 882,184.5C 879.472,188.085 876.472,188.418 873,185.5C 872.057,150.254 855.224,126.42 822.5,114C 781.345,99.7736 740.012,99.1069 698.5,112C 669.419,124.081 648.586,144.581 636,173.5C 623.165,207.003 618.498,241.67 622,277.5C 628.486,339.36 658.986,384.86 713.5,414C 749.724,429.87 787.058,432.87 825.5,423C 847.93,416.238 863.763,402.072 873,380.5C 875.157,374.202 877.157,367.869 879,361.5C 885.151,358.1 888.318,360.1 888.5,367.5C 886.365,385.942 883.532,404.275 880,422.5C 878.798,428.773 876.798,434.773 874,440.5C 866.37,445.937 857.87,449.437 848.5,451C 794.788,460.891 741.455,459.225 688.5,446C 639.317,431.788 601.484,402.955 575,359.5C 553.282,316.384 546.948,271.051 556,223.5C 575.505,145.664 624.672,98.8307 703.5,83C 714.614,81.2374 725.614,79.7374 736.5,78.5 Z"/></g>
<g><path style="opacity:0.986" fill="#733de1" d="M 315.5,90.5 C 313.052,91.4731 310.385,91.8064 307.5,91.5C 307.5,109.167 307.5,126.833 307.5,144.5C 294.125,144.438 280.792,145.105 267.5,146.5C 268.833,128.167 268.833,109.833 267.5,91.5C 283.49,90.8033 299.49,90.47 315.5,90.5 Z"/></g>
<g><path style="opacity:0.988" fill="#793be1" d="M 267.5,91.5 C 268.833,109.833 268.833,128.167 267.5,146.5C 255.344,148.065 243.344,150.398 231.5,153.5C 230.833,134.5 230.167,115.5 229.5,96.5C 242.082,94.25 254.749,92.5833 267.5,91.5 Z"/></g>
<g><path style="opacity:0.996" fill="#6f3ee2" d="M 315.5,90.5 C 316.167,90.8333 316.833,91.1667 317.5,91.5C 317.5,109.167 317.5,126.833 317.5,144.5C 314.167,144.5 310.833,144.5 307.5,144.5C 307.5,126.833 307.5,109.167 307.5,91.5C 310.385,91.8064 313.052,91.4731 315.5,90.5 Z"/></g>
<g><path style="opacity:0.998" fill="#6c3fe2" d="M 317.5,91.5 C 326.846,91.5378 336.18,91.8711 345.5,92.5C 345.629,94.2161 345.962,95.8828 346.5,97.5C 345.504,113.658 345.17,129.991 345.5,146.5C 336.154,145.966 326.82,145.299 317.5,144.5C 317.5,126.833 317.5,109.167 317.5,91.5 Z"/></g>
<g><path style="opacity:0.991" fill="#9c31e0" d="M 18.5,130.5 C 14.1173,123.728 10.7839,116.395 8.5,108.5C 10.8876,103.733 14.221,99.7327 18.5,96.5C 19.1174,96.3893 19.6174,96.056 20,95.5C 20.6667,107.5 20.6667,119.5 20,131.5C 19.6174,130.944 19.1174,130.611 18.5,130.5 Z"/></g>
<g><path style="opacity:0.993" fill="#7f39e1" d="M 229.5,96.5 C 230.167,115.5 230.833,134.5 231.5,153.5C 216.211,157.596 201.545,163.262 187.5,170.5C 186.503,149.673 186.169,128.673 186.5,107.5C 200.368,102.449 214.701,98.7825 229.5,96.5 Z"/></g>
<g><path style="opacity:0.968" fill="#6940e2" d="M 346.5,97.5 C 350.99,114.458 355.323,131.458 359.5,148.5C 354.814,147.906 350.147,147.239 345.5,146.5C 345.17,129.991 345.504,113.658 346.5,97.5 Z"/></g>
<g><path style="opacity:0.988" fill="#8637e1" d="M 183.5,108.5 C 183.5,129.833 183.5,151.167 183.5,172.5C 170.032,180.954 157.699,190.954 146.5,202.5C 145.167,176.833 145.167,151.167 146.5,125.5C 151.113,122.188 156.113,119.354 161.5,117C 168.661,113.67 175.994,110.836 183.5,108.5 Z"/></g>
<g><path style="opacity:1" fill="#8338e1" d="M 186.5,107.5 C 186.169,128.673 186.503,149.673 187.5,170.5C 186.486,171.674 185.153,172.34 183.5,172.5C 183.5,151.167 183.5,129.833 183.5,108.5C 184.391,107.89 185.391,107.557 186.5,107.5 Z"/></g>
<g><path style="opacity:0.995" fill="#8c35e1" d="M 146.5,125.5 C 145.167,151.167 145.167,176.833 146.5,202.5C 140.086,210.08 134.252,218.08 129,226.5C 120.426,222.798 112.259,218.465 104.5,213.5C 105.179,194.197 105.845,174.863 106.5,155.5C 114.837,146.496 124.17,138.662 134.5,132C 138.394,129.554 142.394,127.388 146.5,125.5 Z"/></g>
<g><path style="opacity:0.979" fill="#000000" d="M 1093.5,133.5 C 1127.96,131.642 1161.29,136.809 1193.5,149C 1244.86,171.514 1274.02,210.68 1281,266.5C 1286.18,313.936 1274.51,356.602 1246,394.5C 1213.63,431.266 1172.8,451.433 1123.5,455C 1082.63,458.958 1043.96,451.625 1007.5,433C 960.704,403.948 934.871,361.781 930,306.5C 927.57,249.882 948.07,203.716 991.5,168C 1022.24,146.808 1056.24,135.308 1093.5,133.5 Z M 1082.5,156.5 C 1140.38,154.517 1181.21,179.85 1205,232.5C 1216.21,262.188 1220.21,292.854 1217,324.5C 1215.63,349.261 1208.63,372.261 1196,393.5C 1177.45,419.443 1152.12,432.443 1120,432.5C 1063.76,429.587 1025.43,401.921 1005,349.5C 991.625,309.674 989.958,269.341 1000,228.5C 1011.9,186.418 1039.4,162.418 1082.5,156.5 Z"/></g>
<g><path style="opacity:0.974" fill="#000000" d="M 1951.5,133.5 C 1973.69,133.066 1995.69,134.899 2017.5,139C 2021.21,139.633 2024.71,140.8 2028,142.5C 2028.14,162.501 2027.81,182.501 2027,202.5C 2026.29,208.234 2023.29,209.901 2018,207.5C 2015.25,177.748 1999.08,160.582 1969.5,156C 1950.62,153.641 1933.28,157.641 1917.5,168C 1901.56,182.024 1897.73,198.857 1906,218.5C 1913.87,229.7 1923.7,238.867 1935.5,246C 1958.84,257.663 1980.84,271.329 2001.5,287C 2032.57,313.885 2043.41,347.385 2034,387.5C 2024.14,416.028 2005.31,436.194 1977.5,448C 1959.47,453.856 1940.97,456.356 1922,455.5C 1903.6,455.948 1885.43,454.115 1867.5,450C 1861.26,448.255 1855.26,445.922 1849.5,443C 1847.68,441.2 1846.52,439.034 1846,436.5C 1845.73,414.115 1846.73,391.782 1849,369.5C 1851.25,365.182 1854.25,364.516 1858,367.5C 1857.95,399.619 1873.12,420.453 1903.5,430C 1927,437.071 1949,434.071 1969.5,421C 1987.44,404.089 1992.27,383.922 1984,360.5C 1978.32,349.148 1970.15,339.981 1959.5,333C 1944,323.415 1928.33,314.082 1912.5,305C 1897.52,296.026 1884.36,284.86 1873,271.5C 1854.1,245.319 1850.1,216.986 1861,186.5C 1875,160.56 1896.5,144.393 1925.5,138C 1934.25,136.153 1942.92,134.653 1951.5,133.5 Z"/></g>
<g><path style="opacity:0.974" fill="#000000" d="M 2917.5,349.5 C 2917.5,357.833 2917.5,366.167 2917.5,374.5C 2910.21,410.301 2889.55,435.135 2855.5,449C 2845.39,452.155 2835.06,454.155 2824.5,455C 2797.5,457.115 2770.83,455.115 2744.5,449C 2738.74,447.287 2733.41,444.787 2728.5,441.5C 2728,440.5 2727.5,439.5 2727,438.5C 2726.21,416.126 2726.87,393.793 2729,371.5C 2729.48,366.014 2732.32,364.181 2737.5,366C 2739.25,406.419 2760.25,428.752 2800.5,433C 2821.85,435.771 2840.35,429.938 2856,415.5C 2872.23,393.358 2872.57,371.024 2857,348.5C 2851.43,342.258 2845.26,336.758 2838.5,332C 2823,322.415 2807.33,313.082 2791.5,304C 2773.09,292.925 2757.92,278.425 2746,260.5C 2732.49,233.619 2732.16,206.619 2745,179.5C 2756.29,162.552 2771.45,150.385 2790.5,143C 2807.91,136.488 2825.91,133.321 2844.5,133.5C 2864.06,133.655 2883.4,135.822 2902.5,140C 2905.03,140.516 2907.2,141.683 2909,143.5C 2908.88,161.49 2908.55,179.49 2908,197.5C 2907.86,201.027 2907.02,204.36 2905.5,207.5C 2902.72,208.952 2900.22,208.619 2898,206.5C 2896.64,183.265 2885.14,167.431 2863.5,159C 2841.49,152.549 2820.49,154.882 2800.5,166C 2782.15,180.222 2777.65,198.056 2787,219.5C 2795.02,231.086 2805.19,240.253 2817.5,247C 2835.66,256.576 2853.33,266.91 2870.5,278C 2887.95,290.448 2901.45,306.282 2911,325.5C 2914.13,333.37 2916.3,341.37 2917.5,349.5 Z"/></g>
<g><path style="opacity:0.978" fill="#000000" d="M 2287.5,136.5 C 2289.92,136.192 2292.26,136.526 2294.5,137.5C 2294.99,138.446 2295.32,139.446 2295.5,140.5C 2292.58,158.737 2290.41,177.07 2289,195.5C 2288.39,200.307 2285.89,201.974 2281.5,200.5C 2280.85,192.061 2278.68,184.061 2275,176.5C 2270.57,170.9 2264.74,167.734 2257.5,167C 2231.82,164.209 2206.32,164.042 2181,166.5C 2180.33,200.833 2180.33,235.167 2181,269.5C 2181.37,270.416 2181.87,271.25 2182.5,272C 2209.18,272.833 2235.85,272.5 2262.5,271C 2267.15,270.674 2271.48,269.34 2275.5,267C 2278.06,263.935 2281.06,261.435 2284.5,259.5C 2287.63,260.756 2288.96,263.09 2288.5,266.5C 2285.61,286.07 2283.78,305.737 2283,325.5C 2282.52,331.149 2279.68,332.816 2274.5,330.5C 2275.3,305.803 2263.3,294.636 2238.5,297C 2223.5,296.618 2208.5,296.118 2193.5,295.5C 2189.58,295.517 2185.75,295.85 2182,296.5C 2180.35,329.081 2180.01,361.748 2181,394.5C 2180.52,407.398 2186.02,416.565 2197.5,422C 2203.64,424.228 2209.97,425.561 2216.5,426C 2229.83,426.667 2243.17,426.667 2256.5,426C 2266.24,425.651 2275.24,422.984 2283.5,418C 2287.12,414.381 2289.95,410.214 2292,405.5C 2293.82,399.205 2295.49,392.872 2297,386.5C 2301.17,383.335 2303.84,384.335 2305,389.5C 2305.13,408.469 2302.8,427.135 2298,445.5C 2296.27,448.953 2293.44,450.786 2289.5,451C 2245.16,451.22 2200.83,450.72 2156.5,449.5C 2138.49,449.595 2120.49,449.929 2102.5,450.5C 2097.72,450.609 2093.06,450.109 2088.5,449C 2086.01,446.756 2086.01,444.423 2088.5,442C 2096.58,441.137 2104.58,439.804 2112.5,438C 2118.03,432.756 2120.87,426.256 2121,418.5C 2123.93,334.851 2124.26,251.185 2122,167.5C 2120.1,157.264 2113.93,151.431 2103.5,150C 2096.87,149.028 2090.2,148.361 2083.5,148C 2080.69,146.695 2079.86,144.528 2081,141.5C 2081.75,140.874 2082.58,140.374 2083.5,140C 2091.17,139.833 2098.83,139.667 2106.5,139.5C 2161.5,140.559 2216.5,140.725 2271.5,140C 2277.13,139.568 2282.46,138.402 2287.5,136.5 Z"/></g>
<g><path style="opacity:0.979" fill="#000000" d="M 1318.5,139.5 C 1355.33,140.53 1392.17,140.53 1429,139.5C 1436.5,139.667 1444,139.833 1451.5,140C 1455.39,142.526 1455.39,145.192 1451.5,148C 1441.19,148.037 1431.19,149.704 1421.5,153C 1417.63,156.252 1415.47,160.419 1415,165.5C 1413.37,238.48 1413.03,311.48 1414,384.5C 1414.16,394.111 1415.82,403.444 1419,412.5C 1423.77,418.973 1430.27,422.473 1438.5,423C 1463.92,426.633 1489.25,426.3 1514.5,422C 1525.83,417.999 1533,410.166 1536,398.5C 1536.98,393.777 1538.14,389.111 1539.5,384.5C 1542.39,381.738 1544.89,382.071 1547,385.5C 1547.51,403.359 1545.85,421.025 1542,438.5C 1540.88,446.949 1536.05,451.116 1527.5,451C 1517.83,451.167 1508.17,451.333 1498.5,451.5C 1440.17,449.601 1381.84,449.101 1323.5,450C 1319.48,448.65 1318.48,445.984 1320.5,442C 1326.08,440.814 1331.75,440.148 1337.5,440C 1343.03,439.658 1347.19,437.158 1350,432.5C 1351.62,428.653 1352.62,424.653 1353,420.5C 1354.07,409.862 1354.74,399.195 1355,388.5C 1355.67,317.5 1355.67,246.5 1355,175.5C 1356.08,161.603 1349.92,153.103 1336.5,150C 1329.76,149.219 1323.09,148.219 1316.5,147C 1314.84,143.777 1315.51,141.277 1318.5,139.5 Z"/></g>
<g><path style="opacity:0.974" fill="#000000" d="M 1509.5,139.5 C 1546.87,140.449 1584.21,140.782 1621.5,140.5C 1623.96,142.745 1623.96,144.911 1621.5,147C 1616.41,148.026 1611.91,150.193 1608,153.5C 1607.67,156.207 1608.01,158.874 1609,161.5C 1633.16,203.829 1657.83,245.829 1683,287.5C 1705.17,249.825 1726.84,211.825 1748,173.5C 1750.77,167.423 1751.77,161.089 1751,154.5C 1750.63,153.584 1750.13,152.75 1749.5,152C 1745.31,149.938 1740.98,148.271 1736.5,147C 1733.92,144.88 1733.92,142.713 1736.5,140.5C 1763.96,140.569 1791.46,140.236 1819,139.5C 1824.17,139.667 1829.33,139.833 1834.5,140C 1838.59,143.005 1838.26,145.671 1833.5,148C 1821.76,148.691 1811.09,152.358 1801.5,159C 1789.34,171.836 1778.51,185.669 1769,200.5C 1748.83,232.166 1729.17,264.166 1710,296.5C 1705.94,303.679 1703.27,311.345 1702,319.5C 1701.83,335.667 1701.67,351.833 1701.5,368C 1701.39,386.862 1701.89,405.695 1703,424.5C 1706.18,434.994 1713.35,440.161 1724.5,440C 1730.83,440.333 1737.17,440.667 1743.5,441C 1747.35,442.608 1748.35,445.274 1746.5,449C 1739.74,450.109 1732.91,450.609 1726,450.5C 1692.17,449.2 1658.33,449.2 1624.5,450.5C 1619.83,450.333 1615.17,450.167 1610.5,450C 1607.39,448.06 1606.73,445.394 1608.5,442C 1614.08,440.814 1619.75,440.148 1625.5,440C 1635.07,438.756 1640.24,433.256 1641,423.5C 1643.34,394.211 1644,364.878 1643,335.5C 1642.04,318.614 1636.71,303.28 1627,289.5C 1601.66,248.815 1575.33,208.815 1548,169.5C 1543.13,164.3 1537.97,159.467 1532.5,155C 1524.59,150.941 1516.26,148.274 1507.5,147C 1505.84,143.777 1506.51,141.277 1509.5,139.5 Z"/></g>
<g><path style="opacity:0.979" fill="#000000" d="M 2338.5,139.5 C 2375.5,140.424 2412.5,140.424 2449.5,139.5C 2456.17,139.667 2462.83,139.833 2469.5,140C 2472.31,141.305 2473.14,143.472 2472,146.5C 2471.25,147.126 2470.42,147.626 2469.5,148C 2461.66,148.363 2453.99,149.696 2446.5,152C 2442.43,154.748 2439.93,158.581 2439,163.5C 2437.06,196.958 2436.23,230.458 2436.5,264C 2436.67,283.833 2436.83,303.667 2437,323.5C 2436.45,346.693 2440.45,369.026 2449,390.5C 2465.09,417.972 2489.25,431.639 2521.5,431.5C 2567.76,429.147 2594.26,405.147 2601,359.5C 2602,350.526 2602.67,341.526 2603,332.5C 2603.67,288.833 2603.67,245.167 2603,201.5C 2602.87,188.792 2602.21,176.126 2601,163.5C 2598.24,155.752 2592.74,151.252 2584.5,150C 2577.87,149.028 2571.2,148.361 2564.5,148C 2560.5,145.333 2560.5,142.667 2564.5,140C 2571.83,139.833 2579.17,139.667 2586.5,139.5C 2610.33,140.778 2634.17,140.778 2658,139.5C 2664.5,139.667 2671,139.833 2677.5,140C 2680.55,141.581 2681.22,143.914 2679.5,147C 2671.86,148.267 2664.19,149.6 2656.5,151C 2652,152.833 2648.83,156 2647,160.5C 2645.93,166.449 2645.26,172.449 2645,178.5C 2644.67,225.5 2644.33,272.5 2644,319.5C 2644.41,348.446 2638.08,375.779 2625,401.5C 2609.17,425.654 2587.33,441.821 2559.5,450C 2527.59,456.998 2495.59,457.331 2463.5,451C 2419.04,439.542 2391.88,411.376 2382,366.5C 2380.81,360.197 2379.81,353.864 2379,347.5C 2378.03,286.485 2377.03,225.485 2376,164.5C 2373.31,156.049 2367.48,151.216 2358.5,150C 2351.53,149.002 2344.53,148.336 2337.5,148C 2334.67,144.695 2335,141.862 2338.5,139.5 Z"/></g>
<g><path style="opacity:0.959" fill="#9134e1" d="M 106.5,155.5 C 105.845,174.863 105.179,194.197 104.5,213.5C 95.267,207.933 86.6004,201.599 78.5,194.5C 85.5645,179.785 94.8979,166.785 106.5,155.5 Z"/></g>
<g><path style="opacity:0.976" fill="#9e30e0" d="M -0.5,162.5 C 6.46981,171.142 13.4698,179.809 20.5,188.5C 20.6667,275.167 20.5,361.834 20,448.5C 19.2917,447.619 18.4584,446.953 17.5,446.5C 8.91075,437.325 2.91075,426.658 -0.5,414.5C -0.5,330.5 -0.5,246.5 -0.5,162.5 Z"/></g>
<g><path style="opacity:0.993" fill="#9b31e0" d="M 20.5,188.5 C 26.5,193.833 32.1667,199.5 37.5,205.5C 37.5654,205.938 37.3988,206.272 37,206.5C 36,205.5 35,204.5 34,203.5C 33.3333,289.833 33.3333,376.167 34,462.5C 35.3803,463.256 35.547,463.922 34.5,464.5C 28.1078,459.11 22.4412,453.11 17.5,446.5C 18.4584,446.953 19.2917,447.619 20,448.5C 20.5,361.834 20.6667,275.167 20.5,188.5 Z"/></g>
<g><path style="opacity:1" fill="#9832e0" d="M 37.5,205.5 C 44.3562,211.417 51.3562,217.084 58.5,222.5C 58.8306,308.599 58.4973,394.932 57.5,481.5C 49.261,476.553 41.5943,470.887 34.5,464.5C 35.547,463.922 35.3803,463.256 34,462.5C 33.3333,376.167 33.3333,289.833 34,203.5C 35,204.5 36,205.5 37,206.5C 37.3988,206.272 37.5654,205.938 37.5,205.5 Z"/></g>
<g><path style="opacity:0.998" fill="#9632e0" d="M 58.5,222.5 C 61.0094,223.921 63.3428,225.588 65.5,227.5C 65.5,313.5 65.5,399.5 65.5,485.5C 62.8599,484.18 60.1932,482.847 57.5,481.5C 58.4973,394.932 58.8306,308.599 58.5,222.5 Z"/></g>
<g><path style="opacity:0.997" fill="#9233e1" d="M 65.5,227.5 C 78.7094,236.272 92.3761,244.272 106.5,251.5C 105.501,335.332 105.167,419.332 105.5,503.5C 91.387,499.108 78.0536,493.108 65.5,485.5C 65.5,399.5 65.5,313.5 65.5,227.5 Z"/></g>
<g><path style="opacity:0.999" fill="#8c35e1" d="M 106.5,251.5 C 119.851,257.618 133.518,262.951 147.5,267.5C 145.507,349.621 144.84,431.954 145.5,514.5C 144.5,514.5 143.5,514.5 142.5,514.5C 129.754,511.901 117.421,508.234 105.5,503.5C 105.167,419.332 105.501,335.332 106.5,251.5 Z"/></g>
<g><path style="opacity:0.998" fill="#8637e1" d="M 147.5,267.5 C 158.459,271.267 169.459,274.6 180.5,277.5C 181.209,278.404 182.209,278.737 183.5,278.5C 183.5,360.167 183.5,441.833 183.5,523.5C 169.523,521.374 155.857,518.374 142.5,514.5C 143.5,514.5 144.5,514.5 145.5,514.5C 144.84,431.954 145.507,349.621 147.5,267.5 Z"/></g>
<g><path style="opacity:1" fill="#8337e1" d="M 180.5,277.5 C 183.428,277.565 186.095,278.232 188.5,279.5C 186.503,360.493 185.836,441.826 186.5,523.5C 185.5,523.5 184.5,523.5 183.5,523.5C 183.5,441.833 183.5,360.167 183.5,278.5C 182.209,278.737 181.209,278.404 180.5,277.5 Z"/></g>
<g><path style="opacity:0.998" fill="#7f39e1" d="M 188.5,279.5 C 202.156,281.943 215.822,284.276 229.5,286.5C 230.167,367.5 230.833,448.5 231.5,529.5C 216.225,528.55 201.225,526.55 186.5,523.5C 185.836,441.826 186.503,360.493 188.5,279.5 Z"/></g>
<g><path style="opacity:0.997" fill="#793be1" d="M 229.5,286.5 C 242.501,287.9 255.501,289.233 268.5,290.5C 268.5,370.833 268.5,451.167 268.5,531.5C 270.099,531.232 271.432,531.566 272.5,532.5C 258.765,532.114 245.098,531.114 231.5,529.5C 230.833,448.5 230.167,367.5 229.5,286.5 Z"/></g>
<g><path style="opacity:0.996" fill="#6042e2" d="M 431.5,373.5 C 430.501,425.331 430.168,477.331 430.5,529.5C 417.9,530.732 405.233,531.732 392.5,532.5C 391.503,451.237 391.17,369.904 391.5,288.5C 393.735,288.795 395.735,288.461 397.5,287.5C 399.117,286.962 400.784,286.629 402.5,286.5C 411.571,315.714 421.238,344.714 431.5,373.5 Z"/></g>
<g><path style="opacity:0.997" fill="#6740e2" d="M 397.5,287.5 C 395.735,288.461 393.735,288.795 391.5,288.5C 391.17,369.904 391.503,451.237 392.5,532.5C 386.31,532.177 380.31,532.51 374.5,533.5C 364.833,533.5 355.167,533.5 345.5,533.5C 345.833,452.665 345.499,371.998 344.5,291.5C 362.013,290.129 379.68,288.796 397.5,287.5 Z"/></g>
<g><path style="opacity:0.998" fill="#733de1" d="M 268.5,290.5 C 278.165,290.878 287.831,291.211 297.5,291.5C 300.625,292.479 303.958,292.813 307.5,292.5C 307.5,372.833 307.5,453.167 307.5,533.5C 297.833,533.5 288.167,533.5 278.5,533.5C 276.735,532.539 274.735,532.205 272.5,532.5C 271.432,531.566 270.099,531.232 268.5,531.5C 268.5,451.167 268.5,370.833 268.5,290.5 Z"/></g>
<g><path style="opacity:0.994" fill="#6f3ee2" d="M 297.5,291.5 C 307.833,291.5 318.167,291.5 328.5,291.5C 325.038,292.482 321.371,292.815 317.5,292.5C 317.5,372.833 317.5,453.167 317.5,533.5C 314.167,533.5 310.833,533.5 307.5,533.5C 307.5,453.167 307.5,372.833 307.5,292.5C 303.958,292.813 300.625,292.479 297.5,291.5 Z"/></g>
<g><path style="opacity:1" fill="#6c3fe2" d="M 328.5,291.5 C 333.833,291.5 339.167,291.5 344.5,291.5C 345.499,371.998 345.833,452.665 345.5,533.5C 336.167,533.5 326.833,533.5 317.5,533.5C 317.5,453.167 317.5,372.833 317.5,292.5C 321.371,292.815 325.038,292.482 328.5,291.5 Z"/></g>
<g><path style="opacity:0.993" fill="#5c43e3" d="M 431.5,373.5 C 437.833,392.833 444.167,412.167 450.5,431.5C 449.502,463.329 449.168,495.329 449.5,527.5C 451.167,527.5 452.833,527.5 454.5,527.5C 446.701,528.817 438.701,529.483 430.5,529.5C 430.168,477.331 430.501,425.331 431.5,373.5 Z"/></g>
<g><path style="opacity:0.997" fill="#5944e2" d="M 450.5,431.5 C 461.262,462.618 471.928,493.784 482.5,525C 473.23,526.56 463.896,527.394 454.5,527.5C 452.833,527.5 451.167,527.5 449.5,527.5C 449.168,495.329 449.502,463.329 450.5,431.5 Z"/></g>
</svg>
