<?xml version="1.0" encoding="UTF-8"?>
<!DOCTYPE svg PUBLIC "-//W3C//DTD SVG 1.1//EN" "http://www.w3.org/Graphics/SVG/1.1/DTD/svg11.dtd">
<svg xmlns="http://www.w3.org/2000/svg" version="1.1" width="640px" height="640px" style="shape-rendering:geometricPrecision; text-rendering:geometricPrecision; image-rendering:optimizeQuality; fill-rule:evenodd; clip-rule:evenodd" xmlns:xlink="http://www.w3.org/1999/xlink">
<g><path style="opacity:1" fill="#fefefe" d="M -0.5,-0.5 C 212.833,-0.5 426.167,-0.5 639.5,-0.5C 639.5,212.833 639.5,426.167 639.5,639.5C 426.167,639.5 212.833,639.5 -0.5,639.5C -0.5,426.167 -0.5,212.833 -0.5,-0.5 Z"/></g>
<g><path style="opacity:1" fill="#dd2c00" d="M 364.5,379.5 C 347.031,372.269 331.364,362.269 317.5,349.5C 338.537,309.616 332.87,274.116 300.5,243C 291.097,235.131 280.43,229.631 268.5,226.5C 272.211,181.74 291.211,145.073 325.5,116.5C 354.519,149.542 382.352,183.542 409,218.5C 431.57,253.528 434.57,290.194 418,328.5C 406.15,351.852 388.316,368.852 364.5,379.5 Z"/></g>
<g><path style="opacity:1" fill="#ffc402" d="M 268.5,226.5 C 266.565,261.35 275.065,293.35 294,322.5C 301.135,331.968 308.635,341.135 316.5,350C 307.665,364.672 295.332,375.172 279.5,381.5C 240.667,364.818 218.167,335.485 212,293.5C 209.282,270.09 213.615,248.09 225,227.5C 239.358,222.583 253.858,222.25 268.5,226.5 Z"/></g>
<g><path style="opacity:1" fill="#fe9100" d="M 268.5,226.5 C 280.43,229.631 291.097,235.131 300.5,243C 332.87,274.116 338.537,309.616 317.5,349.5C 331.364,362.269 347.031,372.269 364.5,379.5C 349.802,386.704 334.135,390.038 317.5,389.5C 304.162,389.486 291.495,386.819 279.5,381.5C 295.332,375.172 307.665,364.672 316.5,350C 308.635,341.135 301.135,331.968 294,322.5C 275.065,293.35 266.565,261.35 268.5,226.5 Z"/></g>
<g><path style="opacity:1" fill="#606060" d="M 204.5,455.5 C 210.093,454.451 213.426,456.617 214.5,462C 213.379,467.564 210.046,469.564 204.5,468C 199.247,463.789 199.247,459.623 204.5,455.5 Z"/></g>
<g><path style="opacity:1" fill="#5b5b5b" d="M 193.5,494.5 C 184.5,494.5 175.5,494.5 166.5,494.5C 166.5,503.5 166.5,512.5 166.5,521.5C 163.167,521.5 159.833,521.5 156.5,521.5C 156.5,499.833 156.5,478.167 156.5,456.5C 169.833,456.5 183.167,456.5 196.5,456.5C 196.5,459.833 196.5,463.167 196.5,466.5C 186.5,466.5 176.5,466.5 166.5,466.5C 166.5,472.833 166.5,479.167 166.5,485.5C 175.5,485.5 184.5,485.5 193.5,485.5C 193.5,488.5 193.5,491.5 193.5,494.5 Z"/></g>
<g><path style="opacity:1" fill="#5c5c5c" d="M 312.5,517.5 C 312.44,516.957 312.107,516.624 311.5,516.5C 310.548,518.045 310.215,519.712 310.5,521.5C 307.5,521.5 304.5,521.5 301.5,521.5C 301.5,499.833 301.5,478.167 301.5,456.5C 304.833,456.5 308.167,456.5 311.5,456.5C 311.334,464.84 311.5,473.173 312,481.5C 318.441,475.326 325.941,473.826 334.5,477C 346.025,483.544 350.192,493.378 347,506.5C 342.703,519.234 333.87,524.734 320.5,523C 317.403,521.727 314.736,519.893 312.5,517.5 Z"/></g>
<g><path style="opacity:1" fill="#5b5b5b" d="M 232.5,494.5 C 231.507,503.318 231.173,512.318 231.5,521.5C 228.5,521.5 225.5,521.5 222.5,521.5C 222.5,506.5 222.5,491.5 222.5,476.5C 225.5,476.5 228.5,476.5 231.5,476.5C 231.337,478.857 231.503,481.19 232,483.5C 236.256,476.626 242.422,473.96 250.5,475.5C 250.665,479.182 250.499,482.848 250,486.5C 241.254,483.073 235.421,485.74 232.5,494.5 Z"/></g>
<g><path style="opacity:1" fill="#5d5d5d" d="M 265.5,475.5 C 285.167,473.174 295.167,481.84 295.5,501.5C 283.833,501.5 272.167,501.5 260.5,501.5C 261.808,511.495 267.475,515.661 277.5,514C 280.919,512.414 283.919,510.248 286.5,507.5C 289.289,508.648 291.956,509.981 294.5,511.5C 285.542,523.406 274.209,526.24 260.5,520C 251.581,512.517 248.415,503.017 251,491.5C 253.6,484.07 258.433,478.737 265.5,475.5 Z"/></g>
<g><path style="opacity:1" fill="#5c5c5c" d="M 392.5,521.5 C 389.5,521.5 386.5,521.5 383.5,521.5C 383.785,519.712 383.452,518.045 382.5,516.5C 381.893,516.624 381.56,516.957 381.5,517.5C 372.076,525.71 362.909,525.377 354,516.5C 348.828,501.47 354.328,493.47 370.5,492.5C 374.565,492.85 378.565,493.517 382.5,494.5C 383.041,489.081 380.707,485.581 375.5,484C 372.5,483.333 369.5,483.333 366.5,484C 364.323,485.515 362.156,487.015 360,488.5C 352.945,486.55 352.112,483.383 357.5,479C 364.097,475.622 371.097,474.622 378.5,476C 384.881,477.61 389.381,481.443 392,487.5C 392.5,498.828 392.667,510.162 392.5,521.5 Z"/></g>
<g><path style="opacity:1" fill="#5d5d5d" d="M 408.5,475.5 C 414.577,475.196 420.577,475.696 426.5,477C 429.645,478.978 432.312,481.478 434.5,484.5C 430.414,489.079 426.414,489.246 422.5,485C 417.531,482.518 413.031,483.018 409,486.5C 408.175,488.701 408.675,490.534 410.5,492C 416.89,493.796 423.223,495.796 429.5,498C 439.243,509.493 436.91,517.826 422.5,523C 411.29,525.497 402.956,521.831 397.5,512C 399.1,509.523 401.433,508.023 404.5,507.5C 406.997,509.826 409.664,511.993 412.5,514C 417.152,515.193 421.319,514.36 425,511.5C 425.92,508.692 425.087,506.525 422.5,505C 414.765,503.449 407.599,500.616 401,496.5C 398.186,491.994 397.853,487.327 400,482.5C 402.441,479.546 405.275,477.213 408.5,475.5 Z"/></g>
<g><path style="opacity:1" fill="#5d5d5d" d="M 454.5,475.5 C 467.426,472.747 476.926,477.08 483,488.5C 483.499,492.821 483.666,497.154 483.5,501.5C 472.167,501.5 460.833,501.5 449.5,501.5C 450.808,511.495 456.475,515.661 466.5,514C 469.919,512.414 472.919,510.248 475.5,507.5C 478.446,508.306 481.112,509.639 483.5,511.5C 478.545,519.648 471.211,523.648 461.5,523.5C 450.249,522.419 443.083,516.419 440,505.5C 437.311,491.681 442.144,481.681 454.5,475.5 Z"/></g>
<g><path style="opacity:1" fill="#595a59" d="M 202.5,476.5 C 205.833,476.5 209.167,476.5 212.5,476.5C 212.5,491.5 212.5,506.5 212.5,521.5C 209.167,521.5 205.833,521.5 202.5,521.5C 202.5,506.5 202.5,491.5 202.5,476.5 Z"/></g>
<g><path style="opacity:1" fill="#fafafa" d="M 269.5,483.5 C 277.839,482.212 282.839,485.546 284.5,493.5C 276.833,493.5 269.167,493.5 261.5,493.5C 262.328,488.674 264.995,485.341 269.5,483.5 Z"/></g>
<g><path style="opacity:1" fill="#fcfcfc" d="M 319.5,484.5 C 335.222,484.571 340.722,492.238 336,507.5C 330.051,515.536 323.051,516.536 315,510.5C 311.143,504.236 310.477,497.569 313,490.5C 315.063,488.266 317.229,486.266 319.5,484.5 Z"/></g>
<g><path style="opacity:1" fill="#f9f9f9" d="M 458.5,483.5 C 466.213,482.355 471.546,485.355 474.5,492.5C 466.187,493.665 457.853,493.832 449.5,493C 451.355,488.647 454.355,485.481 458.5,483.5 Z"/></g>
<g><path style="opacity:1" fill="#cfcfcf" d="M 193.5,494.5 C 185.016,495.493 176.349,495.826 167.5,495.5C 167.5,504.5 167.5,513.5 167.5,522.5C 163.629,522.815 159.962,522.482 156.5,521.5C 159.833,521.5 163.167,521.5 166.5,521.5C 166.5,512.5 166.5,503.5 166.5,494.5C 175.5,494.5 184.5,494.5 193.5,494.5 Z"/></g>
<g><path style="opacity:1" fill="#9b9b9b" d="M 232.5,494.5 C 232.5,503.833 232.5,513.167 232.5,522.5C 228.958,522.813 225.625,522.479 222.5,521.5C 225.5,521.5 228.5,521.5 231.5,521.5C 231.173,512.318 231.507,503.318 232.5,494.5 Z"/></g>
<g><path style="opacity:1" fill="#f8f8f8" d="M 366.5,500.5 C 371.699,500.014 376.699,500.681 381.5,502.5C 382.492,508.729 379.825,512.896 373.5,515C 364.221,516.065 360.721,512.231 363,503.5C 364.518,502.837 365.685,501.837 366.5,500.5 Z"/></g>
<g><path style="opacity:1" fill="#aeaeae" d="M 312.5,517.5 C 311.549,518.919 311.216,520.585 311.5,522.5C 307.958,522.813 304.625,522.479 301.5,521.5C 304.5,521.5 307.5,521.5 310.5,521.5C 310.215,519.712 310.548,518.045 311.5,516.5C 312.107,516.624 312.44,516.957 312.5,517.5 Z"/></g>
<g><path style="opacity:1" fill="#a9a9a9" d="M 381.5,517.5 C 381.56,516.957 381.893,516.624 382.5,516.5C 383.452,518.045 383.785,519.712 383.5,521.5C 386.5,521.5 389.5,521.5 392.5,521.5C 389.375,522.479 386.042,522.813 382.5,522.5C 382.784,520.585 382.451,518.919 381.5,517.5 Z"/></g>
</svg>
