<?xml version="1.0" encoding="UTF-8"?>
<!DOCTYPE svg PUBLIC "-//W3C//DTD SVG 1.1//EN" "http://www.w3.org/Graphics/SVG/1.1/DTD/svg11.dtd">
<svg xmlns="http://www.w3.org/2000/svg" version="1.1" width="225px" height="225px" style="shape-rendering:geometricPrecision; text-rendering:geometricPrecision; image-rendering:optimizeQuality; fill-rule:evenodd; clip-rule:evenodd" xmlns:xlink="http://www.w3.org/1999/xlink">
<g><path style="opacity:1" fill="#fefefe" d="M -0.5,-0.5 C 74.5,-0.5 149.5,-0.5 224.5,-0.5C 224.5,34.5 224.5,69.5 224.5,104.5C 222.931,101.772 220.598,99.9383 217.5,99C 213.5,98.3333 209.5,98.3333 205.5,99C 204.263,99.2321 203.263,99.7321 202.5,100.5C 201.507,108.65 201.174,116.983 201.5,125.5C 203.735,125.795 205.735,125.461 207.5,124.5C 207.17,117.8 207.503,111.134 208.5,104.5C 210.768,103.456 213.101,103.289 215.5,104C 217.426,104.422 218.426,105.589 218.5,107.5C 218.5,113.5 218.5,119.5 218.5,125.5C 220.5,125.5 222.5,125.5 224.5,125.5C 224.5,158.5 224.5,191.5 224.5,224.5C 149.5,224.5 74.5,224.5 -0.5,224.5C -0.5,189.167 -0.5,153.833 -0.5,118.5C 4.27823,118.815 8.9449,117.815 13.5,115.5C 8.91265,115.112 4.24599,115.112 -0.5,115.5C -0.5,114.833 -0.5,114.167 -0.5,113.5C 18.0321,112.634 18.0321,111.634 -0.5,110.5C -0.5,73.5 -0.5,36.5 -0.5,-0.5 Z"/></g>
<g><path style="opacity:1" fill="#6bc6ec" d="M 33.5,81.5 C 35.3109,81.572 36.6443,82.4053 37.5,84C 36.7173,87.6319 35.5506,91.1319 34,94.5C 33.501,90.1794 33.3343,85.8461 33.5,81.5 Z"/></g>
<g><path style="opacity:1" fill="#6acdf3" d="M 28.5,81.5 C 29.5,81.5 30.5,81.5 31.5,81.5C 31.6946,85.9152 31.1946,90.2486 30,94.5C 28.8054,90.2486 28.3054,85.9152 28.5,81.5 Z"/></g>
<g><path style="opacity:1" fill="#64b8df" d="M 39.5,83.5 C 41.1033,83.3118 42.4366,83.8118 43.5,85C 36.1299,100.688 34.7966,100.188 39.5,83.5 Z"/></g>
<g><path style="opacity:1" fill="#7cd7fa" d="M 23.5,81.5 C 24.5,81.5 25.5,81.5 26.5,81.5C 27.0156,86.2291 27.0156,90.8957 26.5,95.5C 24.1851,90.9327 23.1851,86.266 23.5,81.5 Z"/></g>
<g><path style="opacity:1" fill="#4fa7d2" d="M 45.5,85.5 C 46.6266,86.1217 47.6266,86.955 48.5,88C 38.0877,100.758 37.0877,99.9245 45.5,85.5 Z"/></g>
<g><path style="opacity:1" fill="#77d8fb" d="M 13.5,85.5 C 14.3764,85.3691 15.0431,85.7025 15.5,86.5C 17.6193,90.0505 19.1193,93.7172 20,97.5C 17.0494,94.4276 14.2161,91.2609 11.5,88C 12.3805,87.2917 13.0472,86.4584 13.5,85.5 Z"/></g>
<g><path style="opacity:1" fill="#617ca2" d="M 99.5,88.5 C 99.5,100.5 99.5,112.5 99.5,124.5C 101.167,124.5 102.833,124.5 104.5,124.5C 102.735,125.461 100.735,125.795 98.5,125.5C 98.1714,112.989 98.5048,100.655 99.5,88.5 Z"/></g>
<g><path style="opacity:1" fill="#0e4581" d="M 99.5,88.5 C 101.167,88.5 102.833,88.5 104.5,88.5C 104.177,92.226 104.511,95.8927 105.5,99.5C 112.089,97.1199 117.256,98.7866 121,104.5C 121.5,111.492 121.666,118.492 121.5,125.5C 119.5,125.5 117.5,125.5 115.5,125.5C 115.666,118.825 115.5,112.158 115,105.5C 112.029,103.366 108.862,103.033 105.5,104.5C 104.503,111.134 104.17,117.8 104.5,124.5C 102.833,124.5 101.167,124.5 99.5,124.5C 99.5,112.5 99.5,100.5 99.5,88.5 Z"/></g>
<g><path style="opacity:1" fill="#7dd9fc" d="M 8.5,89.5 C 10.7157,90.2026 12.549,91.5359 14,93.5C 14.9533,95.4552 16.2866,97.1218 18,98.5C 18.6877,99.3317 18.521,99.9984 17.5,100.5C 14.4798,97.6454 11.3132,94.9787 8,92.5C 7.53042,91.4232 7.69708,90.4232 8.5,89.5 Z"/></g>
<g><path style="opacity:1" fill="#79d8fb" d="M 17.5,83.5 C 18.8221,83.33 19.9887,83.6634 21,84.5C 22.3244,88.4463 22.9911,92.4463 23,96.5C 21.2131,92.4234 19.0464,88.59 16.5,85C 17.056,84.6174 17.3893,84.1174 17.5,83.5 Z"/></g>
<g><path style="opacity:1" fill="#4594c3" d="M 49.5,89.5 C 51.6859,89.5106 52.5192,90.5106 52,92.5C 40.3857,103.29 39.5523,102.29 49.5,89.5 Z"/></g>
<g><path style="opacity:1" fill="#0b4480" d="M 154.5,92.5 C 156.5,92.5 158.5,92.5 160.5,92.5C 160.5,94.8333 160.5,97.1667 160.5,99.5C 163.5,99.5 166.5,99.5 169.5,99.5C 169.5,101.167 169.5,102.833 169.5,104.5C 166.5,104.5 163.5,104.5 160.5,104.5C 160.334,109.179 160.501,113.845 161,118.5C 161.956,119.894 163.289,120.561 165,120.5C 166.825,120.057 168.658,119.723 170.5,119.5C 170.5,121.167 170.5,122.833 170.5,124.5C 165.427,126.347 160.76,125.68 156.5,122.5C 156,121.5 155.5,120.5 155,119.5C 154.5,110.506 154.334,101.506 154.5,92.5 Z"/></g>
<g><path style="opacity:1" fill="#3a81b3" d="M 53.5,93.5 C 55.5053,94.254 56.172,95.4207 55.5,97C 52.1073,99.5343 48.4407,101.201 44.5,102C 47.5743,99.1506 50.5743,96.3172 53.5,93.5 Z"/></g>
<g><path style="opacity:1" fill="#124481" d="M 74.5,98.5 C 90.5405,96.3075 96.7071,102.974 93,118.5C 89.6813,124.74 84.5146,127.074 77.5,125.5C 77.5,129.167 77.5,132.833 77.5,136.5C 75.5,136.5 73.5,136.5 71.5,136.5C 71.5,124.167 71.5,111.833 71.5,99.5C 72.791,99.7373 73.791,99.404 74.5,98.5 Z"/></g>
<g><path style="opacity:1" fill="#07417f" d="M 224.5,104.5 C 224.5,111.167 224.5,117.833 224.5,124.5C 222.833,124.5 221.167,124.5 219.5,124.5C 219.822,118.642 219.489,112.975 218.5,107.5C 218.426,105.589 217.426,104.422 215.5,104C 213.101,103.289 210.768,103.456 208.5,104.5C 207.503,111.134 207.17,117.8 207.5,124.5C 205.833,124.5 204.167,124.5 202.5,124.5C 202.5,116.5 202.5,108.5 202.5,100.5C 203.263,99.7321 204.263,99.2321 205.5,99C 209.5,98.3333 213.5,98.3333 217.5,99C 220.598,99.9383 222.931,101.772 224.5,104.5 Z"/></g>
<g><path style="opacity:1" fill="#7ad8fc" d="M 5.5,93.5 C 9.29074,96.1181 12.9574,98.9514 16.5,102C 12.4607,101.655 8.79403,100.155 5.5,97.5C 4.37437,96.1916 4.37437,94.8583 5.5,93.5 Z"/></g>
<g><path style="opacity:1" fill="#09417f" d="M 134.5,98.5 C 137.941,98.3011 141.274,98.8011 144.5,100C 146.815,101.109 148.315,102.943 149,105.5C 152.511,119.298 147.344,125.798 133.5,125C 130,124.167 127.833,122 127,118.5C 126.333,114.167 126.333,109.833 127,105.5C 128.767,102.228 131.267,99.8947 134.5,98.5 Z"/></g>
<g><path style="opacity:1" fill="#104380" d="M 181.5,98.5 C 194.313,97.8168 199.479,103.817 197,116.5C 193.341,124.837 187.174,127.337 178.5,124C 173.796,119.117 172.296,113.283 174,106.5C 175.38,102.625 177.88,99.958 181.5,98.5 Z"/></g>
<g><path style="opacity:1" fill="#1c6ba3" d="M 56.5,98.5 C 58.1042,99.287 58.7709,100.62 58.5,102.5C 54.5082,103.671 50.5082,104.505 46.5,105C 50.0689,103.058 53.4022,100.892 56.5,98.5 Z"/></g>
<g><path style="opacity:1" fill="#8399b6" d="M 202.5,100.5 C 202.5,108.5 202.5,116.5 202.5,124.5C 204.167,124.5 205.833,124.5 207.5,124.5C 205.735,125.461 203.735,125.795 201.5,125.5C 201.174,116.983 201.507,108.65 202.5,100.5 Z"/></g>
<g><path style="opacity:1" fill="#7ad9fc" d="M 2.5,98.5 C 18.7105,105.685 18.3772,107.019 1.5,102.5C 1.43255,101.041 1.76589,99.7079 2.5,98.5 Z"/></g>
<g><path style="opacity:1" fill="#f3f5f8" d="M 78.5,103.5 C 87.4314,103.312 90.598,107.646 88,116.5C 85.5735,120.353 82.2402,121.353 78,119.5C 77.2185,114.083 77.3852,108.75 78.5,103.5 Z"/></g>
<g><path style="opacity:1" fill="#eff1f5" d="M 135.5,103.5 C 143.761,103.984 146.594,108.317 144,116.5C 142.179,119.991 139.346,121.157 135.5,120C 133.667,119.5 132.5,118.333 132,116.5C 131.333,113.5 131.333,110.5 132,107.5C 132.69,105.65 133.856,104.316 135.5,103.5 Z"/></g>
<g><path style="opacity:1" fill="#f2f4f7" d="M 183.5,103.5 C 189.402,103.236 192.069,106.07 191.5,112C 192.078,117.033 189.912,119.866 185,120.5C 178.534,117.739 176.867,113.073 180,106.5C 181.145,105.364 182.312,104.364 183.5,103.5 Z"/></g>
<g><path style="opacity:1" fill="#31649a" d="M 56.5,104.5 C 59.5,104.167 60.8333,105.5 60.5,108.5C 56.1539,108.666 51.8206,108.499 47.5,108C 50.7177,107.1 53.7177,105.933 56.5,104.5 Z"/></g>
<g><path style="opacity:1" fill="#78d8fc" d="M 0.5,104.5 C 17.6101,108.358 17.6101,109.691 0.5,108.5C 0.5,107.167 0.5,105.833 0.5,104.5 Z"/></g>
<g><path style="opacity:1" fill="#657fa5" d="M 218.5,107.5 C 219.489,112.975 219.822,118.642 219.5,124.5C 221.167,124.5 222.833,124.5 224.5,124.5C 224.5,124.833 224.5,125.167 224.5,125.5C 222.5,125.5 220.5,125.5 218.5,125.5C 218.5,119.5 218.5,113.5 218.5,107.5 Z"/></g>
<g><path style="opacity:1" fill="#80d9fb" d="M -0.5,110.5 C 18.0321,111.634 18.0321,112.634 -0.5,113.5C -0.5,112.5 -0.5,111.5 -0.5,110.5 Z"/></g>
<g><path style="opacity:1" fill="#2e5790" d="M 49.5,110.5 C 53.1667,110.5 56.8333,110.5 60.5,110.5C 60.5,111.5 60.5,112.5 60.5,113.5C 56.0329,113.867 51.6996,113.367 47.5,112C 48.4158,111.722 49.0825,111.222 49.5,110.5 Z"/></g>
<g><path style="opacity:1" fill="#79d4f8" d="M -0.5,118.5 C -0.5,117.5 -0.5,116.5 -0.5,115.5C 4.24599,115.112 8.91265,115.112 13.5,115.5C 8.9449,117.815 4.27823,118.815 -0.5,118.5 Z"/></g>
<g><path style="opacity:1" fill="#2d5189" d="M 47.5,116.5 C 51.6344,115.515 55.9677,115.182 60.5,115.5C 60.853,117.635 60.0197,118.968 58,119.5C 54.5488,118.263 51.0488,117.263 47.5,116.5 Z"/></g>
<g><path style="opacity:1" fill="#71cef3" d="M 10.5,118.5 C 11.8734,118.343 13.2068,118.51 14.5,119C 10.7478,121.293 6.91442,123.46 3,125.5C 1.81181,124.437 1.31181,123.103 1.5,121.5C 4.67025,120.735 7.67025,119.735 10.5,118.5 Z"/></g>
<g><path style="opacity:1" fill="#194482" d="M 46.5,119.5 C 46.56,118.957 46.8933,118.624 47.5,118.5C 51.1223,119.708 54.789,120.708 58.5,121.5C 58.6882,123.103 58.1882,124.437 57,125.5C 53.7168,123.109 50.2168,121.109 46.5,119.5 Z"/></g>
<g><path style="opacity:1" fill="#64c0e8" d="M 13.5,121.5 C 14.552,121.351 15.552,121.517 16.5,122C 13,124.833 9.5,127.667 6,130.5C 4.42215,129.289 4.25549,127.955 5.5,126.5C 8.23085,124.808 10.8975,123.142 13.5,121.5 Z"/></g>
<g><path style="opacity:1" fill="#204985" d="M 42.5,124.5 C 45.2682,126.087 47.9348,127.92 50.5,130C 53.276,132.416 52.9427,133.75 49.5,134C 46.9245,130.937 44.5912,127.771 42.5,124.5 Z"/></g>
<g><path style="opacity:1" fill="#204883" d="M 44.5,122.5 C 44.56,121.957 44.8933,121.624 45.5,121.5C 49.3358,123.25 53.0025,125.25 56.5,127.5C 55.8551,128.646 55.0217,129.646 54,130.5C 50.8949,127.707 47.7283,125.04 44.5,122.5 Z"/></g>
<g><path style="opacity:1" fill="#61b6de" d="M 16.5,123.5 C 18.0281,123.517 18.5281,124.184 18,125.5C 15.1471,128.052 12.6471,130.885 10.5,134C 8.33333,134.5 7.5,133.667 8,131.5C 11.3329,129.333 14.1663,126.666 16.5,123.5 Z"/></g>
<g><path style="opacity:1" fill="#4284b4" d="M 25.5,128.5 C 26.4972,128.47 27.1639,128.97 27.5,130C 26.596,134.111 26.2627,138.278 26.5,142.5C 24.6536,142.778 23.3202,142.111 22.5,140.5C 23.915,136.591 24.915,132.591 25.5,128.5 Z"/></g>
<g><path style="opacity:1" fill="#38679c" d="M 33.5,129.5 C 36.1623,133.314 37.1623,137.481 36.5,142C 35.552,142.483 34.552,142.649 33.5,142.5C 33.5,138.167 33.5,133.833 33.5,129.5 Z"/></g>
<g><path style="opacity:1" fill="#226ba3" d="M 29.5,129.5 C 31.1773,133.545 31.8439,137.878 31.5,142.5C 30.5,142.5 29.5,142.5 28.5,142.5C 28.4672,138.131 28.8005,133.798 29.5,129.5 Z"/></g>
<g><path style="opacity:1" fill="#4ca3d0" d="M 19.5,126.5 C 20.0431,126.56 20.3764,126.893 20.5,127.5C 18.754,131.327 16.754,134.993 14.5,138.5C 13.354,137.855 12.354,137.022 11.5,136C 14.2935,132.895 16.9602,129.728 19.5,126.5 Z"/></g>
<g><path style="opacity:1" fill="#184683" d="M 39.5,126.5 C 42.9492,129.119 45.9492,132.286 48.5,136C 47.6667,136.833 46.8333,137.667 46,138.5C 43.5542,134.606 41.3876,130.606 39.5,126.5 Z"/></g>
<g><path style="opacity:1" fill="#194a86" d="M 36.5,127.5 C 39.1844,131.02 41.5177,134.853 43.5,139C 42.4366,140.188 41.1033,140.688 39.5,140.5C 38.7066,136.12 37.7066,131.786 36.5,127.5 Z"/></g>
<g><path style="opacity:1" fill="#3d8fbf" d="M 22.5,127.5 C 23.5983,128.601 23.765,129.934 23,131.5C 22.1779,133.788 21.5112,136.122 21,138.5C 19.7773,140.985 18.2773,141.152 16.5,139C 19.1632,135.507 21.1632,131.673 22.5,127.5 Z"/></g>
</svg>
