<?xml version="1.0" encoding="UTF-8"?>
<!DOCTYPE svg PUBLIC "-//W3C//DTD SVG 1.1//EN" "http://www.w3.org/Graphics/SVG/1.1/DTD/svg11.dtd">
<svg xmlns="http://www.w3.org/2000/svg" version="1.1" width="224px" height="224px" style="shape-rendering:geometricPrecision; text-rendering:geometricPrecision; image-rendering:optimizeQuality; fill-rule:evenodd; clip-rule:evenodd" xmlns:xlink="http://www.w3.org/1999/xlink">
<g><path style="opacity:1" fill="#fefefe" d="M -0.5,-0.5 C 74.1667,-0.5 148.833,-0.5 223.5,-0.5C 223.5,74.1667 223.5,148.833 223.5,223.5C 148.833,223.5 74.1667,223.5 -0.5,223.5C -0.5,148.833 -0.5,74.1667 -0.5,-0.5 Z"/></g>
<g><path style="opacity:1" fill="#fe7026" d="M 32.5,81.5 C 41.8752,85.3549 50.8752,90.0216 59.5,95.5C 60.6656,105.817 60.8323,116.151 60,126.5C 51.2532,131.122 42.7532,136.122 34.5,141.5C 29.9175,138.959 25.4175,136.293 21,133.5C 20.6667,128.833 20.3333,124.167 20,119.5C 16.25,117.041 12.4166,114.708 8.5,112.5C 7.33719,107.198 7.17053,101.864 8,96.5C 16.3139,91.6001 24.4806,86.6001 32.5,81.5 Z"/></g>
<g><path style="opacity:1" fill="#fef1ec" d="M 32.5,88.5 C 39.5615,91.8659 46.5615,95.5325 53.5,99.5C 54.6648,107.145 54.8315,114.812 54,122.5C 47.6048,126.405 41.1048,130.072 34.5,133.5C 28.0633,132.764 25.73,129.431 27.5,123.5C 29.7223,124.778 32.0557,125.778 34.5,126.5C 38.8719,124.563 43.0385,122.23 47,119.5C 47.8299,113.804 47.6632,108.137 46.5,102.5C 42.5,100.167 38.5,97.8333 34.5,95.5C 30.0074,97.579 25.674,99.9123 21.5,102.5C 20.8333,105.5 20.1667,108.5 19.5,111.5C 15.6198,110.456 13.9532,107.956 14.5,104C 14.8333,102.5 15.1667,101 15.5,99.5C 21.4018,96.0584 27.0685,92.3917 32.5,88.5 Z"/></g>
<g><path style="opacity:1" fill="#8c8d8f" d="M 88.5,100.5 C 84.8333,100.5 81.1667,100.5 77.5,100.5C 77.5,107.833 77.5,115.167 77.5,122.5C 76.508,115.018 76.1746,107.352 76.5,99.5C 80.7016,99.1832 84.7016,99.5166 88.5,100.5 Z"/></g>
<g><path style="opacity:1" fill="#4c4d51" d="M 88.5,100.5 C 94.0953,101.56 95.9286,104.893 94,110.5C 91.0558,114.114 87.2225,115.447 82.5,114.5C 82.5,117.167 82.5,119.833 82.5,122.5C 80.8333,122.5 79.1667,122.5 77.5,122.5C 77.5,115.167 77.5,107.833 77.5,100.5C 81.1667,100.5 84.8333,100.5 88.5,100.5 Z"/></g>
<g><path style="opacity:1" fill="#7b7c7f" d="M 97.5,100.5 C 99.2646,99.5386 101.265,99.2053 103.5,99.5C 103.177,105.69 103.51,111.69 104.5,117.5C 104.5,118.167 104.5,118.833 104.5,119.5C 103.833,120.5 103.167,121.5 102.5,122.5C 102.5,115.167 102.5,107.833 102.5,100.5C 100.833,100.5 99.1667,100.5 97.5,100.5 Z"/></g>
<g><path style="opacity:1" fill="#8c8d8f" d="M 161.5,105.5 C 164.625,104.521 167.958,104.187 171.5,104.5C 171.5,103.167 171.5,101.833 171.5,100.5C 166.5,100.5 161.5,100.5 156.5,100.5C 156.5,107.833 156.5,115.167 156.5,122.5C 155.508,115.018 155.175,107.352 155.5,99.5C 161.167,99.5 166.833,99.5 172.5,99.5C 172.5,101.5 172.5,103.5 172.5,105.5C 168.833,105.5 165.167,105.5 161.5,105.5 Z"/></g>
<g><path style="opacity:1" fill="#4b4d50" d="M 97.5,100.5 C 99.1667,100.5 100.833,100.5 102.5,100.5C 102.5,107.833 102.5,115.167 102.5,122.5C 100.833,122.5 99.1667,122.5 97.5,122.5C 97.5,115.167 97.5,107.833 97.5,100.5 Z"/></g>
<g><path style="opacity:1" fill="#515255" d="M 119.5,99.5 C 122.5,99.5 125.5,99.5 128.5,99.5C 129.696,107.281 131.362,114.948 133.5,122.5C 131.5,122.5 129.5,122.5 127.5,122.5C 127.67,121.178 127.337,120.011 126.5,119C 124.527,118.505 122.527,118.338 120.5,118.5C 120.241,122.068 118.241,123.401 114.5,122.5C 116.288,114.894 117.955,107.228 119.5,99.5 Z"/></g>
<g><path style="opacity:1" fill="#515356" d="M 133.5,99.5 C 135.199,99.3398 136.866,99.5065 138.5,100C 139.965,102.43 141.298,104.93 142.5,107.5C 144.086,105.33 145.42,102.996 146.5,100.5C 148.5,99.1667 150.5,99.1667 152.5,100.5C 150.588,104.66 148.421,108.66 146,112.5C 145.502,115.817 145.335,119.15 145.5,122.5C 143.5,122.5 141.5,122.5 139.5,122.5C 139.665,118.818 139.499,115.152 139,111.5C 136.35,107.867 134.517,103.867 133.5,99.5 Z"/></g>
<g><path style="opacity:1" fill="#4a4c4f" d="M 161.5,105.5 C 161.5,111.167 161.5,116.833 161.5,122.5C 159.833,122.5 158.167,122.5 156.5,122.5C 156.5,115.167 156.5,107.833 156.5,100.5C 161.5,100.5 166.5,100.5 171.5,100.5C 171.5,101.833 171.5,103.167 171.5,104.5C 167.958,104.187 164.625,104.521 161.5,105.5 Z"/></g>
<g><path style="opacity:1" fill="#515356" d="M 178.5,99.5 C 181.167,99.5 183.833,99.5 186.5,99.5C 188.804,107.017 190.47,114.684 191.5,122.5C 189.5,122.5 187.5,122.5 185.5,122.5C 185.5,121.167 185.5,119.833 185.5,118.5C 183.167,118.5 180.833,118.5 178.5,118.5C 178.5,119.833 178.5,121.167 178.5,122.5C 176.5,122.5 174.5,122.5 172.5,122.5C 174.096,114.715 176.096,107.048 178.5,99.5 Z"/></g>
<g><path style="opacity:1" fill="#505255" d="M 196.5,99.5 C 201.599,99.1746 206.599,99.6746 211.5,101C 214.122,104.13 214.122,107.297 211.5,110.5C 213.436,113.208 213.936,116.208 213,119.5C 212.097,120.701 210.931,121.535 209.5,122C 205.179,122.499 200.846,122.666 196.5,122.5C 196.5,114.833 196.5,107.167 196.5,99.5 Z"/></g>
<g><path style="opacity:1" fill="#fef6f2" d="M 32.5,103.5 C 40.4187,103.829 43.2521,107.829 41,115.5C 36.3744,120.811 31.7077,120.811 27,115.5C 26.1786,112.446 26.3452,109.446 27.5,106.5C 29.3964,105.725 31.063,104.725 32.5,103.5 Z"/></g>
<g><path style="opacity:1" fill="#dddede" d="M 82.5,104.5 C 87.6673,103.492 89.334,105.325 87.5,110C 85.8659,110.494 84.1992,110.66 82.5,110.5C 82.5,108.5 82.5,106.5 82.5,104.5 Z"/></g>
<g><path style="opacity:1" fill="#e0e0e1" d="M 201.5,104.5 C 205.241,103.599 207.241,104.932 207.5,108.5C 205.5,108.5 203.5,108.5 201.5,108.5C 201.5,107.167 201.5,105.833 201.5,104.5 Z"/></g>
<g><path style="opacity:1" fill="#dcdcdd" d="M 181.5,105.5 C 183.253,108.146 184.253,111.146 184.5,114.5C 183.167,114.5 181.833,114.5 180.5,114.5C 180.508,111.455 180.841,108.455 181.5,105.5 Z"/></g>
<g><path style="opacity:1" fill="#d4d4d5" d="M 123.5,105.5 C 125.118,108.171 125.785,111.171 125.5,114.5C 124.167,114.5 122.833,114.5 121.5,114.5C 121.916,111.417 122.583,108.417 123.5,105.5 Z"/></g>
<g><path style="opacity:1" fill="#535558" d="M 162.5,109.5 C 164.833,109.5 167.167,109.5 169.5,109.5C 169.5,111.167 169.5,112.833 169.5,114.5C 165.187,115.513 162.854,113.846 162.5,109.5 Z"/></g>
<g><path style="opacity:1" fill="#f2f2f2" d="M 201.5,113.5 C 203.5,113.5 205.5,113.5 207.5,113.5C 207.5,114.833 207.5,116.167 207.5,117.5C 205.5,117.5 203.5,117.5 201.5,117.5C 201.5,116.167 201.5,114.833 201.5,113.5 Z"/></g>
<g><path style="opacity:1" fill="#4a4c4f" d="M 104.5,117.5 C 106.833,117.5 109.167,117.5 111.5,117.5C 111.5,119.167 111.5,120.833 111.5,122.5C 108.364,123.021 106.03,122.021 104.5,119.5C 104.5,118.833 104.5,118.167 104.5,117.5 Z"/></g>
</svg>
