<?xml version="1.0" encoding="UTF-8"?>
<!DOCTYPE svg PUBLIC "-//W3C//DTD SVG 1.1//EN" "http://www.w3.org/Graphics/SVG/1.1/DTD/svg11.dtd">
<svg xmlns="http://www.w3.org/2000/svg" version="1.1" width="512px" height="512px" style="shape-rendering:geometricPrecision; text-rendering:geometricPrecision; image-rendering:optimizeQuality; fill-rule:evenodd; clip-rule:evenodd" xmlns:xlink="http://www.w3.org/1999/xlink">
<g><path style="opacity:0.986" fill="#000101" d="M 383.5,310.5 C 373.145,307.248 362.478,304.914 351.5,303.5C 346.436,301.548 341.103,300.215 335.5,299.5C 330.947,297.908 326.28,297.075 321.5,297C 306.986,311.681 292.319,326.181 277.5,340.5C 273.671,337.504 270.171,334.171 267,330.5C 266.53,329.423 266.697,328.423 267.5,327.5C 283.661,311.506 299.994,295.673 316.5,280C 318.833,279.333 321.167,279.333 323.5,280C 344.596,285.113 365.596,289.613 386.5,293.5C 408.098,233.871 429.598,174.205 451,114.5C 452.13,110.368 454.797,108.034 459,107.5C 464.415,109.472 469.915,111.139 475.5,112.5C 475.552,110.097 475.219,107.764 474.5,105.5C 471.005,91.5183 467.505,77.5183 464,63.5C 463.586,63.0426 463.086,62.7093 462.5,62.5C 446.833,72.3333 431.167,82.1667 415.5,92C 419.833,93.6667 424.167,95.3333 428.5,97C 431.194,99.6534 432.027,102.82 431,106.5C 411.94,157.013 393.273,207.679 375,258.5C 372.649,262.511 369.149,264.011 364.5,263C 349.865,258.066 335.198,253.233 320.5,248.5C 295.355,260.572 270.355,272.906 245.5,285.5C 244.833,285.833 244.167,286.167 243.5,286.5C 241.108,282.722 238.941,278.722 237,274.5C 236.251,273.365 236.417,272.365 237.5,271.5C 263.833,258.333 290.167,245.167 316.5,232C 318.167,231.333 319.833,231.333 321.5,232C 325.43,233.477 329.43,234.644 333.5,235.5C 339.216,238.072 345.216,240.072 351.5,241.5C 355.216,243.405 359.216,244.739 363.5,245.5C 367.02,234.108 370.853,222.774 375,211.5C 375.667,155.167 375.667,98.8333 375,42.5C 372.833,37.6667 369.333,34.1667 364.5,32C 291.833,31.3333 219.167,31.3333 146.5,32C 141.667,34.1667 138.167,37.6667 136,42.5C 135.333,109.833 135.333,177.167 136,244.5C 136.53,248.583 137.363,252.583 138.5,256.5C 142.842,256.739 147.176,257.073 151.5,257.5C 151.333,196.499 151.5,135.499 152,74.5C 154.167,69.6667 157.667,66.1667 162.5,64C 223.833,63.3333 285.167,63.3333 346.5,64C 352.469,65.2979 356.635,68.7979 359,74.5C 359.5,121.499 359.667,168.499 359.5,215.5C 356.833,215.5 354.167,215.5 351.5,215.5C 348.833,215.5 346.167,215.5 343.5,215.5C 343.5,170.167 343.5,124.833 343.5,79.5C 284.833,79.5 226.167,79.5 167.5,79.5C 167.333,138.168 167.5,196.834 168,255.5C 170.844,251.138 173.677,246.805 176.5,242.5C 180.208,241.086 183.875,241.253 187.5,243C 197.434,248.882 206.934,255.382 216,262.5C 216.667,264.833 216.667,267.167 216,269.5C 212.5,275.167 209,280.833 205.5,286.5C 211.323,293.479 216.656,300.812 221.5,308.5C 229.275,305.704 237.275,304.537 245.5,305C 247.049,306.214 248.215,307.714 249,309.5C 251.122,319.571 253.455,329.571 256,339.5C 257.26,344.814 255.426,348.647 250.5,351C 244.244,352.598 237.911,353.765 231.5,354.5C 231.142,362.982 229.809,371.315 227.5,379.5C 227.833,380.5 228.167,381.5 228.5,382.5C 233.366,385.864 238.366,389.031 243.5,392C 247.323,396.295 247.489,400.795 244,405.5C 238.417,413.664 233.084,421.997 228,430.5C 225.347,433.194 222.18,434.027 218.5,433C 212.833,429.5 207.167,426 201.5,422.5C 197.141,426.026 192.641,429.359 188,432.5C 185.304,428.32 182.47,424.32 179.5,420.5C 184.925,415.25 190.592,410.083 196.5,405C 198.833,404.333 201.167,404.333 203.5,405C 208.667,408.167 213.833,411.333 219,414.5C 221.833,410.167 224.667,405.833 227.5,401.5C 223.545,398.183 219.212,395.349 214.5,393C 211.535,391.057 209.869,388.39 209.5,385C 213.526,372.152 215.693,358.985 216,345.5C 217.543,343.622 219.376,342.122 221.5,341C 227.186,339.831 232.853,338.664 238.5,337.5C 237.818,332.107 236.818,326.773 235.5,321.5C 228.997,322.75 222.497,324.083 216,325.5C 213.594,325.297 211.594,324.297 210,322.5C 204.642,310.442 197.309,299.776 188,290.5C 187.333,288.5 187.333,286.5 188,284.5C 191.167,279.333 194.333,274.167 197.5,269C 193.508,265.669 189.175,262.836 184.5,260.5C 180.919,265.328 177.585,270.328 174.5,275.5C 172.525,277.321 170.191,278.321 167.5,278.5C 160.874,276.57 154.207,274.737 147.5,273C 141.5,272.667 135.5,272.333 129.5,272C 127.333,271.167 125.833,269.667 125,267.5C 123.539,261.863 122.206,256.196 121,250.5C 116.157,249.791 111.323,250.291 106.5,252C 105.903,253.062 105.57,254.228 105.5,255.5C 106.692,260.629 107.692,265.795 108.5,271C 108.458,272.967 107.958,274.801 107,276.5C 95.1079,282.06 84.6079,289.56 75.5,299C 72.9699,300.422 70.3033,300.755 67.5,300C 62.5,296.833 57.5,293.667 52.5,290.5C 48.8996,294.187 45.8996,298.354 43.5,303C 48.228,306.726 53.228,310.059 58.5,313C 60.4441,314.722 61.4441,316.889 61.5,319.5C 56.8189,332.074 54.6522,345.074 55,358.5C 54.1667,360.667 52.6667,362.167 50.5,363C 44.5474,364.491 38.5474,365.657 32.5,366.5C 33.2858,371.882 34.2858,377.216 35.5,382.5C 41.6888,381.663 47.8554,380.663 54,379.5C 57.5448,379.039 60.2115,380.372 62,383.5C 67.0238,394.861 74.0238,404.861 83,413.5C 83.6667,415.833 83.6667,418.167 83,420.5C 79.8333,425.5 76.6667,430.5 73.5,435.5C 77.6218,438.734 81.9551,441.734 86.5,444.5C 89.376,439.914 92.376,435.414 95.5,431C 98.394,431.754 101.394,432.587 104.5,433.5C 106.253,435.223 108.253,436.723 110.5,438C 105.328,446.68 99.6614,455.013 93.5,463C 90.8333,463.667 88.1667,463.667 85.5,463C 75.6656,457.251 65.9989,451.251 56.5,445C 54.0364,442.274 53.2031,439.107 54,435.5C 57.9216,429.641 61.2549,423.641 64,417.5C 58.2638,411.028 53.2638,404.028 49,396.5C 41.42,399.353 33.5866,400.52 25.5,400C 24.3333,398.833 23.1667,397.667 22,396.5C 19.1153,385.076 16.6153,373.576 14.5,362C 14.3757,359.41 15.0423,357.077 16.5,355C 23.8931,352.444 31.3931,350.277 39,348.5C 39.4229,339.962 40.9229,331.628 43.5,323.5C 37.0706,319.536 30.904,315.202 25,310.5C 22.9625,306.666 23.2959,302.999 26,299.5C 31.3958,291.766 36.3958,283.766 41,275.5C 43.8213,271.337 47.6546,269.837 52.5,271C 58.3587,274.922 64.3587,278.255 70.5,281C 76.1302,275.518 82.4635,271.018 89.5,267.5C 89.8333,266.667 90.1667,265.833 90.5,265C 89.3245,258.965 87.9912,252.965 86.5,247C 86.7305,244.3 87.7305,241.967 89.5,240C 99.3389,236.874 109.339,234.374 119.5,232.5C 119.333,168.166 119.5,103.832 120,39.5C 123.167,27 131,19.1667 143.5,16C 218.167,15.3333 292.833,15.3333 367.5,16C 380,19.1667 387.833,27 391,39.5C 391.167,55.1773 391.667,70.844 392.5,86.5C 416.3,71.8645 439.966,57.0311 463.5,42C 469.912,39.3556 474.412,41.189 477,47.5C 483.157,71.7962 489.157,96.1296 495,120.5C 495.956,124.572 495.456,128.405 493.5,132C 491.634,132.985 489.634,133.485 487.5,133.5C 479.775,131.869 472.275,129.536 465,126.5C 442.95,185.98 421.283,245.647 400,305.5C 399.315,308.057 397.815,309.891 395.5,311C 391.446,311.694 387.446,311.527 383.5,310.5 Z M 391.5,101.5 C 398.514,103.894 405.514,106.394 412.5,109C 405.278,127.329 398.445,145.829 392,164.5C 391.5,143.503 391.333,122.503 391.5,101.5 Z M 119.5,404.5 C 115.128,403.055 111.128,401.055 107.5,398.5C 108.361,396.614 109.361,394.78 110.5,393C 89.8517,377.719 83.685,357.886 92,333.5C 97.3948,321.105 106.395,312.439 119,307.5C 119.5,339.832 119.667,372.165 119.5,404.5 Z"/></g>
<g><path style="opacity:1" fill="#c1c1c1" d="M 351.5,241.5 C 351.5,232.833 351.5,224.167 351.5,215.5C 354.167,215.5 356.833,215.5 359.5,215.5C 359.667,168.499 359.5,121.499 359,74.5C 356.635,68.7979 352.469,65.2979 346.5,64C 285.167,63.3333 223.833,63.3333 162.5,64C 157.667,66.1667 154.167,69.6667 152,74.5C 151.5,135.499 151.333,196.499 151.5,257.5C 147.176,257.073 142.842,256.739 138.5,256.5C 137.363,252.583 136.53,248.583 136,244.5C 135.333,177.167 135.333,109.833 136,42.5C 138.167,37.6667 141.667,34.1667 146.5,32C 219.167,31.3333 291.833,31.3333 364.5,32C 369.333,34.1667 372.833,37.6667 375,42.5C 375.667,98.8333 375.667,155.167 375,211.5C 370.853,222.774 367.02,234.108 363.5,245.5C 359.216,244.739 355.216,243.405 351.5,241.5 Z"/></g>
<g><path style="opacity:1" fill="#000000" d="M 247.5,39.5 C 252.833,39.5 258.167,39.5 263.5,39.5C 263.5,44.8333 263.5,50.1667 263.5,55.5C 258.167,55.5 252.833,55.5 247.5,55.5C 247.5,50.1667 247.5,44.8333 247.5,39.5 Z"/></g>
<g><path style="opacity:1" fill="#2097e7" d="M 474.5,105.5 C 467.697,103.844 461.03,101.677 454.5,99C 453.056,98.2195 451.723,98.3861 450.5,99.5C 428.35,161.287 406.017,222.954 383.5,284.5C 382.833,284.833 382.167,285.167 381.5,285.5C 359.869,280.622 338.203,275.789 316.5,271C 314.5,270.333 312.5,270.333 310.5,271C 294.986,286.681 279.319,302.181 263.5,317.5C 257.044,307.055 251.044,296.388 245.5,285.5C 270.355,272.906 295.355,260.572 320.5,248.5C 335.198,253.233 349.865,258.066 364.5,263C 369.149,264.011 372.649,262.511 375,258.5C 393.273,207.679 411.94,157.013 431,106.5C 432.027,102.82 431.194,99.6534 428.5,97C 424.167,95.3333 419.833,93.6667 415.5,92C 431.167,82.1667 446.833,72.3333 462.5,62.5C 463.086,62.7093 463.586,63.0426 464,63.5C 467.505,77.5183 471.005,91.5183 474.5,105.5 Z"/></g>
<g><path style="opacity:1" fill="#bce7fe" d="M 351.5,215.5 C 351.5,224.167 351.5,232.833 351.5,241.5C 345.216,240.072 339.216,238.072 333.5,235.5C 334.833,212.009 335.5,188.176 335.5,164C 335.333,140.167 335.167,116.333 335,92.5C 334.167,90.3333 332.667,88.8333 330.5,88C 308.996,87.1706 287.663,87.3373 266.5,88.5C 259.201,87.6502 251.868,87.3169 244.5,87.5C 223.164,87.3334 201.831,87.5 180.5,88C 178.333,88.8333 176.833,90.3333 176,92.5C 175.168,142.668 175.335,192.668 176.5,242.5C 173.677,246.805 170.844,251.138 168,255.5C 167.5,196.834 167.333,138.168 167.5,79.5C 226.167,79.5 284.833,79.5 343.5,79.5C 343.5,124.833 343.5,170.167 343.5,215.5C 346.167,215.5 348.833,215.5 351.5,215.5 Z"/></g>
<g><path style="opacity:1" fill="#caebfd" d="M 244.5,87.5 C 203.612,97.9348 183.445,124.268 184,166.5C 189.691,201.526 209.858,223.026 244.5,231C 283.087,233.635 309.587,217.135 324,181.5C 333.034,145.591 322.201,117.425 291.5,97C 283.526,93.0642 275.192,90.2309 266.5,88.5C 287.663,87.3373 308.996,87.1706 330.5,88C 332.667,88.8333 334.167,90.3333 335,92.5C 335.167,116.333 335.333,140.167 335.5,164C 335.5,188.176 334.833,212.009 333.5,235.5C 329.43,234.644 325.43,233.477 321.5,232C 319.833,231.333 318.167,231.333 316.5,232C 290.167,245.167 263.833,258.333 237.5,271.5C 236.417,272.365 236.251,273.365 237,274.5C 238.941,278.722 241.108,282.722 243.5,286.5C 251.263,300.366 259.263,314.033 267.5,327.5C 266.697,328.423 266.53,329.423 267,330.5C 270.171,334.171 273.671,337.504 277.5,340.5C 292.319,326.181 306.986,311.681 321.5,297C 326.28,297.075 330.947,297.908 335.5,299.5C 335.667,344.501 335.5,389.501 335,434.5C 334.535,435.931 333.701,437.097 332.5,438C 281.916,439.657 231.25,439.991 180.5,439C 178.333,438.167 176.833,436.667 176,434.5C 175.183,428.984 175.349,423.65 176.5,418.5C 177.5,419.167 178.5,419.833 179.5,420.5C 182.47,424.32 185.304,428.32 188,432.5C 192.641,429.359 197.141,426.026 201.5,422.5C 207.167,426 212.833,429.5 218.5,433C 222.18,434.027 225.347,433.194 228,430.5C 233.084,421.997 238.417,413.664 244,405.5C 247.489,400.795 247.323,396.295 243.5,392C 238.366,389.031 233.366,385.864 228.5,382.5C 228.167,381.5 227.833,380.5 227.5,379.5C 229.809,371.315 231.142,362.982 231.5,354.5C 237.911,353.765 244.244,352.598 250.5,351C 255.426,348.647 257.26,344.814 256,339.5C 253.455,329.571 251.122,319.571 249,309.5C 248.215,307.714 247.049,306.214 245.5,305C 237.275,304.537 229.275,305.704 221.5,308.5C 216.656,300.812 211.323,293.479 205.5,286.5C 209,280.833 212.5,275.167 216,269.5C 216.667,267.167 216.667,264.833 216,262.5C 206.934,255.382 197.434,248.882 187.5,243C 183.875,241.253 180.208,241.086 176.5,242.5C 175.335,192.668 175.168,142.668 176,92.5C 176.833,90.3333 178.333,88.8333 180.5,88C 201.831,87.5 223.164,87.3334 244.5,87.5 Z"/></g>
<g><path style="opacity:1" fill="#030202" d="M 244.5,87.5 C 251.868,87.3169 259.201,87.6502 266.5,88.5C 275.192,90.2309 283.526,93.0642 291.5,97C 322.201,117.425 333.034,145.591 324,181.5C 309.587,217.135 283.087,233.635 244.5,231C 209.858,223.026 189.691,201.526 184,166.5C 183.445,124.268 203.612,97.9348 244.5,87.5 Z"/></g>
<g><path style="opacity:1" fill="#0a8ce4" d="M 474.5,105.5 C 475.219,107.764 475.552,110.097 475.5,112.5C 469.915,111.139 464.415,109.472 459,107.5C 454.797,108.034 452.13,110.368 451,114.5C 429.598,174.205 408.098,233.871 386.5,293.5C 365.596,289.613 344.596,285.113 323.5,280C 321.167,279.333 318.833,279.333 316.5,280C 299.994,295.673 283.661,311.506 267.5,327.5C 259.263,314.033 251.263,300.366 243.5,286.5C 244.167,286.167 244.833,285.833 245.5,285.5C 251.044,296.388 257.044,307.055 263.5,317.5C 279.319,302.181 294.986,286.681 310.5,271C 312.5,270.333 314.5,270.333 316.5,271C 338.203,275.789 359.869,280.622 381.5,285.5C 382.167,285.167 382.833,284.833 383.5,284.5C 406.017,222.954 428.35,161.287 450.5,99.5C 451.723,98.3861 453.056,98.2195 454.5,99C 461.03,101.677 467.697,103.844 474.5,105.5 Z"/></g>
<g><path style="opacity:1" fill="#f98b30" d="M 247.5,112.5 C 223.147,118.19 209.813,133.523 207.5,158.5C 208.887,184.547 222.221,200.547 247.5,206.5C 247.5,209.167 247.5,211.833 247.5,214.5C 223.418,210.037 207.918,196.037 201,172.5C 196.203,138.915 209.703,116.415 241.5,105C 243.473,104.505 245.473,104.338 247.5,104.5C 247.5,107.167 247.5,109.833 247.5,112.5 Z"/></g>
<g><path style="opacity:1" fill="#f98b30" d="M 263.5,206.5 C 289.016,200.477 302.349,184.31 303.5,158C 300.971,133.306 287.637,118.139 263.5,112.5C 263.5,109.833 263.5,107.167 263.5,104.5C 292.709,110.384 308.709,128.217 311.5,158C 310.394,186.428 296.394,205.094 269.5,214C 267.527,214.495 265.527,214.662 263.5,214.5C 263.5,211.833 263.5,209.167 263.5,206.5 Z"/></g>
<g><path style="opacity:1" fill="#fcb06a" d="M 247.5,112.5 C 233.364,120.35 228.198,132.35 232,148.5C 236.096,161.462 244.929,167.962 258.5,168C 260.667,168.833 262.167,170.333 263,172.5C 263.667,177.167 263.667,181.833 263,186.5C 259.108,192.259 254.441,192.926 249,188.5C 247.633,184.3 247.133,179.967 247.5,175.5C 242.167,175.5 236.833,175.5 231.5,175.5C 229.756,189.684 235.09,200.017 247.5,206.5C 222.221,200.547 208.887,184.547 207.5,158.5C 209.813,133.523 223.147,118.19 247.5,112.5 Z"/></g>
<g><path style="opacity:1" fill="#fcb06a" d="M 263.5,112.5 C 287.637,118.139 300.971,133.306 303.5,158C 302.349,184.31 289.016,200.477 263.5,206.5C 277.83,198.326 282.997,185.993 279,169.5C 274.461,157.304 265.627,151.138 252.5,151C 250.333,150.167 248.833,148.667 248,146.5C 247.333,141.833 247.333,137.167 248,132.5C 251.892,126.741 256.559,126.074 262,130.5C 263.367,134.7 263.867,139.033 263.5,143.5C 268.833,143.5 274.167,143.5 279.5,143.5C 281.719,129.099 276.386,118.765 263.5,112.5 Z"/></g>
<g><path style="opacity:0.998" fill="#2096e6" d="M 179.5,420.5 C 178.5,419.833 177.5,419.167 176.5,418.5C 173.471,415.141 170.471,411.808 167.5,408.5C 167.5,404.833 167.5,401.167 167.5,397.5C 168.833,396.5 170.167,395.5 171.5,394.5C 173.296,395.793 174.963,397.293 176.5,399C 177.5,399.667 178.5,399.667 179.5,399C 198.578,378.616 203.744,355.116 195,328.5C 180.745,299.117 157.245,285.95 124.5,289C 86.0816,299.67 68.9149,324.837 73,364.5C 76.7696,382.259 86.1029,396.259 101,406.5C 102.946,403.58 105.113,400.913 107.5,398.5C 111.128,401.055 115.128,403.055 119.5,404.5C 119.5,407.167 119.5,409.833 119.5,412.5C 114.119,419.216 109.119,426.216 104.5,433.5C 101.394,432.587 98.394,431.754 95.5,431C 92.376,435.414 89.376,439.914 86.5,444.5C 81.9551,441.734 77.6218,438.734 73.5,435.5C 76.6667,430.5 79.8333,425.5 83,420.5C 83.6667,418.167 83.6667,415.833 83,413.5C 74.0238,404.861 67.0238,394.861 62,383.5C 60.2115,380.372 57.5448,379.039 54,379.5C 47.8554,380.663 41.6888,381.663 35.5,382.5C 34.2858,377.216 33.2858,371.882 32.5,366.5C 38.5474,365.657 44.5474,364.491 50.5,363C 52.6667,362.167 54.1667,360.667 55,358.5C 54.6522,345.074 56.8189,332.074 61.5,319.5C 61.4441,316.889 60.4441,314.722 58.5,313C 53.228,310.059 48.228,306.726 43.5,303C 45.8996,298.354 48.8996,294.187 52.5,290.5C 57.5,293.667 62.5,296.833 67.5,300C 70.3033,300.755 72.9699,300.422 75.5,299C 84.6079,289.56 95.1079,282.06 107,276.5C 107.958,274.801 108.458,272.967 108.5,271C 107.692,265.795 106.692,260.629 105.5,255.5C 105.57,254.228 105.903,253.062 106.5,252C 111.323,250.291 116.157,249.791 121,250.5C 122.206,256.196 123.539,261.863 125,267.5C 125.833,269.667 127.333,271.167 129.5,272C 135.5,272.333 141.5,272.667 147.5,273C 154.207,274.737 160.874,276.57 167.5,278.5C 170.191,278.321 172.525,277.321 174.5,275.5C 177.585,270.328 180.919,265.328 184.5,260.5C 189.175,262.836 193.508,265.669 197.5,269C 194.333,274.167 191.167,279.333 188,284.5C 187.333,286.5 187.333,288.5 188,290.5C 197.309,299.776 204.642,310.442 210,322.5C 211.594,324.297 213.594,325.297 216,325.5C 222.497,324.083 228.997,322.75 235.5,321.5C 236.818,326.773 237.818,332.107 238.5,337.5C 232.853,338.664 227.186,339.831 221.5,341C 219.376,342.122 217.543,343.622 216,345.5C 215.693,358.985 213.526,372.152 209.5,385C 209.869,388.39 211.535,391.057 214.5,393C 219.212,395.349 223.545,398.183 227.5,401.5C 224.667,405.833 221.833,410.167 219,414.5C 213.833,411.333 208.667,408.167 203.5,405C 201.167,404.333 198.833,404.333 196.5,405C 190.592,410.083 184.925,415.25 179.5,420.5 Z M 119.5,404.5 C 115.128,403.055 111.128,401.055 107.5,398.5C 108.361,396.614 109.361,394.78 110.5,393C 89.8517,377.719 83.685,357.886 92,333.5C 97.3948,321.105 106.395,312.439 119,307.5C 119.5,339.832 119.667,372.165 119.5,404.5 Z"/></g>
<g><path style="opacity:0.99" fill="#010000" d="M 171.5,394.5 C 170.969,392.456 169.802,390.789 168,389.5C 167.503,392.146 167.336,394.813 167.5,397.5C 167.5,401.167 167.5,404.833 167.5,408.5C 167.5,421.5 167.5,434.5 167.5,447.5C 226.167,447.5 284.833,447.5 343.5,447.5C 343.5,407.5 343.5,367.5 343.5,327.5C 346.167,327.5 348.833,327.5 351.5,327.5C 354.167,327.5 356.833,327.5 359.5,327.5C 359.334,334.841 359.5,342.174 360,349.5C 366.287,339.054 374.12,330.054 383.5,322.5C 409.718,308.033 436.051,307.867 462.5,322C 493.023,344.571 502.523,374.071 491,410.5C 475.054,443.896 448.554,458.729 411.5,455C 404.578,454.026 398.078,451.859 392,448.5C 391.667,456.167 391.333,463.833 391,471.5C 387.833,484 380,491.833 367.5,495C 292.833,495.667 218.167,495.667 143.5,495C 131,491.833 123.167,484 120,471.5C 119.5,451.836 119.333,432.169 119.5,412.5C 119.5,409.833 119.5,407.167 119.5,404.5C 119.667,372.165 119.5,339.832 119,307.5C 106.395,312.439 97.3948,321.105 92,333.5C 83.685,357.886 89.8517,377.719 110.5,393C 109.361,394.78 108.361,396.614 107.5,398.5C 105.113,400.913 102.946,403.58 101,406.5C 86.1029,396.259 76.7696,382.259 73,364.5C 68.9149,324.837 86.0816,299.67 124.5,289C 157.245,285.95 180.745,299.117 195,328.5C 203.744,355.116 198.578,378.616 179.5,399C 178.5,399.667 177.5,399.667 176.5,399C 174.963,397.293 173.296,395.793 171.5,394.5 Z M 119.5,404.5 C 115.128,403.055 111.128,401.055 107.5,398.5C 108.361,396.614 109.361,394.78 110.5,393C 89.8517,377.719 83.685,357.886 92,333.5C 97.3948,321.105 106.395,312.439 119,307.5C 119.5,339.832 119.667,372.165 119.5,404.5 Z"/></g>
<g><path style="opacity:1" fill="#bce7fe" d="M 335.5,299.5 C 341.103,300.215 346.436,301.548 351.5,303.5C 351.5,311.5 351.5,319.5 351.5,327.5C 348.833,327.5 346.167,327.5 343.5,327.5C 343.5,367.5 343.5,407.5 343.5,447.5C 284.833,447.5 226.167,447.5 167.5,447.5C 167.5,434.5 167.5,421.5 167.5,408.5C 170.471,411.808 173.471,415.141 176.5,418.5C 175.349,423.65 175.183,428.984 176,434.5C 176.833,436.667 178.333,438.167 180.5,439C 231.25,439.991 281.916,439.657 332.5,438C 333.701,437.097 334.535,435.931 335,434.5C 335.5,389.501 335.667,344.501 335.5,299.5 Z"/></g>
<g><path style="opacity:1" fill="#bfbfbf" d="M 351.5,303.5 C 362.478,304.914 373.145,307.248 383.5,310.5C 383.5,314.5 383.5,318.5 383.5,322.5C 374.12,330.054 366.287,339.054 360,349.5C 359.5,342.174 359.334,334.841 359.5,327.5C 356.833,327.5 354.167,327.5 351.5,327.5C 351.5,319.5 351.5,311.5 351.5,303.5 Z"/></g>
<g><path style="opacity:1" fill="#c1c1c1" d="M 375.5,465.5 C 372.417,468.37 368.75,470.203 364.5,471C 291.5,471.667 218.5,471.667 145.5,471C 141.789,469.773 138.455,467.94 135.5,465.5C 135.5,411.833 135.5,358.167 135.5,304.5C 140.886,304.777 146.219,305.444 151.5,306.5C 151.333,354.834 151.5,403.168 152,451.5C 153.743,456.91 157.243,460.744 162.5,463C 224.167,463.667 285.833,463.667 347.5,463C 353.333,461.167 357.167,457.333 359,451.5C 359.333,440.167 359.667,428.833 360,417.5C 364.238,424.408 369.238,430.741 375,436.5C 375.5,446.161 375.666,455.828 375.5,465.5 Z"/></g>
<g><path style="opacity:1" fill="#bee6fb" d="M 167.5,317.5 C 183.394,332.087 187.561,349.754 180,370.5C 177.166,376.999 173.166,382.665 168,387.5C 167.5,364.169 167.333,340.836 167.5,317.5 Z"/></g>
<g><path style="opacity:1" fill="#f98b30" d="M 415.5,336.5 C 391.147,342.19 377.813,357.523 375.5,382.5C 376.887,408.547 390.221,424.547 415.5,430.5C 415.5,433.167 415.5,435.833 415.5,438.5C 390.057,434.093 374.39,419.26 368.5,394C 365.072,364.515 376.739,343.515 403.5,331C 407.313,329.228 411.313,328.395 415.5,328.5C 415.5,331.167 415.5,333.833 415.5,336.5 Z"/></g>
<g><path style="opacity:1" fill="#f98b30" d="M 431.5,430.5 C 457.016,424.477 470.349,408.31 471.5,382C 468.971,357.306 455.637,342.139 431.5,336.5C 431.5,333.833 431.5,331.167 431.5,328.5C 460.705,334.371 476.705,352.204 479.5,382C 478.394,410.428 464.394,429.094 437.5,438C 435.527,438.495 433.527,438.662 431.5,438.5C 431.5,435.833 431.5,433.167 431.5,430.5 Z"/></g>
<g><path style="opacity:1" fill="#fcb06a" d="M 415.5,336.5 C 401.364,344.35 396.198,356.35 400,372.5C 404.096,385.462 412.929,391.962 426.5,392C 428.667,392.833 430.167,394.333 431,396.5C 431.667,401.167 431.667,405.833 431,410.5C 427.108,416.259 422.441,416.926 417,412.5C 415.633,408.3 415.133,403.967 415.5,399.5C 410.167,399.5 404.833,399.5 399.5,399.5C 397.756,413.684 403.09,424.017 415.5,430.5C 390.221,424.547 376.887,408.547 375.5,382.5C 377.813,357.523 391.147,342.19 415.5,336.5 Z"/></g>
<g><path style="opacity:1" fill="#fcb06a" d="M 431.5,336.5 C 455.637,342.139 468.971,357.306 471.5,382C 470.349,408.31 457.016,424.477 431.5,430.5C 445.83,422.326 450.997,409.993 447,393.5C 442.461,381.304 433.627,375.138 420.5,375C 418.333,374.167 416.833,372.667 416,370.5C 415.333,365.833 415.333,361.167 416,356.5C 419.892,350.741 424.559,350.074 430,354.5C 431.367,358.7 431.867,363.033 431.5,367.5C 436.833,367.5 442.167,367.5 447.5,367.5C 449.719,353.099 444.386,342.765 431.5,336.5 Z"/></g>
<g><path style="opacity:1" fill="#000000" d="M 263.5,359.5 C 268.833,359.5 274.167,359.5 279.5,359.5C 279.5,364.833 279.5,370.167 279.5,375.5C 274.167,375.5 268.833,375.5 263.5,375.5C 263.5,370.167 263.5,364.833 263.5,359.5 Z"/></g>
<g><path style="opacity:1" fill="#add8f0" d="M 171.5,394.5 C 170.167,395.5 168.833,396.5 167.5,397.5C 167.336,394.813 167.503,392.146 168,389.5C 169.802,390.789 170.969,392.456 171.5,394.5 Z"/></g>
<g><path style="opacity:1" fill="#000000" d="M 263.5,391.5 C 268.833,391.5 274.167,391.5 279.5,391.5C 279.5,396.833 279.5,402.167 279.5,407.5C 274.167,407.5 268.833,407.5 263.5,407.5C 263.5,402.167 263.5,396.833 263.5,391.5 Z"/></g>
<g><path style="opacity:1" fill="#000000" d="M 471.5,447.5 C 476.833,447.5 482.167,447.5 487.5,447.5C 487.5,452.833 487.5,458.167 487.5,463.5C 482.167,463.5 476.833,463.5 471.5,463.5C 471.5,458.167 471.5,452.833 471.5,447.5 Z"/></g>
<g><path style="opacity:1" fill="#000000" d="M 407.5,463.5 C 412.833,463.5 418.167,463.5 423.5,463.5C 423.5,468.833 423.5,474.167 423.5,479.5C 418.167,479.5 412.833,479.5 407.5,479.5C 407.5,474.167 407.5,468.833 407.5,463.5 Z"/></g>
<g><path style="opacity:1" fill="#a5a5a5" d="M 135.5,465.5 C 138.455,467.94 141.789,469.773 145.5,471C 218.5,471.667 291.5,471.667 364.5,471C 368.75,470.203 372.417,468.37 375.5,465.5C 374.157,472.344 370.157,476.844 363.5,479C 291.167,479.667 218.833,479.667 146.5,479C 140.418,476.422 136.751,471.922 135.5,465.5 Z"/></g>
<g><path style="opacity:1" fill="#000000" d="M 439.5,479.5 C 444.833,479.5 450.167,479.5 455.5,479.5C 455.5,484.833 455.5,490.167 455.5,495.5C 450.167,495.5 444.833,495.5 439.5,495.5C 439.5,490.167 439.5,484.833 439.5,479.5 Z"/></g>
</svg>
