<?xml version="1.0" encoding="UTF-8"?>
<!DOCTYPE svg PUBLIC "-//W3C//DTD SVG 1.1//EN" "http://www.w3.org/Graphics/SVG/1.1/DTD/svg11.dtd">
<svg xmlns="http://www.w3.org/2000/svg" version="1.1" width="512px" height="512px" style="shape-rendering:geometricPrecision; text-rendering:geometricPrecision; image-rendering:optimizeQuality; fill-rule:evenodd; clip-rule:evenodd" xmlns:xlink="http://www.w3.org/1999/xlink">
<g><path style="opacity:0.954" fill="#7954bc" d="M 254.5,23.5 C 260.591,24.2146 265.924,26.5479 270.5,30.5C 270.5,36.8333 270.5,43.1667 270.5,49.5C 265.14,46.8201 259.807,44.1534 254.5,41.5C 254.5,35.5 254.5,29.5 254.5,23.5 Z"/></g>
<g><path style="opacity:0.969" fill="#6f5cc0" d="M 254.5,23.5 C 254.5,29.5 254.5,35.5 254.5,41.5C 247.698,45.7376 240.698,49.7376 233.5,53.5C 232.542,47.2564 232.209,40.923 232.5,34.5C 239.592,30.2873 246.925,26.6206 254.5,23.5 Z"/></g>
<g><path style="opacity:0.989" fill="#864ab6" d="M 270.5,30.5 C 282.164,36.3299 293.498,42.6632 304.5,49.5C 304.823,55.69 304.49,61.69 303.5,67.5C 292.332,61.7505 281.332,55.7505 270.5,49.5C 270.5,43.1667 270.5,36.8333 270.5,30.5 Z"/></g>
<g><path style="opacity:0.966" fill="#6364c5" d="M 232.5,34.5 C 232.209,40.923 232.542,47.2564 233.5,53.5C 225.792,58.3542 217.792,62.6875 209.5,66.5C 208.51,60.69 208.177,54.69 208.5,48.5C 216.136,43.3436 224.136,38.677 232.5,34.5 Z"/></g>
<g><path style="opacity:0.981" fill="#9241b1" d="M 304.5,49.5 C 309.09,51.4394 313.423,53.7728 317.5,56.5C 317.5,91.1667 317.5,125.833 317.5,160.5C 313.535,162.818 309.535,165.152 305.5,167.5C 304.854,154.788 305.52,142.455 307.5,130.5C 309.907,131.794 312.074,133.461 314,135.5C 314.667,118.5 314.667,101.5 314,84.5C 310.885,86.3068 307.719,87.9735 304.5,89.5C 304.5,83.1667 304.5,76.8333 304.5,70.5C 304.443,69.391 304.11,68.391 303.5,67.5C 304.49,61.69 304.823,55.69 304.5,49.5 Z"/></g>
<g><path style="opacity:0.934" fill="#5c69c8" d="M 208.5,48.5 C 208.177,54.69 208.51,60.69 209.5,66.5C 208.34,67.265 207.34,68.265 206.5,69.5C 211.898,72.8583 217.231,76.1916 222.5,79.5C 222.823,85.69 222.49,91.69 221.5,97.5C 213.235,93.7 205.235,89.3666 197.5,84.5C 196.509,88.4454 196.176,92.4454 196.5,96.5C 195.504,83.0102 195.171,69.3435 195.5,55.5C 199.577,52.7728 203.91,50.4394 208.5,48.5 Z"/></g>
<g><path style="opacity:0.979" fill="#566ecb" d="M 195.5,55.5 C 195.171,69.3435 195.504,83.0102 196.5,96.5C 196.333,109.504 196.5,122.504 197,135.5C 200.376,132.617 203.876,129.951 207.5,127.5C 208.201,134.067 208.868,140.733 209.5,147.5C 206.902,148.528 206.902,149.528 209.5,150.5C 208.795,156.399 208.128,162.399 207.5,168.5C 202.517,165.862 197.517,163.195 192.5,160.5C 189.482,162.526 186.482,164.526 183.5,166.5C 183.832,131.996 183.498,97.6626 182.5,63.5C 186.323,60.0843 190.657,57.4176 195.5,55.5 Z"/></g>
<g><path style="opacity:0.965" fill="#7756bc" d="M 268.5,66.5 C 268.207,73.2554 268.54,79.9221 269.5,86.5C 266.2,84.8921 262.867,83.2255 259.5,81.5C 249.335,83.5197 243.335,79.3531 241.5,69C 244.318,57.7544 251.318,54.0878 262.5,58C 265.395,60.3218 267.395,63.1552 268.5,66.5 Z"/></g>
<g><path style="opacity:0.998" fill="#973eaf" d="M 317.5,56.5 C 320.696,57.9287 323.696,59.5954 326.5,61.5C 325.502,95.996 325.168,130.663 325.5,165.5C 323.142,163.322 320.475,161.655 317.5,160.5C 317.5,125.833 317.5,91.1667 317.5,56.5 Z"/></g>
<g><path style="opacity:0.981" fill="#9b3bad" d="M 326.5,61.5 C 328.708,62.023 330.208,63.3563 331,65.5C 331.333,93.1667 331.667,120.833 332,148.5C 333.397,150.07 334.897,151.404 336.5,152.5C 336.5,159.5 336.5,166.5 336.5,173.5C 332.833,170.833 329.167,168.167 325.5,165.5C 325.168,130.663 325.502,95.996 326.5,61.5 Z"/></g>
<g><path style="opacity:0.939" fill="#4f73cd" d="M 182.5,63.5 C 183.498,97.6626 183.832,131.996 183.5,166.5C 178.872,170.156 174.206,173.822 169.5,177.5C 169.5,170.5 169.5,163.5 169.5,156.5C 172.476,153.698 175.642,151.031 179,148.5C 179.333,121.167 179.667,93.8333 180,66.5C 180.377,65.0577 181.21,64.0577 182.5,63.5 Z"/></g>
<g><path style="opacity:0.967" fill="#8949b5" d="M 304.5,70.5 C 304.5,76.8333 304.5,83.1667 304.5,89.5C 297.698,93.7376 290.698,97.7376 283.5,101.5C 282.529,92.5839 282.196,83.5839 282.5,74.5C 284.816,75.8056 287.15,77.1389 289.5,78.5C 294.395,75.5536 299.395,72.8869 304.5,70.5 Z"/></g>
<g><path style="opacity:0.959" fill="#6860c3" d="M 222.5,79.5 C 227.15,81.8039 231.817,84.1373 236.5,86.5C 236.823,93.0221 236.49,99.3554 235.5,105.5C 230.5,103.336 225.833,100.669 221.5,97.5C 222.49,91.69 222.823,85.69 222.5,79.5 Z"/></g>
<g><path style="opacity:0.991" fill="#715abf" d="M 236.5,86.5 C 242.536,90.181 248.536,93.8477 254.5,97.5C 254.5,129.5 254.5,161.5 254.5,193.5C 246.72,190.718 239.387,187.052 232.5,182.5C 232.209,176.077 232.542,169.744 233.5,163.5C 237.966,165.566 242.299,167.9 246.5,170.5C 247.666,151.175 247.833,131.842 247,112.5C 243.186,110.016 239.353,107.682 235.5,105.5C 236.49,99.3554 236.823,93.0221 236.5,86.5 Z"/></g>
<g><path style="opacity:0.989" fill="#7b53bb" d="M 268.5,66.5 C 273.167,69.1667 277.833,71.8333 282.5,74.5C 282.196,83.5839 282.529,92.5839 283.5,101.5C 276.946,105.028 270.446,108.695 264,112.5C 263.167,131.842 263.334,151.175 264.5,170.5C 269.368,167.566 274.368,164.9 279.5,162.5C 280.5,162.5 281.5,162.5 282.5,162.5C 282.5,168.5 282.5,174.5 282.5,180.5C 273.652,185.424 264.652,190.091 255.5,194.5C 254.893,194.376 254.56,194.043 254.5,193.5C 254.5,161.5 254.5,129.5 254.5,97.5C 260.435,94.8645 266.102,91.6978 271.5,88C 270.584,87.7216 269.918,87.2216 269.5,86.5C 268.54,79.9221 268.207,73.2554 268.5,66.5 Z"/></g>
<g><path style="opacity:0.972" fill="#6264c6" d="M 209.5,147.5 C 208.868,140.733 208.201,134.067 207.5,127.5C 211.441,123.558 216.108,120.891 221.5,119.5C 227.203,119.369 230.203,122.202 230.5,128C 229.679,130.643 228.346,132.976 226.5,135C 220.804,139.176 215.137,143.343 209.5,147.5 Z"/></g>
<g><path style="opacity:0.965" fill="#8b48b5" d="M 307.5,130.5 C 305.52,142.455 304.854,154.788 305.5,167.5C 297.671,171.58 290.004,175.913 282.5,180.5C 282.5,174.5 282.5,168.5 282.5,162.5C 281.5,162.5 280.5,162.5 279.5,162.5C 287.276,157.774 295.276,153.274 303.5,149C 296.577,143.955 289.744,138.788 283,133.5C 279.649,128.222 280.482,123.722 285.5,120C 288.167,119.333 290.833,119.333 293.5,120C 298.35,123.363 303.017,126.863 307.5,130.5 Z"/></g>
<g><path style="opacity:0.958" fill="#6563c4" d="M 209.5,150.5 C 217.792,154.312 225.792,158.646 233.5,163.5C 232.542,169.744 232.209,176.077 232.5,182.5C 224.005,178.087 215.672,173.42 207.5,168.5C 208.128,162.399 208.795,156.399 209.5,150.5 Z"/></g>
<g><path style="opacity:0.964" fill="#a435aa" d="M 336.5,152.5 C 342.475,156.481 348.142,160.814 353.5,165.5C 353.5,172.5 353.5,179.5 353.5,186.5C 347.615,182.398 341.948,178.064 336.5,173.5C 336.5,166.5 336.5,159.5 336.5,152.5 Z"/></g>
<g><path style="opacity:0.968" fill="#ac2ea6" d="M 353.5,165.5 C 358.413,168.118 362.746,171.452 366.5,175.5C 366.5,188.5 366.5,201.5 366.5,214.5C 365.235,215.479 363.901,216.479 362.5,217.5C 362.667,217.833 362.833,218.167 363,218.5C 369.337,222.03 375.503,225.697 381.5,229.5C 380.51,235.31 380.177,241.31 380.5,247.5C 371.24,242.893 362.24,237.893 353.5,232.5C 353.827,222.652 353.494,212.986 352.5,203.5C 356.443,200.522 360.777,198.022 365.5,196C 361.625,192.619 357.625,189.453 353.5,186.5C 353.5,179.5 353.5,172.5 353.5,165.5 Z"/></g>
<g><path style="opacity:0.979" fill="#437cd2" d="M 169.5,156.5 C 169.5,163.5 169.5,170.5 169.5,177.5C 162.447,183.22 155.113,188.553 147.5,193.5C 147.824,186.646 147.491,179.979 146.5,173.5C 153.861,167.479 161.528,161.813 169.5,156.5 Z"/></g>
<g><path style="opacity:0.978" fill="#3a83d6" d="M 146.5,173.5 C 147.491,179.979 147.824,186.646 147.5,193.5C 146.167,194.833 146.167,196.167 147.5,197.5C 147.823,203.69 147.49,209.69 146.5,215.5C 137.24,210.893 128.24,205.893 119.5,200.5C 120.167,194.5 120.833,188.5 121.5,182.5C 124.052,183.693 126.552,185.027 129,186.5C 134.711,181.949 140.544,177.616 146.5,173.5 Z"/></g>
<g><path style="opacity:0.961" fill="#c0209e" d="M 417.5,173.5 C 417.19,174.738 416.69,174.738 416,173.5C 415.501,179.491 415.334,185.491 415.5,191.5C 414.279,190.972 413.113,190.305 412,189.5C 405.554,193.305 399.054,196.972 392.5,200.5C 392.5,194.167 392.5,187.833 392.5,181.5C 397.605,178.108 402.938,174.941 408.5,172C 411.817,171.219 414.817,171.719 417.5,173.5 Z"/></g>
<g><path style="opacity:0.977" fill="#2d8ddc" d="M 98.5,171.5 C 106.799,173.816 114.465,177.482 121.5,182.5C 120.833,188.5 120.167,194.5 119.5,200.5C 112.369,197.101 105.369,193.434 98.5,189.5C 97.1943,183.599 97.1943,177.599 98.5,171.5 Z"/></g>
<g><path style="opacity:0.967" fill="#1e98e2" d="M 98.5,171.5 C 97.1943,177.599 97.1943,183.599 98.5,189.5C 94.0635,192.559 89.3968,195.392 84.5,198C 85.4158,198.278 86.0825,198.778 86.5,199.5C 85.5602,205.955 85.2269,212.289 85.5,218.5C 80.2909,216.281 75.6243,213.281 71.5,209.5C 71.1995,201.414 71.5328,193.414 72.5,185.5C 80.5644,179.8 89.231,175.133 98.5,171.5 Z"/></g>
<g><path style="opacity:0.97" fill="#b329a3" d="M 366.5,175.5 C 371.797,179.116 377.131,182.782 382.5,186.5C 385.577,184.295 388.91,182.628 392.5,181.5C 392.5,187.833 392.5,194.167 392.5,200.5C 383.806,205.179 375.14,209.846 366.5,214.5C 366.5,201.5 366.5,188.5 366.5,175.5 Z"/></g>
<g><path style="opacity:0.954" fill="#cf1598" d="M 417.5,173.5 C 425.5,177.833 433.5,182.167 441.5,186.5C 441.823,193.022 441.49,199.355 440.5,205.5C 431.97,201.071 423.637,196.405 415.5,191.5C 415.334,185.491 415.501,179.491 416,173.5C 416.69,174.738 417.19,174.738 417.5,173.5 Z"/></g>
<g><path style="opacity:0.969" fill="#db0c93" d="M 441.5,186.5 C 449.004,191.087 456.671,195.42 464.5,199.5C 464.5,211.5 464.5,223.5 464.5,235.5C 455.869,240.485 447.202,245.485 438.5,250.5C 438.5,241.833 438.5,233.167 438.5,224.5C 440.426,225.242 442.259,226.242 444,227.5C 449.833,224.333 455.667,221.167 461.5,218C 454.437,213.807 447.437,209.641 440.5,205.5C 441.49,199.355 441.823,193.022 441.5,186.5 Z"/></g>
<g><path style="opacity:0.979" fill="#0ea4e9" d="M 72.5,185.5 C 71.5328,193.414 71.1995,201.414 71.5,209.5C 69.8297,209.249 68.3297,208.582 67,207.5C 61.0838,210.874 55.2505,214.374 49.5,218C 53.0211,219.592 56.3544,221.425 59.5,223.5C 59.5,229.833 59.5,236.167 59.5,242.5C 53.0624,239.447 46.7291,236.114 40.5,232.5C 39.3336,251.825 39.167,271.158 40,290.5C 45.0848,293.626 50.2514,296.626 55.5,299.5C 56.6623,294.533 56.8289,289.533 56,284.5C 51.1827,278.368 51.3493,272.368 56.5,266.5C 57.6223,265.37 58.9557,264.703 60.5,264.5C 60.1827,283.121 59.1827,301.455 57.5,319.5C 50.5044,316.337 43.8377,312.671 37.5,308.5C 38.4984,274.004 38.8317,239.337 38.5,204.5C 49.5025,197.663 60.8358,191.33 72.5,185.5 Z"/></g>
<g><path style="opacity:0.992" fill="#a534a9" d="M 352.5,203.5 C 353.494,212.986 353.827,222.652 353.5,232.5C 352.167,249.833 352.167,267.167 353.5,284.5C 353.5,293.167 353.5,301.833 353.5,310.5C 351.863,309.782 350.197,309.616 348.5,310C 346.34,311.332 344.34,312.832 342.5,314.5C 342.271,279.994 342.605,244.661 343.5,208.5C 346.24,206.44 349.24,204.774 352.5,203.5 Z"/></g>
<g><path style="opacity:0.968" fill="#2691de" d="M 86.5,199.5 C 89.7229,201.364 92.8896,203.364 96,205.5C 109.572,203.92 114.905,209.92 112,223.5C 107.096,230.506 100.596,232.339 92.5,229C 88.7992,226.372 86.4659,222.872 85.5,218.5C 85.2269,212.289 85.5602,205.955 86.5,199.5 Z"/></g>
<g><path style="opacity:0.992" fill="#467ad1" d="M 147.5,197.5 C 155.161,200.995 162.495,204.995 169.5,209.5C 169.5,243.5 169.5,277.5 169.5,311.5C 167.511,310.519 165.511,309.519 163.5,308.5C 161.004,309.251 158.67,310.251 156.5,311.5C 155.506,301.681 155.173,291.681 155.5,281.5C 156.496,281.414 157.329,281.748 158,282.5C 158.667,265.833 158.667,249.167 158,232.5C 154.391,234.385 150.891,236.385 147.5,238.5C 147.5,231.833 147.5,225.167 147.5,218.5C 148.043,218.44 148.376,218.107 148.5,217.5C 147.757,216.818 147.091,216.151 146.5,215.5C 147.49,209.69 147.823,203.69 147.5,197.5 Z"/></g>
<g><path style="opacity:0.995" fill="#05a9ec" d="M 38.5,204.5 C 38.8317,239.337 38.4984,274.004 37.5,308.5C 34.6689,307.921 32.3356,306.588 30.5,304.5C 30.5,272.5 30.5,240.5 30.5,208.5C 32.8831,206.642 35.5498,205.308 38.5,204.5 Z"/></g>
<g><path style="opacity:0.996" fill="#e5058e" d="M 473.5,204.5 C 475.332,205.248 476.999,206.248 478.5,207.5C 478.5,240.5 478.5,273.5 478.5,306.5C 474.334,309.084 470,311.417 465.5,313.5C 464.833,307.5 464.167,301.5 463.5,295.5C 466.021,293.981 468.521,292.314 471,290.5C 471.499,284.509 471.666,278.509 471.5,272.5C 470.86,249.603 471.527,226.936 473.5,204.5 Z"/></g>
<g><path style="opacity:0.931" fill="#e9018d" d="M 478.5,207.5 C 483.137,208.971 486.303,211.971 488,216.5C 488.667,243.833 488.667,271.167 488,298.5C 485.915,302.416 482.748,305.083 478.5,306.5C 478.5,273.5 478.5,240.5 478.5,207.5 Z"/></g>
<g><path style="opacity:0.97" fill="#02acee" d="M 30.5,208.5 C 30.5,240.5 30.5,272.5 30.5,304.5C 27.3252,304.16 25.1585,302.493 24,299.5C 23.3333,270.833 23.3333,242.167 24,213.5C 25.7581,211.235 27.9248,209.568 30.5,208.5 Z"/></g>
<g><path style="opacity:0.989" fill="#a037ab" d="M 343.5,208.5 C 342.605,244.661 342.271,279.994 342.5,314.5C 339.01,317.411 335.344,320.078 331.5,322.5C 331.5,315.5 331.5,308.5 331.5,301.5C 332.145,300.188 333.145,299.188 334.5,298.5C 335.333,270.506 335.833,242.506 336,214.5C 337.48,211.183 339.98,209.183 343.5,208.5 Z"/></g>
<g><path style="opacity:0.923" fill="#4d75ce" d="M 169.5,209.5 C 172.091,210.254 173.924,211.921 175,214.5C 175.333,241.5 175.667,268.5 176,295.5C 180.175,298.158 184.008,301.158 187.5,304.5C 187.823,311.022 187.49,317.355 186.5,323.5C 180.299,320.235 174.632,316.235 169.5,311.5C 169.5,277.5 169.5,243.5 169.5,209.5 Z"/></g>
<g><path style="opacity:0.961" fill="#3785d8" d="M 147.5,218.5 C 147.5,225.167 147.5,231.833 147.5,238.5C 138.661,243.754 129.661,248.754 120.5,253.5C 120.5,247.167 120.5,240.833 120.5,234.5C 129.299,228.93 138.299,223.596 147.5,218.5 Z"/></g>
<g><path style="opacity:0.954" fill="#1a9be4" d="M 59.5,223.5 C 69.1128,228.469 78.4462,233.803 87.5,239.5C 85.5467,245.074 84.88,251.074 85.5,257.5C 76.4712,252.99 67.8045,247.99 59.5,242.5C 59.5,236.167 59.5,229.833 59.5,223.5 Z"/></g>
<g><path style="opacity:0.957" fill="#2c8ddc" d="M 120.5,234.5 C 120.5,240.833 120.5,247.167 120.5,253.5C 116.441,255.948 112.275,258.281 108,260.5C 107.333,280.167 107.333,299.833 108,319.5C 111.979,316.762 116.145,314.429 120.5,312.5C 120.5,318.833 120.5,325.167 120.5,331.5C 116.113,334.531 111.446,337.197 106.5,339.5C 104.507,307.851 103.841,275.851 104.5,243.5C 109.316,239.707 114.65,236.707 120.5,234.5 Z"/></g>
<g><path style="opacity:0.986" fill="#cb1899" d="M 438.5,224.5 C 438.5,233.167 438.5,241.833 438.5,250.5C 432.613,253.695 426.779,257.028 421,260.5C 420.167,279.842 420.334,299.175 421.5,318.5C 428.69,314.741 435.69,310.741 442.5,306.5C 441.877,313.255 442.544,319.588 444.5,325.5C 435.002,331.084 425.335,336.417 415.5,341.5C 415.5,308.833 415.5,276.167 415.5,243.5C 419.139,241.345 422.806,239.178 426.5,237C 421.11,232.14 414.777,229.806 407.5,230C 400.262,226.345 397.762,220.512 400,212.5C 404.707,204.376 411.207,202.543 419.5,207C 421.996,209.656 423.996,212.656 425.5,216C 430.24,218.36 434.574,221.193 438.5,224.5 Z"/></g>
<g><path style="opacity:0.993" fill="#2393e0" d="M 87.5,239.5 C 91.3346,241.25 95.0012,243.25 98.5,245.5C 97.8333,277.5 97.1667,309.5 96.5,341.5C 92.6654,339.75 88.9988,337.75 85.5,335.5C 85.5,329.167 85.5,322.833 85.5,316.5C 86.8068,317.153 88.1401,317.82 89.5,318.5C 90.6664,299.175 90.833,279.842 90,260.5C 88.3853,259.614 86.8853,258.614 85.5,257.5C 84.88,251.074 85.5467,245.074 87.5,239.5 Z"/></g>
<g><path style="opacity:0.974" fill="#c11f9d" d="M 381.5,229.5 C 391.764,234.299 401.764,239.632 411.5,245.5C 412.86,244.82 414.193,244.153 415.5,243.5C 415.5,276.167 415.5,308.833 415.5,341.5C 412.492,342.741 409.492,342.574 406.5,341C 398.635,336.235 390.635,331.735 382.5,327.5C 382.177,320.978 382.51,314.645 383.5,308.5C 390.111,311.939 396.611,315.605 403,319.5C 403.833,299.825 403.666,280.158 402.5,260.5C 395.103,256.14 387.77,251.807 380.5,247.5C 380.177,241.31 380.51,235.31 381.5,229.5 Z"/></g>
<g><path style="opacity:0.992" fill="#2791de" d="M 104.5,243.5 C 103.841,275.851 104.507,307.851 106.5,339.5C 103.444,342.086 100.111,342.753 96.5,341.5C 97.1667,309.5 97.8333,277.5 98.5,245.5C 100.5,244.833 102.5,244.167 104.5,243.5 Z"/></g>
<g><path style="opacity:0.96" fill="#e10791" d="M 464.5,199.5 C 467.661,200.913 470.661,202.58 473.5,204.5C 471.527,226.936 470.86,249.603 471.5,272.5C 467.402,274.048 463.402,275.881 459.5,278C 457.841,280.844 455.841,283.344 453.5,285.5C 453.5,277.833 453.5,270.167 453.5,262.5C 458.447,259.021 463.78,256.021 469.5,253.5C 470.664,246.524 470.831,239.524 470,232.5C 468.259,233.758 466.426,234.758 464.5,235.5C 464.5,223.5 464.5,211.5 464.5,199.5 Z"/></g>
<g><path style="opacity:0.99" fill="#179de5" d="M 85.5,316.5 C 85.5,322.833 85.5,329.167 85.5,335.5C 75.8331,330.669 66.4998,325.336 57.5,319.5C 59.1827,301.455 60.1827,283.121 60.5,264.5C 70.7,261.508 76.7,265.341 78.5,276C 78.2117,279.743 76.7117,282.91 74,285.5C 73.3333,293.5 73.3333,301.5 74,309.5C 77.8137,311.984 81.6471,314.318 85.5,316.5 Z"/></g>
<g><path style="opacity:0.892" fill="#d41195" d="M 453.5,262.5 C 453.5,270.167 453.5,277.833 453.5,285.5C 452.942,286.79 451.942,287.623 450.5,288C 437.848,289.681 432.015,284.181 433,271.5C 435.11,265.691 439.276,262.691 445.5,262.5C 448.21,263.639 450.876,263.639 453.5,262.5 Z"/></g>
<g><path style="opacity:0.979" fill="#af2da5" d="M 383.5,308.5 C 382.51,314.645 382.177,320.978 382.5,327.5C 372.633,322.071 362.967,316.404 353.5,310.5C 353.5,301.833 353.5,293.167 353.5,284.5C 359.977,278.864 366.644,273.364 373.5,268C 383.876,266.279 387.709,270.446 385,280.5C 378.258,286.12 371.425,291.62 364.5,297C 370.897,300.859 377.23,304.692 383.5,308.5 Z"/></g>
<g><path style="opacity:0.968" fill="#3d81d5" d="M 155.5,281.5 C 155.173,291.681 155.506,301.681 156.5,311.5C 150.162,315.671 143.496,319.337 136.5,322.5C 136.334,316.491 136.501,310.491 137,304.5C 137.717,303.956 138.217,303.289 138.5,302.5C 141.328,300.53 144.328,298.697 147.5,297C 140.423,291.379 133.257,285.879 126,280.5C 123.159,270.338 126.992,266.172 137.5,268C 143.747,272.277 149.747,276.777 155.5,281.5 Z"/></g>
<g><path style="opacity:0.967" fill="#d90d93" d="M 463.5,295.5 C 464.167,301.5 464.833,307.5 465.5,313.5C 458.698,317.738 451.698,321.738 444.5,325.5C 442.544,319.588 441.877,313.255 442.5,306.5C 449.369,302.566 456.369,298.899 463.5,295.5 Z"/></g>
<g><path style="opacity:0.968" fill="#3586d8" d="M 138.5,302.5 C 138.217,303.289 137.717,303.956 137,304.5C 136.501,310.491 136.334,316.491 136.5,322.5C 131.498,326.003 126.165,329.003 120.5,331.5C 120.5,325.167 120.5,318.833 120.5,312.5C 126.17,308.663 132.17,305.33 138.5,302.5 Z"/></g>
<g><path style="opacity:0.972" fill="#993daf" d="M 331.5,301.5 C 331.5,308.5 331.5,315.5 331.5,322.5C 327.746,326.548 323.413,329.882 318.5,332.5C 317.672,326.347 317.172,320.013 317,313.5C 316.31,314.738 315.81,314.738 315.5,313.5C 320.527,309.147 325.86,305.147 331.5,301.5 Z"/></g>
<g><path style="opacity:0.951" fill="#586cca" d="M 187.5,304.5 C 193.701,307.765 199.368,311.765 204.5,316.5C 203.833,322.833 203.167,329.167 202.5,335.5C 196.86,331.853 191.527,327.853 186.5,323.5C 187.49,317.355 187.823,311.022 187.5,304.5 Z"/></g>
<g><path style="opacity:0.957" fill="#7b52bb" d="M 254.5,317.5 C 256.199,317.34 257.866,317.506 259.5,318C 267.194,322.179 274.86,326.346 282.5,330.5C 282.823,337.022 282.49,343.355 281.5,349.5C 272.657,344.578 263.657,339.912 254.5,335.5C 254.5,329.5 254.5,323.5 254.5,317.5 Z"/></g>
<g><path style="opacity:0.977" fill="#6165c6" d="M 204.5,316.5 C 211.798,321.449 219.131,326.449 226.5,331.5C 228.527,330.487 230.527,329.487 232.5,328.5C 232.5,334.833 232.5,341.167 232.5,347.5C 225.328,352.589 217.661,356.923 209.5,360.5C 208.51,354.69 208.177,348.69 208.5,342.5C 208.611,341.883 208.944,341.383 209.5,341C 207.097,339.147 204.764,337.314 202.5,335.5C 203.167,329.167 203.833,322.833 204.5,316.5 Z"/></g>
<g><path style="opacity:0.983" fill="#8b47b5" d="M 303.5,323.5 C 303.971,336.265 303.971,348.931 303.5,361.5C 295.839,358.005 288.505,354.005 281.5,349.5C 282.49,343.355 282.823,337.022 282.5,330.5C 284.723,332.779 287.389,333.612 290.5,333C 294.449,329.204 298.783,326.037 303.5,323.5 Z"/></g>
<g><path style="opacity:0.966" fill="#6f5cc0" d="M 254.5,317.5 C 254.5,323.5 254.5,329.5 254.5,335.5C 247.495,340.005 240.161,344.005 232.5,347.5C 232.5,341.167 232.5,334.833 232.5,328.5C 239.592,324.287 246.925,320.621 254.5,317.5 Z"/></g>
<g><path style="opacity:0.975" fill="#9143b2" d="M 315.5,313.5 C 315.81,314.738 316.31,314.738 317,313.5C 317.172,320.013 317.672,326.347 318.5,332.5C 314.603,336.46 310.269,339.96 305.5,343C 309.407,345.759 313.407,348.259 317.5,350.5C 316.84,385.183 317.507,419.516 319.5,453.5C 311.363,458.405 303.03,463.071 294.5,467.5C 293.193,461.266 293.193,454.932 294.5,448.5C 300.828,444.363 307.328,440.363 314,436.5C 314.667,430.167 314.667,423.833 314,417.5C 310.391,419.385 306.891,421.385 303.5,423.5C 304.798,416.803 304.798,410.136 303.5,403.5C 307.217,401.891 310.717,399.891 314,397.5C 314.667,391.167 314.667,384.833 314,378.5C 307.351,382.573 300.518,386.24 293.5,389.5C 294.12,383.074 293.453,377.074 291.5,371.5C 295.437,369.193 299.437,366.86 303.5,364.5C 304.562,363.575 304.562,362.575 303.5,361.5C 303.971,348.931 303.971,336.265 303.5,323.5C 307.183,319.82 311.183,316.486 315.5,313.5 Z"/></g>
<g><path style="opacity:0.872" fill="#5a6bc9" d="M 208.5,342.5 C 208.177,348.69 208.51,354.69 209.5,360.5C 206.305,361.829 205.972,363.495 208.5,365.5C 209.12,371.926 208.453,377.926 206.5,383.5C 203.281,381.973 200.115,380.307 197,378.5C 196.333,397.833 196.333,417.167 197,436.5C 201.316,439.066 205.483,441.733 209.5,444.5C 208.795,450.399 208.128,456.399 207.5,462.5C 202.963,460.07 198.63,457.403 194.5,454.5C 195.498,419.671 195.832,384.671 195.5,349.5C 199.666,346.916 204,344.583 208.5,342.5 Z"/></g>
<g><path style="opacity:0.994" fill="#556ecb" d="M 195.5,349.5 C 195.832,384.671 195.498,419.671 194.5,454.5C 191.515,453.674 188.849,452.341 186.5,450.5C 187.833,418.5 187.833,386.5 186.5,354.5C 189.304,352.595 192.304,350.929 195.5,349.5 Z"/></g>
<g><path style="opacity:0.967" fill="#7755bd" d="M 270.5,363.5 C 270.5,369.833 270.5,376.167 270.5,382.5C 266.306,380.817 262.473,378.484 259,375.5C 249.109,377.302 243.276,373.135 241.5,363C 244.318,351.754 251.318,348.088 262.5,352C 265.803,355.461 268.47,359.294 270.5,363.5 Z"/></g>
<g><path style="opacity:0.996" fill="#973eaf" d="M 317.5,350.5 C 320.14,351.82 322.807,353.153 325.5,354.5C 325.5,386.5 325.5,418.5 325.5,450.5C 323.5,451.5 321.5,452.5 319.5,453.5C 317.507,419.516 316.84,385.183 317.5,350.5 Z"/></g>
<g><path style="opacity:0.987" fill="#9a3cad" d="M 325.5,354.5 C 329.282,355.788 331.449,358.455 332,362.5C 332.667,389.167 332.667,415.833 332,442.5C 331.449,446.545 329.282,449.212 325.5,450.5C 325.5,418.5 325.5,386.5 325.5,354.5 Z"/></g>
<g><path style="opacity:0.98" fill="#5172cd" d="M 186.5,354.5 C 187.833,386.5 187.833,418.5 186.5,450.5C 183.551,449.386 181.385,447.386 180,444.5C 179.333,416.5 179.333,388.5 180,360.5C 181.385,357.614 183.551,355.614 186.5,354.5 Z"/></g>
<g><path style="opacity:0.973" fill="#814eb8" d="M 270.5,363.5 C 276.276,366.558 281.943,369.891 287.5,373.5C 288.86,372.82 290.193,372.153 291.5,371.5C 293.453,377.074 294.12,383.074 293.5,389.5C 285.336,394.417 277.003,399.083 268.5,403.5C 269.12,397.074 268.453,391.074 266.5,385.5C 267.833,384.5 269.167,383.5 270.5,382.5C 270.5,376.167 270.5,369.833 270.5,363.5 Z"/></g>
<g><path style="opacity:0.96" fill="#6563c4" d="M 208.5,365.5 C 217.003,369.917 225.336,374.583 233.5,379.5C 232.51,385.31 232.177,391.31 232.5,397.5C 223.507,393.338 214.84,388.672 206.5,383.5C 208.453,377.926 209.12,371.926 208.5,365.5 Z"/></g>
<g><path style="opacity:0.988" fill="#715abf" d="M 233.5,379.5 C 240.996,382.745 247.996,386.745 254.5,391.5C 254.5,423.5 254.5,455.5 254.5,487.5C 246.396,484.282 238.729,480.282 231.5,475.5C 232.205,469.601 232.872,463.601 233.5,457.5C 237.966,459.566 242.299,461.9 246.5,464.5C 247.666,445.175 247.833,425.842 247,406.5C 242.019,403.6 237.185,400.6 232.5,397.5C 232.177,391.31 232.51,385.31 233.5,379.5 Z"/></g>
<g><path style="opacity:0.989" fill="#7855bc" d="M 266.5,385.5 C 268.453,391.074 269.12,397.074 268.5,403.5C 267.152,404.601 265.652,405.601 264,406.5C 263.167,425.842 263.334,445.175 264.5,464.5C 266.527,463.487 268.527,462.487 270.5,461.5C 270.5,467.833 270.5,474.167 270.5,480.5C 265.924,484.452 260.591,486.785 254.5,487.5C 254.5,455.5 254.5,423.5 254.5,391.5C 258.473,389.513 262.473,387.513 266.5,385.5 Z"/></g>
<g><path style="opacity:0.975" fill="#8949b5" d="M 303.5,403.5 C 304.798,410.136 304.798,416.803 303.5,423.5C 299.554,433.103 292.554,436.27 282.5,433C 275.72,426.889 274.72,419.889 279.5,412C 284.334,409.003 289.667,407.67 295.5,408C 298.356,406.741 301.023,405.241 303.5,403.5 Z"/></g>
<g><path style="opacity:0.975" fill="#6165c5" d="M 222.5,408.5 C 222.5,429.167 222.5,449.833 222.5,470.5C 217.341,468.088 212.341,465.421 207.5,462.5C 208.128,456.399 208.795,450.399 209.5,444.5C 210.583,444.539 211.583,444.873 212.5,445.5C 213.662,440.869 213.828,436.202 213,431.5C 207.233,424.801 207.067,417.968 212.5,411C 215.79,408.842 219.124,408.009 222.5,408.5 Z"/></g>
<g><path style="opacity:0.984" fill="#6761c3" d="M 222.5,408.5 C 232.224,409.902 236.057,415.569 234,425.5C 230.969,430.848 229.803,436.682 230.5,443C 230.667,447.167 230.833,451.333 231,455.5C 231.708,456.381 232.542,457.047 233.5,457.5C 232.872,463.601 232.205,469.601 231.5,475.5C 228.331,474.083 225.331,472.417 222.5,470.5C 222.5,449.833 222.5,429.167 222.5,408.5 Z"/></g>
<g><path style="opacity:0.958" fill="#824db8" d="M 294.5,448.5 C 293.193,454.932 293.193,461.266 294.5,467.5C 286.827,472.338 278.827,476.672 270.5,480.5C 270.5,474.167 270.5,467.833 270.5,461.5C 278.173,456.662 286.173,452.328 294.5,448.5 Z"/></g>
</svg>
