<?xml version="1.0" encoding="UTF-8"?>
<!DOCTYPE svg PUBLIC "-//W3C//DTD SVG 1.1//EN" "http://www.w3.org/Graphics/SVG/1.1/DTD/svg11.dtd">
<svg xmlns="http://www.w3.org/2000/svg" version="1.1" width="149px" height="148px" style="shape-rendering:geometricPrecision; text-rendering:geometricPrecision; image-rendering:optimizeQuality; fill-rule:evenodd; clip-rule:evenodd" xmlns:xlink="http://www.w3.org/1999/xlink">
<g><path style="opacity:1" fill="#fcfcfc" d="M -0.5,-0.5 C 49.1667,-0.5 98.8333,-0.5 148.5,-0.5C 148.5,43.8333 148.5,88.1667 148.5,132.5C 98.8333,132.5 49.1667,132.5 -0.5,132.5C -0.5,88.1667 -0.5,43.8333 -0.5,-0.5 Z"/></g>
<g><path style="opacity:1" fill="#171919" d="M 113.5,40.5 C 112.522,40.811 111.855,41.4777 111.5,42.5C 115.247,47.112 114.913,51.612 110.5,56C 108.866,56.4935 107.199,56.6602 105.5,56.5C 105.66,58.1992 105.494,59.8659 105,61.5C 102.306,63.681 99.3065,65.3476 96,66.5C 94.0374,65.3746 92.204,64.0413 90.5,62.5C 89.4081,64.5958 87.7414,65.9292 85.5,66.5C 79.264,65.9165 76.264,62.5831 76.5,56.5C 74.4727,56.6621 72.4727,56.4955 70.5,56C 66.7817,51.3537 66.7817,46.8537 70.5,42.5C 66.6896,37.9441 66.6896,33.2775 70.5,28.5C 72.5,28.5 74.5,28.5 76.5,28.5C 76.3379,26.4727 76.5045,24.4727 77,22.5C 79.6419,20.7624 82.4753,19.4291 85.5,18.5C 87.7414,19.0708 89.4081,20.4042 90.5,22.5C 95.4181,17.6328 100.251,17.9661 105,23.5C 105.494,25.1341 105.66,26.8008 105.5,28.5C 111.173,28.2567 114.173,31.09 114.5,37C 114.352,38.2559 114.018,39.4226 113.5,40.5 Z"/></g>
<g><path style="opacity:1" fill="#f3f3f3" d="M 83.5,21.5 C 86.0903,22.2524 88.5903,23.2524 91,24.5C 93.1704,24.3277 94.8371,23.3277 96,21.5C 98.0466,22.6094 100.213,23.2761 102.5,23.5C 101.5,29.8333 104.167,32.5 110.5,31.5C 110.62,33.1986 110.954,34.8653 111.5,36.5C 110.5,38.5 109.5,40.5 108.5,42.5C 109.277,44.4466 110.277,46.2799 111.5,48C 110.976,50.4133 109.976,52.5799 108.5,54.5C 106.356,53.0465 104.523,53.3799 103,55.5C 102.505,57.4727 102.338,59.4727 102.5,61.5C 100.213,61.7239 98.0466,62.3906 96,63.5C 94.8371,61.6723 93.1704,60.6723 91,60.5C 88.6169,61.9315 86.1169,62.7649 83.5,63C 80.352,61.6199 78.852,59.1199 79,55.5C 76.7572,54.0292 74.2572,53.0292 71.5,52.5C 70.0706,50.6687 69.5706,48.6687 70,46.5C 72.048,45.9021 73.2147,44.5688 73.5,42.5C 72.7139,40.4287 71.3806,38.762 69.5,37.5C 70.0395,32.8056 72.7062,30.6389 77.5,31C 78.9708,28.7572 79.9708,26.2572 80.5,23.5C 81.7387,23.0576 82.7387,22.3909 83.5,21.5 Z"/></g>
<g><path style="opacity:1" fill="#67def8" d="M 70.5,28.5 C 66.6896,33.2775 66.6896,37.9441 70.5,42.5C 66.7817,46.8537 66.7817,51.3537 70.5,56C 72.4727,56.4955 74.4727,56.6621 76.5,56.5C 76.264,62.5831 79.264,65.9165 85.5,66.5C 87.7414,65.9292 89.4081,64.5958 90.5,62.5C 92.204,64.0413 94.0374,65.3746 96,66.5C 99.3065,65.3476 102.306,63.681 105,61.5C 105.494,59.8659 105.66,58.1992 105.5,56.5C 107.199,56.6602 108.866,56.4935 110.5,56C 114.913,51.612 115.247,47.112 111.5,42.5C 111.855,41.4777 112.522,40.811 113.5,40.5C 115.42,43.3388 117.087,46.3388 118.5,49.5C 119.493,54.1518 120.493,58.8185 121.5,63.5C 136.557,72.646 140.39,85.3127 133,101.5C 126.776,110.013 118.61,115.013 108.5,116.5C 104.069,116.769 99.7352,116.436 95.5,115.5C 95.8174,112.428 95.4841,109.428 94.5,106.5C 93.503,113.468 93.1697,120.468 93.5,127.5C 92.5184,124.038 92.185,120.371 92.5,116.5C 90.5,116.5 88.5,116.5 86.5,116.5C 87.1542,106.557 82.6542,103.224 73,106.5C 72.5017,109.817 72.335,113.15 72.5,116.5C 69.8333,116.5 67.1667,116.5 64.5,116.5C 65.8068,106.988 61.8068,103.821 52.5,107C 49.8144,109.546 48.8144,112.713 49.5,116.5C 46.1667,116.5 42.8333,116.5 39.5,116.5C 30.8604,115.091 23.3604,111.091 17,104.5C 6.53265,85.9533 10.6993,71.7867 29.5,62C 34.4342,60.8399 39.4342,60.3399 44.5,60.5C 45.0847,55.5781 46.5847,50.9114 49,46.5C 53.4163,41.2594 57.9163,36.2594 62.5,31.5C 64.9535,29.9402 67.6202,28.9402 70.5,28.5 Z"/></g>
<g><path style="opacity:1" fill="#151717" d="M 62.5,31.5 C 57.9163,36.2594 53.4163,41.2594 49,46.5C 46.5847,50.9114 45.0847,55.5781 44.5,60.5C 39.4342,60.3399 34.4342,60.8399 29.5,62C 10.6993,71.7867 6.53265,85.9533 17,104.5C 23.3604,111.091 30.8604,115.091 39.5,116.5C 30.3609,117.565 22.5275,114.565 16,107.5C 4.55207,91.0504 6.3854,76.2171 21.5,63C 27.6297,59.2583 34.2964,57.5917 41.5,58C 44.2045,48.5964 49.2045,40.5964 56.5,34C 58.2166,32.4412 60.2166,31.6079 62.5,31.5 Z"/></g>
<g><path style="opacity:1" fill="#191a1a" d="M 87.5,32.5 C 99.6365,32.7678 103.136,38.4345 98,49.5C 91.5208,54.199 86.1875,53.199 82,46.5C 80.268,40.3137 82.1014,35.647 87.5,32.5 Z"/></g>
<g><path style="opacity:1" fill="#64d8f1" d="M 87.5,35.5 C 97.3734,35.1922 100.04,39.3589 95.5,48C 87.4468,50.9513 83.6135,48.1179 84,39.5C 85.3756,38.2949 86.5423,36.9616 87.5,35.5 Z"/></g>
<g><path style="opacity:1" fill="#161819" d="M 118.5,49.5 C 119.75,49.5774 120.583,50.244 121,51.5C 122,54.8333 123,58.1667 124,61.5C 142.482,75.7886 144.316,91.9553 129.5,110C 123.189,115.15 116.189,117.317 108.5,116.5C 118.61,115.013 126.776,110.013 133,101.5C 140.39,85.3127 136.557,72.646 121.5,63.5C 120.493,58.8185 119.493,54.1518 118.5,49.5 Z"/></g>
<g><path style="opacity:1" fill="#091011" d="M 37.5,75.5 C 41.1817,75.3347 44.8484,75.5014 48.5,76C 49,76.5 49.5,77 50,77.5C 50.1133,84.1181 49.9466,90.7848 49.5,97.5C 48.6786,94.5535 48.1786,91.5535 48,88.5C 45.6194,87.565 43.1194,87.2317 40.5,87.5C 40.5,90.8333 40.5,94.1667 40.5,97.5C 39.5,97.5 38.5,97.5 37.5,97.5C 37.5,90.1667 37.5,82.8333 37.5,75.5 Z"/></g>
<g><path style="opacity:1" fill="#070c0d" d="M 70.5,77.5 C 67.1667,77.5 63.8333,77.5 60.5,77.5C 60.5,80.1667 60.5,82.8333 60.5,85.5C 62.8333,85.5 65.1667,85.5 67.5,85.5C 65.7211,87.3435 63.3878,88.0102 60.5,87.5C 60.5,89.8333 60.5,92.1667 60.5,94.5C 63.8333,94.5 67.1667,94.5 70.5,94.5C 70.5,95.5 70.5,96.5 70.5,97.5C 66.5,97.5 62.5,97.5 58.5,97.5C 58.5,90.1667 58.5,82.8333 58.5,75.5C 62.9707,74.9106 66.9707,75.5772 70.5,77.5 Z"/></g>
<g><path style="opacity:1" fill="#0e1517" d="M 79.5,75.5 C 85.1189,74.0632 88.4523,76.0632 89.5,81.5C 88.5,81.5 87.5,81.5 86.5,81.5C 86.5,80.5 86.5,79.5 86.5,78.5C 84.1667,78.5 81.8333,78.5 79.5,78.5C 78.1945,84.3618 80.5279,86.8618 86.5,86C 90.3927,89.5877 90.3927,93.2544 86.5,97C 80.8935,98.9286 77.5601,97.0953 76.5,91.5C 77.5,91.5 78.5,91.5 79.5,91.5C 79.5,92.5 79.5,93.5 79.5,94.5C 85.6624,95.8445 87.6624,93.6778 85.5,88C 76.5814,86.9989 74.5814,82.8323 79.5,75.5 Z"/></g>
<g><path style="opacity:1" fill="#020404" d="M 109.5,77.5 C 107.5,77.5 105.5,77.5 103.5,77.5C 103.5,84.1667 103.5,90.8333 103.5,97.5C 101.541,91.2504 100.874,84.5837 101.5,77.5C 99.396,77.7989 97.396,77.4656 95.5,76.5C 100.5,75.1667 105.5,75.1667 110.5,76.5C 110.376,77.1067 110.043,77.44 109.5,77.5 Z"/></g>
<g><path style="opacity:1" fill="#34717f" d="M 70.5,77.5 C 67.7131,78.4767 64.7131,78.81 61.5,78.5C 61.5,80.5 61.5,82.5 61.5,84.5C 63.7354,84.2053 65.7354,84.5386 67.5,85.5C 65.1667,85.5 62.8333,85.5 60.5,85.5C 60.5,82.8333 60.5,80.1667 60.5,77.5C 63.8333,77.5 67.1667,77.5 70.5,77.5 Z"/></g>
<g><path style="opacity:1" fill="#357583" d="M 109.5,77.5 C 108.081,78.4511 106.415,78.7845 104.5,78.5C 104.823,85.0221 104.49,91.3554 103.5,97.5C 103.5,90.8333 103.5,84.1667 103.5,77.5C 105.5,77.5 107.5,77.5 109.5,77.5 Z"/></g>
<g><path style="opacity:1" fill="#60d0e7" d="M 40.5,77.5 C 46.9169,76.1631 49.2502,78.4964 47.5,84.5C 45.2534,85.3742 42.9201,85.7076 40.5,85.5C 40.5,82.8333 40.5,80.1667 40.5,77.5 Z"/></g>
<g><path style="opacity:1" fill="#101213" d="M 64.5,116.5 C 64.8242,120.555 64.4909,124.555 63.5,128.5C 62.513,125.232 62.1796,121.898 62.5,118.5C 59.1667,118.5 55.8333,118.5 52.5,118.5C 52.9051,122.048 52.4051,125.381 51,128.5C 49.5761,124.703 49.0761,120.703 49.5,116.5C 48.8144,112.713 49.8144,109.546 52.5,107C 61.8068,103.821 65.8068,106.988 64.5,116.5 Z"/></g>
<g><path style="opacity:1" fill="#161c1d" d="M 86.5,116.5 C 83.4193,119.193 79.7527,120.193 75.5,119.5C 75.8919,122.722 75.3919,125.722 74,128.5C 72.5761,124.703 72.0761,120.703 72.5,116.5C 72.335,113.15 72.5017,109.817 73,106.5C 82.6542,103.224 87.1542,106.557 86.5,116.5 Z"/></g>
<g><path style="opacity:1" fill="#060606" d="M 95.5,115.5 C 95.8256,119.884 95.4922,124.217 94.5,128.5C 93.8933,128.376 93.56,128.043 93.5,127.5C 93.1697,120.468 93.503,113.468 94.5,106.5C 95.4841,109.428 95.8174,112.428 95.5,115.5 Z"/></g>
<g><path style="opacity:1" fill="#65dcf5" d="M 61.5,110.5 C 61.5,112.167 61.5,113.833 61.5,115.5C 58.5,115.5 55.5,115.5 52.5,115.5C 51.422,108.935 54.0886,106.768 60.5,109C 61.056,109.383 61.3893,109.883 61.5,110.5 Z"/></g>
<g><path style="opacity:1" fill="#71dff7" d="M 75.5,108.5 C 82.6593,106.82 84.9926,109.32 82.5,116C 80.1902,116.497 77.8568,116.663 75.5,116.5C 75.5,113.833 75.5,111.167 75.5,108.5 Z"/></g>
<g><path style="opacity:1" fill="#244d57" d="M 61.5,110.5 C 62.4614,112.265 62.7947,114.265 62.5,116.5C 58.9581,116.813 55.6248,116.479 52.5,115.5C 55.5,115.5 58.5,115.5 61.5,115.5C 61.5,113.833 61.5,112.167 61.5,110.5 Z"/></g>
<g><path style="opacity:1" fill="#050505" d="M -0.5,132.5 C 49.1667,132.5 98.8333,132.5 148.5,132.5C 148.5,137.5 148.5,142.5 148.5,147.5C 98.8333,147.5 49.1667,147.5 -0.5,147.5C -0.5,142.5 -0.5,137.5 -0.5,132.5 Z"/></g>
<g><path style="opacity:1" fill="#9e9e9e" d="M 50.5,136.5 C 53.8984,136.18 57.2317,136.513 60.5,137.5C 58.9951,138.842 58.3285,140.508 58.5,142.5C 55.8333,142.5 53.1667,142.5 50.5,142.5C 50.5,140.5 50.5,138.5 50.5,136.5 Z"/></g>
<g><path style="opacity:1" fill="#cacaca" d="M 2.5,136.5 C 3.69348,136.97 4.36015,137.97 4.5,139.5C 4.16667,140.5 3.83333,141.5 3.5,142.5C 2.53443,140.604 2.2011,138.604 2.5,136.5 Z"/></g>
<g><path style="opacity:1" fill="#cecece" d="M 99.5,136.5 C 100.5,136.5 101.5,136.5 102.5,136.5C 100.419,144.069 99.4188,144.069 99.5,136.5 Z"/></g>
<g><path style="opacity:1" fill="#c7c7c7" d="M 107.5,137.5 C 107.5,139.167 107.5,140.833 107.5,142.5C 106.167,142.5 104.833,142.5 103.5,142.5C 103.5,140.5 103.5,138.5 103.5,136.5C 104.959,136.433 106.292,136.766 107.5,137.5 Z"/></g>
<g><path style="opacity:1" fill="#6e6e6e" d="M 116.5,141.5 C 115.761,141.631 115.094,141.464 114.5,141C 114.833,140 115.167,139 115.5,138C 114.552,137.517 113.552,137.351 112.5,137.5C 112.5,138.833 112.5,140.167 112.5,141.5C 111.448,141.649 110.448,141.483 109.5,141C 110.973,140.29 111.64,139.124 111.5,137.5C 110.5,137.5 109.5,137.5 108.5,137.5C 108.5,139.167 108.5,140.833 108.5,142.5C 108.167,142.5 107.833,142.5 107.5,142.5C 107.5,140.833 107.5,139.167 107.5,137.5C 110.287,136.523 113.287,136.19 116.5,136.5C 116.5,138.167 116.5,139.833 116.5,141.5 Z"/></g>
<g><path style="opacity:1" fill="#dbdbdb" d="M 116.5,141.5 C 114.052,142.473 111.385,142.806 108.5,142.5C 108.5,140.833 108.5,139.167 108.5,137.5C 109.5,137.5 110.5,137.5 111.5,137.5C 111.64,139.124 110.973,140.29 109.5,141C 110.448,141.483 111.448,141.649 112.5,141.5C 112.5,140.167 112.5,138.833 112.5,137.5C 113.552,137.351 114.552,137.517 115.5,138C 115.167,139 114.833,140 114.5,141C 115.094,141.464 115.761,141.631 116.5,141.5 Z"/></g>
<g><path style="opacity:1" fill="#eeeeee" d="M 135.5,136.5 C 136.622,138.288 136.789,140.288 136,142.5C 134.607,139.875 133.441,139.875 132.5,142.5C 132.215,140.712 132.548,139.045 133.5,137.5C 135.005,140.131 135.671,139.797 135.5,136.5 Z"/></g>
<g><path style="opacity:1" fill="#ababab" d="M 135.5,136.5 C 135.671,139.797 135.005,140.131 133.5,137.5C 132.548,139.045 132.215,140.712 132.5,142.5C 130.379,142.675 128.379,142.341 126.5,141.5C 124.537,142.168 122.537,142.502 120.5,142.5C 119.167,140.5 119.167,138.5 120.5,136.5C 125.346,137.047 130.346,137.047 135.5,136.5 Z"/></g>
<g><path style="opacity:1" fill="#0e0e0e" d="M 126.5,141.5 C 122.703,140.089 122.703,139.089 126.5,138.5C 126.5,139.5 126.5,140.5 126.5,141.5 Z"/></g>
<g><path style="opacity:1" fill="#dddddd" d="M 141.5,137.5 C 145.458,139.133 145.458,140.8 141.5,142.5C 142.309,141.113 142.309,139.446 141.5,137.5 Z"/></g>
<g><path style="opacity:1" fill="#c4c4c4" d="M 9.5,138.5 C 13.7234,135.688 15.3901,137.021 14.5,142.5C 11.5,141.167 8.5,141.167 5.5,142.5C 5.33982,140.801 5.50649,139.134 6,137.5C 7.75649,136.015 8.92315,136.348 9.5,138.5 Z"/></g>
<g><path style="opacity:1" fill="#1d1d1d" d="M 11.5,138.5 C 13.337,138.639 13.6704,139.306 12.5,140.5C 11.7025,140.043 11.3691,139.376 11.5,138.5 Z"/></g>
<g><path style="opacity:1" fill="#000000" d="M 9.5,138.5 C 9.36055,140.337 8.69388,140.67 7.5,139.5C 7.95689,138.702 8.62356,138.369 9.5,138.5 Z"/></g>
<g><path style="opacity:1" fill="#c7c7c7" d="M 50.5,136.5 C 50.5,138.5 50.5,140.5 50.5,142.5C 49.5416,142.047 48.7083,141.381 48,140.5C 46.6538,143.249 45.3204,143.583 44,141.5C 37.945,142.104 31.7784,142.438 25.5,142.5C 24.8333,141.833 24.1667,141.167 23.5,140.5C 22.6721,141.415 21.6721,142.081 20.5,142.5C 19.0445,141.61 17.7112,141.61 16.5,142.5C 15.1667,140.5 15.1667,138.5 16.5,136.5C 17.1924,137.025 17.6924,137.692 18,138.5C 18.8388,137.376 20.0055,136.709 21.5,136.5C 23.5965,137.26 25.5965,137.26 27.5,136.5C 28.1667,137.167 28.8333,137.833 29.5,138.5C 30.6878,137.16 32.1878,136.493 34,136.5C 36.7114,136.789 39.3781,136.789 42,136.5C 43.8261,137.01 43.9928,137.844 42.5,139C 43.9308,139.465 45.0975,140.299 46,141.5C 46.3333,139.833 46.6667,138.167 47,136.5C 48.3928,139.125 49.5595,139.125 50.5,136.5 Z"/></g>
<g><path style="opacity:1" fill="#414141" d="M 38.5,138.5 C 43.3659,140.521 43.3659,141.521 38.5,141.5C 38.5,140.5 38.5,139.5 38.5,138.5 Z"/></g>
<g><path style="opacity:1" fill="#262626" d="M 31.5,138.5 C 32.5,138.5 33.5,138.5 34.5,138.5C 33.7542,142.31 32.7542,142.31 31.5,138.5 Z"/></g>
</svg>
