<?xml version="1.0" encoding="UTF-8"?>
<!DOCTYPE svg PUBLIC "-//W3C//DTD SVG 1.1//EN" "http://www.w3.org/Graphics/SVG/1.1/DTD/svg11.dtd">
<svg xmlns="http://www.w3.org/2000/svg" version="1.1" width="1950px" height="1300px" style="shape-rendering:geometricPrecision; text-rendering:geometricPrecision; image-rendering:optimizeQuality; fill-rule:evenodd; clip-rule:evenodd" xmlns:xlink="http://www.w3.org/1999/xlink">
<g><path style="opacity:1" fill="#0b0b0b" d="M -0.5,-0.5 C 649.5,-0.5 1299.5,-0.5 1949.5,-0.5C 1949.5,432.833 1949.5,866.167 1949.5,1299.5C 1299.5,1299.5 649.5,1299.5 -0.5,1299.5C -0.5,866.167 -0.5,432.833 -0.5,-0.5 Z"/></g>
<g><path style="opacity:1" fill="#fdfdfb" d="M 816.5,487.5 C 868.493,540.326 920.993,592.66 974,644.5C 1026.03,592.299 1078.2,540.299 1130.5,488.5C 1131.5,592.999 1131.83,697.665 1131.5,802.5C 1114.5,802.5 1097.5,802.5 1080.5,802.5C 1080.83,739.83 1080.5,677.163 1079.5,614.5C 1078.89,614.624 1078.56,614.957 1078.5,615.5C 1043.53,649.965 1008.7,684.632 974,719.5C 921.272,666.938 868.772,614.272 816.5,561.5C 815.173,536.736 815.173,512.069 816.5,487.5 Z"/></g>
<g><path style="opacity:1" fill="#838381" d="M 1130.5,488.5 C 1130.56,487.957 1130.89,487.624 1131.5,487.5C 1132.83,592.666 1132.83,697.666 1131.5,802.5C 1131.83,697.665 1131.5,592.999 1130.5,488.5 Z"/></g>
<g><path style="opacity:1" fill="#262625" d="M 816.5,487.5 C 815.173,512.069 815.173,536.736 816.5,561.5C 814.829,536.948 813.829,512.115 813.5,487C 814.749,486.26 815.749,486.427 816.5,487.5 Z"/></g>
<g><path style="opacity:1" fill="#8e8e8c" d="M 1078.5,615.5 C 1078.56,614.957 1078.89,614.624 1079.5,614.5C 1080.5,677.163 1080.83,739.83 1080.5,802.5C 1097.5,802.5 1114.5,802.5 1131.5,802.5C 1114.34,803.497 1097.01,803.83 1079.5,803.5C 1079.83,740.664 1079.5,677.998 1078.5,615.5 Z"/></g>
<g><path style="opacity:1" fill="#fbfbf9" d="M 553.5,902.5 C 567.171,915.671 580.671,929.004 594,942.5C 607.66,930.006 620.827,917.006 633.5,903.5C 634.496,903.586 635.329,903.252 636,902.5C 636.5,928.498 636.667,954.498 636.5,980.5C 630.167,980.5 623.833,980.5 617.5,980.5C 617.832,969.48 617.499,958.48 616.5,947.5C 615.893,947.624 615.56,947.957 615.5,948.5C 608.492,955.341 601.326,962.008 594,968.5C 587.364,961.698 580.53,955.031 573.5,948.5C 573.217,947.711 572.717,947.044 572,946.5C 571.5,958.162 571.333,969.829 571.5,981.5C 565.167,981.5 558.833,981.5 552.5,981.5C 552.169,954.995 552.502,928.661 553.5,902.5 Z"/></g>
<g><path style="opacity:1" fill="#acacaa" d="M 1234.5,904.5 C 1224.93,903.776 1215.59,904.776 1206.5,907.5C 1208.39,905.689 1210.72,904.522 1213.5,904C 1220.68,903.179 1227.68,903.345 1234.5,904.5 Z"/></g>
<g><path style="opacity:1" fill="#c6c6c4" d="M 860.5,905.5 C 874.661,904.339 888.994,904.173 903.5,905C 904.416,905.278 905.082,905.778 905.5,906.5C 890.536,905.549 875.536,905.215 860.5,905.5 Z"/></g>
<g><path style="opacity:1" fill="#fafaf8" d="M 1234.5,904.5 C 1254.16,909.302 1265.16,921.802 1267.5,942C 1265.64,962.858 1254.64,976.192 1234.5,982C 1212.86,985.924 1196.69,978.424 1186,959.5C 1177.66,935.983 1184.5,918.65 1206.5,907.5C 1215.59,904.776 1224.93,903.776 1234.5,904.5 Z"/></g>
<g><path style="opacity:1" fill="#fbfbf9" d="M 860.5,905.5 C 875.536,905.215 890.536,905.549 905.5,906.5C 922.992,914.805 927.492,927.805 919,945.5C 916.291,948.378 913.458,951.044 910.5,953.5C 916.219,962.202 921.886,970.869 927.5,979.5C 920.018,980.492 912.352,980.825 904.5,980.5C 899.844,973.195 895.177,965.862 890.5,958.5C 887.572,957.516 884.572,957.183 881.5,957.5C 881.5,965.5 881.5,973.5 881.5,981.5C 874.5,981.5 867.5,981.5 860.5,981.5C 860.5,956.167 860.5,930.833 860.5,905.5 Z"/></g>
<g><path style="opacity:1" fill="#fafaf8" d="M 1024.5,904.5 C 1038.5,904.333 1052.5,904.5 1066.5,905C 1086.85,913.862 1091.68,928.029 1081,947.5C 1078.52,948.985 1076.36,950.819 1074.5,953C 1079.98,961.975 1085.65,970.808 1091.5,979.5C 1084.02,980.492 1076.35,980.825 1068.5,980.5C 1063.53,973.343 1058.7,966.009 1054,958.5C 1051.28,957.556 1048.45,957.223 1045.5,957.5C 1044.51,964.982 1044.17,972.648 1044.5,980.5C 1037.83,980.5 1031.17,980.5 1024.5,980.5C 1024.5,955.167 1024.5,929.833 1024.5,904.5 Z"/></g>
<g><path style="opacity:1" fill="#fbfbf9" d="M 1432.5,979.5 C 1425.02,980.492 1417.35,980.825 1409.5,980.5C 1404.88,972.771 1399.88,965.271 1394.5,958C 1391.85,957.503 1389.19,957.336 1386.5,957.5C 1386.5,965.5 1386.5,973.5 1386.5,981.5C 1379.5,981.5 1372.5,981.5 1365.5,981.5C 1365.5,955.833 1365.5,930.167 1365.5,904.5C 1379.5,904.333 1393.5,904.5 1407.5,905C 1427.7,913.238 1432.87,927.072 1423,946.5C 1420.17,948.494 1417.67,950.828 1415.5,953.5C 1421.19,962.184 1426.86,970.851 1432.5,979.5 Z"/></g>
<g><path style="opacity:1" fill="#454543" d="M 553.5,902.5 C 552.502,928.661 552.169,954.995 552.5,981.5C 551.171,954.997 551.171,928.33 552.5,901.5C 553.107,901.624 553.44,901.957 553.5,902.5 Z"/></g>
<g><path style="opacity:1" fill="#262624" d="M 636.5,981.5 C 636.5,981.167 636.5,980.833 636.5,980.5C 636.667,954.498 636.5,928.498 636,902.5C 635.329,903.252 634.496,903.586 633.5,903.5C 634.183,901.824 635.517,901.157 637.5,901.5C 637.831,928.339 637.498,955.005 636.5,981.5 Z"/></g>
<g><path style="opacity:1" fill="#7c7c7a" d="M 738.5,904.5 C 745.313,903.509 752.313,903.175 759.5,903.5C 759.5,929.5 759.5,955.5 759.5,981.5C 752.167,981.5 744.833,981.5 737.5,981.5C 737.169,955.661 737.502,929.995 738.5,904.5 Z"/></g>
<g><path style="opacity:1" fill="#fefefc" d="M 738.5,904.5 C 745.167,904.5 751.833,904.5 758.5,904.5C 758.5,929.833 758.5,955.167 758.5,980.5C 751.833,980.5 745.167,980.5 738.5,980.5C 738.5,955.167 738.5,929.833 738.5,904.5 Z"/></g>
<g><path style="opacity:1" fill="#0f0f0e" d="M 1229.5,963.5 C 1225.13,963.533 1220.8,963.2 1216.5,962.5C 1203.56,954.501 1200.72,943.835 1208,930.5C 1214.37,922.764 1222.54,920.264 1232.5,923C 1246.45,931.316 1249.28,942.483 1241,956.5C 1237.86,959.986 1234.03,962.319 1229.5,963.5 Z"/></g>
<g><path style="opacity:1" fill="#121211" d="M 881.5,923.5 C 887.176,923.334 892.843,923.501 898.5,924C 904.045,929.56 903.711,934.727 897.5,939.5C 892.208,940.495 886.875,940.828 881.5,940.5C 881.5,934.833 881.5,929.167 881.5,923.5 Z"/></g>
<g><path style="opacity:1" fill="#121211" d="M 1045.5,923.5 C 1051.18,923.334 1056.84,923.501 1062.5,924C 1066.99,930.079 1066.32,935.412 1060.5,940C 1055.51,940.499 1050.51,940.666 1045.5,940.5C 1045.5,934.833 1045.5,929.167 1045.5,923.5 Z"/></g>
<g><path style="opacity:1" fill="#131312" d="M 1386.5,923.5 C 1391.84,923.334 1397.18,923.501 1402.5,924C 1408.97,929.117 1408.97,934.451 1402.5,940C 1397.18,940.499 1391.84,940.666 1386.5,940.5C 1386.5,934.833 1386.5,929.167 1386.5,923.5 Z"/></g>
<g><path style="opacity:1" fill="#434341" d="M 573.5,948.5 C 572.833,959.5 572.167,970.5 571.5,981.5C 571.333,969.829 571.5,958.162 572,946.5C 572.717,947.044 573.217,947.711 573.5,948.5 Z"/></g>
<g><path style="opacity:1" fill="#747472" d="M 615.5,948.5 C 615.56,947.957 615.893,947.624 616.5,947.5C 617.499,958.48 617.832,969.48 617.5,980.5C 623.833,980.5 630.167,980.5 636.5,980.5C 636.5,980.833 636.5,981.167 636.5,981.5C 629.833,981.5 623.167,981.5 616.5,981.5C 616.828,970.321 616.495,959.321 615.5,948.5 Z"/></g>
<g><path style="opacity:1" fill="#848482" d="M 1216.5,962.5 C 1220.8,963.2 1225.13,963.533 1229.5,963.5C 1227.87,964.161 1226.03,964.494 1224,964.5C 1221.13,964.7 1218.63,964.033 1216.5,962.5 Z"/></g>
<g><path style="opacity:1" fill="#a5a5a3" d="M 927.5,979.5 C 928.043,979.56 928.376,979.893 928.5,980.5C 920.343,981.82 912.343,981.82 904.5,980.5C 912.352,980.825 920.018,980.492 927.5,979.5 Z"/></g>
<g><path style="opacity:1" fill="#858583" d="M 1024.5,904.5 C 1024.5,929.833 1024.5,955.167 1024.5,980.5C 1031.17,980.5 1037.83,980.5 1044.5,980.5C 1044.17,972.648 1044.51,964.982 1045.5,957.5C 1045.5,965.5 1045.5,973.5 1045.5,981.5C 1038.17,981.5 1030.83,981.5 1023.5,981.5C 1023.17,955.661 1023.5,929.995 1024.5,904.5 Z"/></g>
<g><path style="opacity:1" fill="#a1a19f" d="M 1091.5,979.5 C 1092.04,979.56 1092.38,979.893 1092.5,980.5C 1084.34,981.82 1076.34,981.82 1068.5,980.5C 1076.35,980.825 1084.02,980.492 1091.5,979.5 Z"/></g>
<g><path style="opacity:1" fill="#a5a5a3" d="M 1432.5,979.5 C 1433.04,979.56 1433.38,979.893 1433.5,980.5C 1425.34,981.82 1417.34,981.82 1409.5,980.5C 1417.35,980.825 1425.02,980.492 1432.5,979.5 Z"/></g>
</svg>
